<svg id="svg-aliexpress" xmlns="http://www.w3.org/2000/svg" viewBox="0 0 1000 230"><title>aliexpress</title><path d="M273.9,104.23h63.25V85.39H273.9V39.18h70.43V20.34H255.5V170.18h93.76V151.34H273.9ZM442.58,62.06l-30.51,41.27L382,62.06H357.79l44,55.18L360,170.63h21.53l30.51-39.93,30.51,39.93h21.53l-39.48-53.39,41.72-55.18Zm87.93-2.69c-33.65,0-55.18,30.06-55.18,58.32V228.5h18.39v-74c7.18,13.91,26.47,20.19,40.82,20.19,29.61,0,55.63-23.78,55.63-58.32C590.17,80.91,564.6,59.37,530.51,59.37Zm2.24,96.9c-25.57,0-37.24-21.08-37.68-32.3-1.79-34.54,18.84-44.41,32.3-44.86,27.81-1.35,43.52,13,43.52,37.24C570.88,143.71,554.73,156.27,532.75,156.27Zm91.52-82.55V62.06H605.87v109h18.39V105.13c13.46-28.71,35.44-26,37.68-25.57V59.82C647.15,59.82,633.24,63.41,624.27,73.73Zm96-14.36c-31,0-53.39,25.57-53.39,57,0,34.09,23.33,58.32,56.08,58.77,17.5,0,31.85-7.18,43.07-17.94l-12.11-12.56c-9,9-17.5,12.56-30.06,13-17,.45-35.44-10.32-36.79-31h86.13v-9C773.21,84.94,758.85,59.37,720.27,59.37Zm-33.2,50.25c.9-16.6,14.36-31.85,31.85-31.85,23.33,0,35,15.7,35,31.85Zm167.33,4.49c-9.42-5.83-21.09-7.63-31.85-10.32-8.08-2.24-20.19-6.28-17.5-17C806.85,79.11,816.72,76,823.9,76c14.36,0,20.64,4,27.37,12.11l13.46-10.77c.45,0-9.87-9.42-10.77-10.32-21.09-15.25-67.74-9.87-67.74,22.88,0,12.56,7.18,21.09,18.39,26,9.87,4.49,20.64,5.83,30.51,9.42,7.63,3.14,14.36,8.08,13.46,17-1.79,16.15-22.88,17-34.54,13.91a22.88,22.88,0,0,1-10.32-5.38c-.9-.45-8.08-7.63-7.63-7.63l-13.46,12.11s2.24,2.24,3.14,2.24c12.11,12.11,26.92,17.5,44,16.6,14.36-.45,30.51-6.28,35.89-21.09C870.56,139.67,867.42,122.18,854.41,114.1Zm94.66,0c-9.42-5.83-21.09-7.63-31.85-10.32-8.08-2.24-20.19-6.28-17.5-17C901.51,79.11,911.38,76,918.56,76c14.36,0,20.64,4,27.37,12.11l13.46-10.77c.45,0-9.87-9.42-10.77-10.32-21.09-15.25-67.74-9.87-67.74,22.88,0,12.56,7.18,21.09,18.39,26,9.87,4.49,20.64,5.83,30.51,9.42,7.63,3.14,14.36,8.08,13.46,17-1.79,16.15-22.88,17-34.54,13.91a22.88,22.88,0,0,1-10.32-5.38c-.9-.45-8.08-7.63-7.63-7.63l-13.46,12.11s2.24,2.24,3.14,2.24c12.11,12.11,26.92,17.5,44,16.6,14.36-.45,30.51-6.28,35.89-21.09C965.22,139.67,962.08,122.18,949.07,114.1Zm11.66-63.7h4V62.06h2.69V50.4h4V48.16H960.73Zm23.78-2.24-3.59,9.42-3.59-9.42h-3.59V62.06H976V51.3l4,10.77h.9l4-10.77V62.06h3.14V48.16Z" style="fill:#e43225"/><path d="M70.23,20.34,11.91,170.63H31.2l13.46-35.89h72.68l13.46,35.89h18.39L91.31,20.34Zm-17.5,96L80.09,41.88l29.61,74.47Zm108.57,54.28h18.84V20.34H161.29Zm47.1,0h18.84V64.31H208.4ZM218.72,1.5H216A27.43,27.43,0,0,1,189.56,28v1.79A27.43,27.43,0,0,1,216,56.23h2.69a27.43,27.43,0,0,1,26.47-26.47V28A27.43,27.43,0,0,1,218.72,1.5Z" style="fill:#f7971d"/></svg>