<svg id="svg-amazon" xmlns="http://www.w3.org/2000/svg" viewBox="0 0 1000 300"><title>amazon</title><path d="M610.69,220.62c-64.4,27.33-134.43,40.51-198.09,40.51-94.4,0-185.78-25.87-259.69-68.87-6.46-3.79-11.28,2.84-5.9,7.71,68.48,61.86,159,99,259.56,99,71.71,0,155-22.6,212.47-65C628.55,227,620.42,216.48,610.69,220.62ZM667.47,188c-6.28-7.75-60.18-14.42-93,8.7-5.08,3.53-4.22,8.44,1.42,7.75,18.51-2.2,59.75-7.15,67.06,2.24h0c7.36,9.43-8.18,48.21-15.11,65.51-2.11,5.25,2.41,7.36,7.15,3.4C665.83,249.84,673.75,195.82,667.47,188Z" style="fill:#f90"/><path d="M686.92,131.17c-17.56-9.9-38-12.78-57.38-12.31l52.13-74.42c4.82-6.67,7.53-10.89,7.58-14.12V11.07a5.6,5.6,0,0,0-5.81-5.68H582.84a5.54,5.54,0,0,0-5.68,5.68V33.54h0A5.57,5.57,0,0,0,583,39.18h52.56l-60.39,86.61c-3.66,5.55-3.7,11.79-3.7,15.45V164c0,3.27,3.66,7.06,7.15,5.17,34.22-18.16,75.33-16.4,106.28-.17,3.79,2,7.4-1.85,7.4-5.12v-24C692,136.68,690.88,133.41,686.92,131.17ZM337,2.51c-18,0-34.87,9.25-42.27,29.1C286.09,11.76,274.12,2.51,255,2.51c-18.85,0-32.84,9.25-40.29,29.1h-.56V11.07a5.76,5.76,0,0,0-5.55-5.25H180a5.75,5.75,0,0,0-5.9,5.64V168.53a5.78,5.78,0,0,0,5.47,5.21h30.6a5.78,5.78,0,0,0,5.9-5.68V84.81c0-18.16-.86-43.3,21.14-43.3,21.74,0,18.85,25.78,18.85,43.3l0,83.25a5.79,5.79,0,0,0,5.51,5.68H292.2a5.78,5.78,0,0,0,5.9-5.68V84.81c0-8.91-.3-22.17,2.84-30.09s10.89-12.87,18.29-12.87c8.87,0,15.71,3,18,13.52,1.46,6.28.86,22.81.86,29.44v83.25a5.82,5.82,0,0,0,5.51,5.68h30.56a5.78,5.78,0,0,0,5.9-5.68l0-99.13c0-16.83,2-36-7.71-49.24C363.83,7.8,349.79,2.51,337,2.51Zm438.89,0c-44.29,0-68.87,38-68.87,86.91,0,48.6,24.28,87.6,68.87,87.6,42.83,0,70-38,70-85.92C845.84,41.51,821.27,2.51,775.85,2.51Zm0,142.13c-24,0-23.72-41-23.72-60.18s1.42-49.89,24-49.89c9.73,0,16.57,4.26,20,15.19,4,12.57,4.56,28.41,4.56,41.67C800.69,111.58,799.57,144.64,775.85,144.64ZM986.43,21c-8.61-13.56-22-18.51-35.73-18.51-21.14,0-33.14,10.24-41.71,31.72h-.56v-24A5.86,5.86,0,0,0,903,5.82H874.6a5.79,5.79,0,0,0-5.9,5.12l0,157.11a5.82,5.82,0,0,0,5.51,5.68h30.48a5.88,5.88,0,0,0,6-5.68V83.47c0-10.59.56-20.15,4.86-29.74,3.4-7.58,10.24-12.57,17.69-12.57,21.14,0,19.16,25.14,19.16,42.31v85.32a5.8,5.8,0,0,0,5.42,5h30.69a5.88,5.88,0,0,0,5.9-5V69.91C994.44,54.72,994.44,33.59,986.43,21ZM539.92,116.58V68.88c0-20.19,1.42-38.74-13.47-52.64C514.7,5,495.24,1,480.35,1c-29.1,0-61.64,10.85-68.44,46.83-.73,3.83,2.07,5.85,4.56,6.41l29.66,3.19c2.8-.13,4.82-2.84,5.34-5.6C454,39.44,464.38,33.46,476,33.46c6.33,0,13.47,2.32,17.17,8,4.3,6.28,3.74,14.89,3.74,22.17v4c-17.73,2-40.94,3.31-57.55,10.63-19.2,8.26-32.63,25.18-32.63,50,0,31.81,20,47.69,45.8,47.69,21.74,0,33.66-5.12,50.45-22.25,5.55,8,7.4,12,17.56,20.4a6.39,6.39,0,0,0,7.23-.73h0l0,.09c6.11-5.42,17.22-15.11,23.46-20.32,2.5-2.07,2.07-5.38.13-8.14C545.86,137.19,539.92,130.91,539.92,116.58Zm-48.68,14.59c-4.86,8.61-12.61,13.9-21.18,13.9-11.75,0-18.64-9-18.64-22.17,0-26.09,23.37-30.82,45.54-30.82v6.63h0C497,110.64,497.27,120.58,491.24,131.17ZM138.7,116.58V68.88c0-20.19,1.42-38.74-13.47-52.64C113.48,5,94,1,79.13,1,50,1,17.53,11.85,10.69,47.83c-.69,3.83,2.07,5.85,4.56,6.41L45,57.43c2.75-.13,4.78-2.84,5.29-5.6,2.54-12.4,13-18.38,24.62-18.38,6.28,0,13.43,2.32,17.17,8,4.26,6.28,3.7,14.89,3.7,22.17v4c-17.73,2-40.94,3.31-57.55,10.63C19,86.44,5.56,103.36,5.56,128.2c0,31.81,20.06,47.69,45.8,47.69,21.78,0,33.66-5.12,50.45-22.25,5.6,8,7.4,12,17.56,20.4a6.39,6.39,0,0,0,7.23-.73h0l.09.09c6.11-5.42,17.22-15.11,23.46-20.32,2.5-2.07,2.07-5.38.09-8.14C144.64,137.19,138.7,130.91,138.7,116.58ZM90,131.17c-4.86,8.61-12.57,13.9-21.18,13.9-11.75,0-18.6-9-18.6-22.17,0-26.09,23.37-30.82,45.5-30.82v6.63C95.74,110.64,96,120.58,90,131.17Z"/></svg>