<svg id="svg-applepay" xmlns="http://www.w3.org/2000/svg" viewBox="0 0 1000 410"><title>applepay</title><path d="M186.56,54.47C175,68.17,156.45,79,137.92,77.43c-2.32-18.53,6.75-38.21,17.37-50.37C166.87,13,187.13,2.94,203.54,2.17c1.93,19.3-5.6,38.21-17,52.3M203.35,81.1c-26.83-1.54-49.79,15.25-62.53,15.25-12.93,0-32.42-14.47-53.65-14.09-27.6.39-53.27,16-67.35,40.91-29,49.79-7.53,123.51,20.46,164C54,307.29,70.38,329.29,92,328.51c20.46-.77,28.56-13.32,53.27-13.32,24.9,0,32,13.32,53.65,12.93C221.31,327.73,235.4,308,249.1,288a176,176,0,0,0,22.39-46.12c-.39-.39-43.23-16.79-43.62-66.2-.39-41.3,33.77-61,35.32-62.14C243.87,85,213.77,81.87,203.35,81.1m155-56V326H405V223.14h64.65c59.06,0,100.55-40.53,100.55-99.2s-40.72-98.81-99-98.81H358.32ZM405,64.5h53.84c40.53,0,63.69,21.61,63.69,59.63S499.39,184,458.67,184H405ZM655.5,328.32c29.33,0,56.55-14.86,68.9-38.41h1V326h43.23V176.24c0-43.42-34.74-71.41-88.2-71.41-49.6,0-86.27,28.37-87.62,67.35h42.07c3.47-18.53,20.65-30.69,44.19-30.69,28.56,0,44.58,13.32,44.58,37.83v16.6l-58.28,3.47c-54.23,3.28-83.57,25.47-83.57,64.07,0,39,30.3,64.86,73.72,64.86ZM668,292.62c-24.9,0-40.72-12-40.72-30.3,0-18.91,15.25-29.91,44.39-31.65l51.91-3.28v17c0,28.16-23.9,48.23-55.55,48.23ZM826.32,407.83c45.55,0,67-17.37,85.69-70.06l82-230H946.55l-55,177.74h-1l-55-177.74H786.76l79.13,219-4.25,13.32c-7.14,22.58-18.72,31.26-39.37,31.26-3.67,0-10.81-.39-13.7-.77v36.09C811.27,407.45,822.85,407.83,826.32,407.83Z"/></svg>