<svg id="svg-becomeapatron" xmlns="http://www.w3.org/2000/svg" viewBox="0 0 1000 200"><title>become_a_patron</title><rect width="1000" height="200" style="fill:#f86753"/><rect x="41.35" y="34.96" width="23.85" height="130.09" style="fill:#052d49"/><circle cx="128.23" cy="83.72" r="48.77" style="fill:#fff"/><path d="M221.24,71.08h18q12.33,0,17.9,3.51t5.57,11.16a14.06,14.06,0,0,1-2.44,8.52,9.74,9.74,0,0,1-6.48,4v.4q5.51,1.23,7.95,4.6t2.44,9q0,7.93-5.73,12.37T242.92,129H221.24Zm12.29,23h7.14q5,0,7.24-1.55t2.24-5.11a5.12,5.12,0,0,0-2.44-4.78q-2.44-1.45-7.71-1.45h-6.46Zm0,9.75v15.11h8q5.07,0,7.49-1.94t2.42-5.95q0-7.22-10.31-7.22Z" style="fill:#fff"/><path d="M307.64,129H274.25v-58h33.39V81.15H286.54V93.87h19.63v10.07H286.54v14.95h21.09Z" style="fill:#fff"/><path d="M342.81,80.47a12.53,12.53,0,0,0-10.75,5.21q-3.81,5.21-3.81,14.53,0,19.39,14.55,19.39,6.11,0,14.79-3.05v10.31a41.07,41.07,0,0,1-15.94,3q-12.65,0-19.35-7.67t-6.7-22A36,36,0,0,1,318.9,84.3a23.78,23.78,0,0,1,9.46-10.43,28,28,0,0,1,14.45-3.63,39,39,0,0,1,17,4.08l-4,10a65.76,65.76,0,0,0-6.54-2.7A19.54,19.54,0,0,0,342.81,80.47Z" style="fill:#fff"/><path d="M421,100q0,14.39-7.14,22.12t-20.46,7.73q-13.32,0-20.46-7.73t-7.14-22.2q0-14.47,7.16-22.11t20.52-7.63q13.36,0,20.44,7.69T421,100Zm-42.31,0q0,9.71,3.69,14.63t11,4.92q14.71,0,14.71-19.55T393.49,80.39q-7.34,0-11.06,4.94T378.7,100Z" style="fill:#fff"/><path d="M456,129l-14-45.48h-.36q.75,13.88.75,18.52v27h-11v-58h16.73l13.72,44.33h.24l14.55-44.33h16.73v58H482V101.61q0-1.94.06-4.48t.54-13.48h-.36L467.28,129Z" style="fill:#fff"/><path d="M539.88,129H506.49v-58h33.39V81.15H518.79V93.87h19.63v10.07H518.79v14.95h21.09Z" style="fill:#fff"/><path d="M605.47,129l-4.2-13.8H580.13l-4.2,13.8H562.69l20.46-58.21h15L618.71,129Zm-7.14-24.11q-5.83-18.75-6.56-21.21t-1.05-3.89q-1.31,5.08-7.49,25.1Z" style="fill:#fff"/><path d="M684.06,89.16q0,9.36-5.85,14.31t-16.63,5h-5.27V129H644v-58h18.52q10.55,0,16,4.54T684.06,89.16Zm-27.75,9.2h4q5.67,0,8.49-2.24a7.84,7.84,0,0,0,2.82-6.52q0-4.32-2.36-6.38t-7.39-2.06h-5.59Z" style="fill:#fff"/><path d="M728.95,129l-4.2-13.8H703.61l-4.2,13.8H686.17l20.46-58.21h15L742.19,129Zm-7.14-24.11Q716,86.18,715.25,83.72t-1.05-3.89q-1.31,5.08-7.49,25.1Z" style="fill:#fff"/><path d="M770.31,129H758V81.31H742.27V71.08H786V81.31H770.31Z" style="fill:#fff"/><path d="M805.72,106.8V129H793.42v-58h16.89q11.82,0,17.49,4.3t5.67,13.06a15.38,15.38,0,0,1-2.82,9.1,18.62,18.62,0,0,1-8,6.25q13.08,19.55,17,25.26H826.1L812.26,106.8Zm0-10h4q5.83,0,8.6-1.94t2.78-6.11q0-4.12-2.84-5.87t-8.78-1.74h-3.73Z" style="fill:#fff"/><path d="M898.1,100q0,14.39-7.14,22.12t-20.46,7.73q-13.32,0-20.46-7.73t-7.14-22.2q0-14.47,7.16-22.11t20.52-7.63q13.36,0,20.44,7.69T898.1,100Zm-42.31,0q0,9.71,3.69,14.63t11,4.92q14.71,0,14.71-19.55T870.59,80.39q-7.34,0-11.06,4.94T855.8,100Z" style="fill:#fff"/><path d="M960,129H944.38L919.16,85.19h-.36q.75,11.62.75,16.57V129h-11v-58h15.5l25.18,43.42h.28q-.59-11.3-.59-16V71.08H960Z" style="fill:#fff"/></svg>