<svg id="svg-bhinneka" xmlns="http://www.w3.org/2000/svg" viewBox="0 0 1000 180.9"><title>bhinneka</title><path d="M124.4,89.56q0-16.67-13.5-25.3T71.34,55.63H28.13L5,180H67.31q25.39,0,39.92-10.32t14.53-28.14a23.52,23.52,0,0,0-6.47-16.89q-6.48-6.79-17.79-8.49,13.1-1.37,20-8.21T124.4,89.56ZM74.87,147.66q-4.75,2.48-16.78,2.49H54.75l3.7-19.9h7.42q7.15,0,10.45,2.18t3.3,6.8C79.62,143.19,78,146,74.87,147.66Zm5.48-49.19Q76.12,100.4,67,100.4H64.7l3.12-14.92H74q5,0,7.81,1.85a5.74,5.74,0,0,1,2.82,5Q84.6,96.56,80.35,98.48ZM223,55.63l-8,43H190.26l7.9-43h-45.6L129.37,180h45.52l8.5-44.7h24.82l-8.5,44.7h45.6L268.67,55.63Zm69,0L268.67,180h46.4L338.32,55.63Zm149.94,0-12.11,64.73A150.13,150.13,0,0,0,423.12,98c-.46-1.3-.8-2.27-1-2.9l-14.44-39.5H361.52L338.32,180h46.14l6.44-34.83.17-1q3.53-19.63,3.87-28.38L418.22,180h46.06L487.56,55.63Zm149.25,0-12.12,64.73A151.06,151.06,0,0,0,572.38,98q-.69-2-1-2.9L556.9,55.63H510.77L487.56,180h46.15l6.44-34.83.17-1q3.52-19.63,3.87-28.38L567.47,180h46.05L636.81,55.63ZM740.07,89.37l6.19-33.74H660L636.81,180h90.11l6.28-33.74H688.53l2.49-13.4h38.49l5.85-31.48H696.77l2.32-12ZM978.29,55.63H927.6L865.37,171.27,843.6,118.41l46.92-62.78H838l-33.18,50.47,9.42-50.47H769.17L746.26,180h45l10.1-54.45L820.26,180H910.7l7-16.53h30.82L949.4,180H995Zm-48,79.6,8.22-21.31q1.52-4.24,2.89-8.54,1.56-4.95,3-9.95-.08,1.66-.12,3.55c0,1.25,0,3,0,5.39q0,6.93.4,13.85.06,1.62.16,3.24l.47,13.77Z" style="fill:#ed1c24"/><path d="M298.56,14.19,408,.9,293.54,40.7Z" style="fill:#ffca04"/></svg>