<svg id="svg-bitcoin" xmlns="http://www.w3.org/2000/svg" viewBox="0 0 1000 220"><title>bitcoin</title><path d="M96.85,111.22l-6.27,25.12c7.73,1.92,31.59,9.58,35.12-4.59h0C129.39,117,104.58,113.15,96.85,111.22Zm8.55-34.28L99.72,99.72c6.44,1.61,26.3,8.15,29.52-4.74C132.58,81.54,111.84,78.54,105.4,76.94ZM131.06,9.12a104,104,0,1,0,75.73,126h0A104,104,0,0,0,131.06,9.12Zm20.71,86.07h0c-1.5,10.13-7.11,15-14.57,16.75,10.24,5.33,15.45,13.5,10.48,27.67-6.16,17.6-20.79,19.08-40.25,15.4l-4.72,18.92L91.31,171.1,96,152.43c-3-.73-6-1.51-9.09-2.36L82.2,168.83,70.8,166l4.72-19c-2.66-.68-5.37-1.41-8.13-2.1l-14.85-3.7,5.66-13.06s8.41,2.24,8.29,2.07a4.15,4.15,0,0,0,5.23-2.71L79.19,97.6l1.21.3a9.45,9.45,0,0,0-1.19-.38l5.32-21.36c.14-2.42-.7-5.48-5.32-6.64.18-.12-8.29-2.06-8.29-2.06l3-12.19L89.7,59.21v.06c2.37.59,4.8,1.15,7.29,1.71l4.68-18.74,11.4,2.84-4.58,18.37c3.06.7,6.14,1.4,9.14,2.15l4.55-18.25,11.41,2.84L128.9,68.95C143.31,73.91,153.84,81.35,151.77,95.19Z" style="fill:#f7931a"/><path d="M359,210.3h39L431.12,71.86H391.9Zm117.85-57.92L488.42,104h43.44l7.89-32.1H496l10-40.81-40.8,6.32h0l-25.81,109a138.76,138.76,0,0,0-3.68,25.53,46.9,46.9,0,0,0,3.68,21.44,31.29,31.29,0,0,0,14.22,14.76q10,5.37,28.17,5.38a98.52,98.52,0,0,0,21.85-2.1,139.8,139.8,0,0,0,17.11-5l-2.91-30a86.9,86.9,0,0,1-12,3.29,62.32,62.32,0,0,1-12.26,1.19c-5.1,0-9-.71-11.71-2.13a11.42,11.42,0,0,1-5.66-5.91,20.67,20.67,0,0,1-1.31-9.09A54.77,54.77,0,0,1,476.85,152.38ZM402.17,50.13A24.17,24.17,0,0,0,416.92,55h0a25.66,25.66,0,0,0,10.39-2.09,28.62,28.62,0,0,0,8.55-5.65,27.4,27.4,0,0,0,5.91-8.43A24.59,24.59,0,0,0,444,28.42q0-10-6.57-14.88A24.18,24.18,0,0,0,422.7,8.68a26.1,26.1,0,0,0-10.41,2.1,29.14,29.14,0,0,0-8.55,5.66,27.79,27.79,0,0,0-5.93,8.43,24.75,24.75,0,0,0-2.23,10.39C395.58,41.95,397.76,46.91,402.17,50.13ZM343.84,85.52a44,44,0,0,0-15.3-12.11c-6.12-3-13.41-4.48-21.84-4.48h0a46.71,46.71,0,0,0-11.31,1.33,63.4,63.4,0,0,0-10.52,3.68L301.17,6l-40.79,6.32L214.85,203.7A81.14,81.14,0,0,0,231,209.49a158.86,158.86,0,0,0,16.19,3.18,121.53,121.53,0,0,0,13.54,1.17c3.94.08,6.73.13,8.31.13a83.57,83.57,0,0,0,34.2-7,86.05,86.05,0,0,0,27.38-18.93,90,90,0,0,0,25-62.53,81.76,81.76,0,0,0-2.88-22.11A51,51,0,0,0,343.84,85.52Zm-30.55,62.65a60.41,60.41,0,0,1-9.34,17,45.72,45.72,0,0,1-14.1,12,35.74,35.74,0,0,1-17.37,4.48h-4.73a28.58,28.58,0,0,1-3.18-.15,20.6,20.6,0,0,1-2.48-.39c-.79-.17-1.72-.34-2.76-.53l17.36-72.11a24,24,0,0,1,10.68-5.54,48.72,48.72,0,0,1,9.6-1.31c7.54,0,12.73,2.38,15.53,7.11s4.21,11.32,4.21,19.74A57.87,57.87,0,0,1,313.29,148.17ZM621,101.32A47.52,47.52,0,0,1,634.77,103c3.77,1.14,7.41,2.39,10.92,3.82l13.44-30.55a85.78,85.78,0,0,0-17-5.91,90.71,90.71,0,0,0-21.18-2.25A83.7,83.7,0,0,0,586.62,75a77.71,77.71,0,0,0-26.2,18.68,82.9,82.9,0,0,0-16.6,27.66A97.21,97.21,0,0,0,538,155h0a77.26,77.26,0,0,0,3.31,22.62A48.12,48.12,0,0,0,552,196.48a52.62,52.62,0,0,0,18.68,12.77q11.31,4.7,27.63,4.73a90.73,90.73,0,0,0,21.33-2.22A141,141,0,0,0,636,206.61l-2.91-31.32a72.62,72.62,0,0,1-12.64,3.95,68.33,68.33,0,0,1-14.74,1.57q-15.51,0-21.31-8.29t-5.8-21.72q0-22.64,11.46-36.07C597.67,105.8,607.95,101.32,621,101.32Zm154.5-17.11a45,45,0,0,0-17.11-11.84,64,64,0,0,0-24.11-4.22c-12.44,0-23.52,2.68-33.15,8a80.89,80.89,0,0,0-24.46,20.69,89.47,89.47,0,0,0-15.15,28.42,101.59,101.59,0,0,0-5.12,31.6,72.82,72.82,0,0,0,3.4,23,51.17,51.17,0,0,0,10.13,18,44.72,44.72,0,0,0,17,11.84Q697.14,214,711.09,214h0q19.22,0,33.83-8a77.26,77.26,0,0,0,24.34-20.65A91.24,91.24,0,0,0,784,156.87a105,105,0,0,0,5-31.6,73,73,0,0,0-3.42-23A51.41,51.41,0,0,0,775.46,84.21Zm-27.62,62.25a62.58,62.58,0,0,1-6.73,16.71,43.21,43.21,0,0,1-11,12.63,24.49,24.49,0,0,1-15.27,5c-7.37,0-12.45-2.46-15.27-7.36s-4.2-11.76-4.2-20.55a72,72,0,0,1,2.22-17.23A62.41,62.41,0,0,1,704.27,119a43,43,0,0,1,11-12.64,24.62,24.62,0,0,1,15.25-5h0q11.05,0,15.27,7.36t4.22,20.54A73,73,0,0,1,747.83,146.46ZM991,86.59q-11.73-17.9-42.53-17.91a168.57,168.57,0,0,0-18.8.93,145.25,145.25,0,0,0-15,2.39c-4.5.95-8.52,2-12.13,3.13s-6.89,2.17-9.85,3L860.8,210.29H900l25.53-107.12a79.17,79.17,0,0,1,15.52-1.6c5.27,0,9.15,1,11.72,3a13.55,13.55,0,0,1,4.86,7.91,31.52,31.52,0,0,1,.14,11.31c-.61,4.32-1.45,8.73-2.51,13.3l-17.37,73.18h39.21l17.92-74.75Q1002.67,104.5,991,86.59ZM835.64,50.13A24.13,24.13,0,0,0,850.37,55a25.74,25.74,0,0,0,10.42-2.09,28.91,28.91,0,0,0,8.55-5.65,27.32,27.32,0,0,0,5.91-8.43,25,25,0,0,0,2.26-10.41c0-6.65-2.21-11.62-6.6-14.88a24.18,24.18,0,0,0-14.75-4.86,25.92,25.92,0,0,0-10.38,2.1,29.09,29.09,0,0,0-8.55,5.66,27.43,27.43,0,0,0-5.93,8.43A24.71,24.71,0,0,0,829,35.26Q829,45.29,835.64,50.13ZM825.35,71.86,792.45,210.3h39L864.59,71.86Z" style="fill:#4d4d4d"/></svg>