<svg id="svg-blibli" xmlns="http://www.w3.org/2000/svg" viewBox="0 0 1000 400"><title>blibli</title><path d="M254.54,381.37c-17-75.9-19.81-152.57-4.14-230.23,1.44-7.15-6-13.66-13.26-13.26L18.51,150c-7.28.4-12.6,5.76-11.27,12.93,16.17,87.22,11.62,155.44-5.8,216.14-2,7,3.15,15.58,10.44,15.58h229.4C248.57,394.63,256.14,388.49,254.54,381.37ZM179,181.81a9.61,9.61,0,1,1-9.61,9.61A9.61,9.61,0,0,1,179,181.81Zm-107.24,0a9.61,9.61,0,1,1-9.61,9.61A9.61,9.61,0,0,1,71.72,181.81Zm98.86,88.34A64,64,0,0,1,61.36,224.9h0v-.32a9.25,9.25,0,1,1,18.49,0v.32h0a45.42,45.42,0,1,0,90.83,0h0v-.24h0v-.33a9.25,9.25,0,0,1,18.49-.14v.4h0v.33h0A63.78,63.78,0,0,1,170.58,270.14Z" style="fill:#268acb;fill-rule:evenodd"/><path d="M108.39,135.32,98.44,51.78,103.08,47a8,8,0,0,0,.66,1.16c3.31-1.65,11.89-6.49,17.84-9.88a10.77,10.77,0,0,0,16-.38l20.75,4.49,5.7,3.61s8.14,69.53,10.27,88.47l-65.45,3.62-.51-2.76ZM116.17,22.4l-7.11-12.06s3.07-1.33,4.81-.58,3.81,1.82,4.89,1.33,5-4.56,6.63-5.14a8.44,8.44,0,0,1,2.16-.58s5.14,1.57,6.38,2.82,1.91,1.82,3.15,1.33,4.81-3.4,6.22-3.56a12.3,12.3,0,0,1,2.32-.08l-3.84,14.72-4.7,2.67a10.77,10.77,0,0,0-15.53.31Z" style="fill:#8fc43f;fill-rule:evenodd"/><path d="M100.27,19c-1,2.09-.4,23.68,3.48,29.17,3.31-1.65,11.89-6.49,17.84-9.88a10.77,10.77,0,0,0,16-.38l21,4.54c1-2.09.4-23.68-3.48-29.17-3.35,1.67-12.11,6.62-18.08,10a10.77,10.77,0,0,0-15.53.31Z" style="fill:#1eac4b;fill-rule:evenodd"/><path d="M152.33,69.7l29.15,6.54,1,.22h0l-1-.22-13.13,58.55L131,136.85l14-62.54a6.1,6.1,0,0,1,7.27-4.61Zm66.21,14.84,26.91,6a6.1,6.1,0,0,1,4.61,7.27l-7.36,32.82-37.32,2.07,10.76-48Q217.37,84.66,218.54,84.54Z" style="fill:#df3286;fill-rule:evenodd"/><path d="M181.48,76.23l1,.22c-5-3.69-17.72-12.13-14.63-19.16,3.84-8.75,13.62-7.94,19.28-2.53s8.81,14.67,9.16,20.23c0,0,3.64-1.14,6.37.21l3.23,1.59s13.68-17.47,22.92-14S240.62,73.54,238,76.71c-2.46,3-10.52,7.46-21.83,8l-10.76,48-37,2,13.13-58.55Zm7.7-3.58s-3-11.83-7.2-13.87-6.72-1.23-7.91,1.19,6.79,8,15.11,12.68ZM229.5,70c-1.24-.92-3.41-1.52-6.83.41s-9.76,7.76-9.76,7.76,2.63.14,4.83.06,12.48-2.18,13.61-4S229.5,70,229.5,70Z" style="fill:#ef9720;fill-rule:evenodd"/><path d="M11.55,104.9l34.8-8.4,1.18-.28h0l-1.18.28,10.73,44.44-43.75,2.42L6.17,113.7a7.31,7.31,0,0,1,5.38-8.8Zm79-19.08,32.13-7.76a7.31,7.31,0,0,1,8.8,5.38l12.71,52.67-43.75,2.42L88.12,87.28Q89.4,86.57,90.6,85.82Z" style="fill:#ef9720;fill-rule:evenodd"/><path d="M46.35,96.5l1.18-.28c-7.29-1.35-25.47-3.66-25.87-12.86-.5-11.44,10.44-15.75,19.39-12.93S58.29,81.53,61.6,87.33c0,0,3.32-3.15,7-3.15h4.31s5.47-26,17.24-27.18,18.4,5.3,17.24,10.11c-1.08,4.49-7.36,13.59-19.23,20.17l12.37,51.26-43.41,2.4L46.35,96.5Zm6.39-7.93s-9.53-11.1-15.08-11.1-7.87,2.24-7.87,5.47,11.52,5,23,5.64Zm41.94-24.2c-1.82-.33-4.48.17-7.13,4.06s-6.38,13.51-6.38,13.51,2.9-1.24,5.22-2.49,12.27-9,12.51-11.52S94.67,64.37,94.67,64.37Z" style="fill:#e41f29;fill-rule:evenodd"/><path d="M348.16,215.23a69.46,69.46,0,1,1-69.46,69.46V177c9.12-9.93,20-16,32.61-16.64v118.2c0,28.92,11.3,53.33,33.6,53.33,26.07,0,41.41-21.13,41.41-47.2a47.24,47.24,0,0,0-60.71-45.24s5.94-15.43,17.25-24q2.62-.2,5.3-.2ZM831.94,141.9A26.71,26.71,0,0,1,850.09,149l-6.76,6.76a17.27,17.27,0,1,0,0,26l6.76,6.76a26.81,26.81,0,1,1-18.14-46.55Zm88,6.41a18.62,18.62,0,0,1,10.82-6.23v8.79c2.09-2.51,8.08-8.75,16.13-8.75,9.18,0,14.67,4.43,16.66,9.74.47-.65,7.19-9.74,16.9-9.74,14,0,18.6,9.2,18.6,21.44h0v23.8c-3.51,3.83-7.7,6.18-12.56,6.41V163.06s-.49-10.36-9.1-10.36c-13.11,0-11.25,10.33-11.9,12.77v21.9c-3.51,3.83-7.7,6.18-12.56,6.41V163.06s-.49-10.36-9.1-10.36-11.32,5.91-11.32,11.16v23.51c-3.51,3.83-7.7,6.18-12.56,6.41V148.31Zm-34.83-6.41a26.81,26.81,0,1,1-26.81,26.81,26.81,26.81,0,0,1,26.81-26.81Zm0,9.54a17.27,17.27,0,1,0,17.27,17.27,17.27,17.27,0,0,0-17.27-17.27ZM615.51,215.23A69.46,69.46,0,1,1,546,284.69V177c9.12-9.93,20-16,32.61-16.64v118.2c0,28.92,11.3,53.33,33.6,53.33,26.07,0,41.41-21.13,41.41-47.2A47.24,47.24,0,0,0,593,239.45s5.94-15.43,17.25-24q2.63-.2,5.3-.2Zm145.35,16.34c9.12-9.93,20-16,32.61-16.64V337.52c-9.12,9.93-20,16-32.61,16.64V231.57Zm16.3-70.19a16.34,16.34,0,1,1-16.34,16.34,16.34,16.34,0,0,1,16.34-16.34ZM706.57,137c9.12-9.93,20-16,32.61-16.64V337.52c-9.12,9.93-20,16-32.61,16.64V137ZM493.51,231.57c9.12-9.93,20-16,32.61-16.64V337.52c-9.12,9.93-20,16-32.61,16.64V231.57Zm16.3-70.19a16.34,16.34,0,1,1-16.34,16.34,16.34,16.34,0,0,1,16.34-16.34ZM439.22,137c9.12-9.93,20-16,32.61-16.64V337.52c-9.12,9.93-20,16-32.61,16.64Z" style="fill:#268acb;fill-rule:evenodd"/></svg>