<svg id="svg-blogger" xmlns="http://www.w3.org/2000/svg" viewBox="0 0 1000 260"><title>blogger</title><path d="M32.92,255.78a40,40,0,0,1-12.64-5.67,46.14,46.14,0,0,1-9.64-9.29A48.32,48.32,0,0,1,5,228.38c-1-3.87-1-5.4-1.07-98.19,0-92.31,0-94.34,1-98.31A38.26,38.26,0,0,1,34,4c4.12-.92,188.29-1.08,192.74-.17a37.89,37.89,0,0,1,27,20.61c4.35,8.68,4-.87,4.16,102.2.13,65.58,0,93.11-.41,96.54-2,16.05-13,28.5-29,32.57-4.08,1-5.49,1.06-98,1C41,256.74,36.41,256.7,32.92,255.78Z" style="fill:#ff5722"/><path d="M208.84,118.39a10.08,10.08,0,0,0-4.37-6.51c-.62-.33-4.56-.76-8.77-.95-7-.31-7.84-.45-10.06-1.75-3.53-2.07-4.5-4.3-4.51-10.37,0-11.59-4.84-22.34-14.37-32.05a53.54,53.54,0,0,0-23-14.22c-2.07-.63-6.7-.84-22.22-1-24.35-.29-29.75.21-38,3.51C68.21,61.12,57.23,73.94,53.23,90.39c-.75,3.09-.9,8-1.08,36.47-.22,35.62,0,40.85,2.25,47.91a42.43,42.43,0,0,0,7.52,14.48c7.28,9.66,18.2,16.64,29.11,18.61,5.19.94,69.26,1.17,75.82.28h0c11.41-1.56,20.35-6.13,28.74-14.7a47.86,47.86,0,0,0,12.35-21.82c1-3.7,1.12-5.5,1.31-27.22C209.38,128,209.26,120.33,208.84,118.39ZM95.79,96c2.74-2.77,3.5-2.87,20.65-2.87,15.4,0,15.92,0,18.18,1.18A7.72,7.72,0,0,1,139.3,102a8.28,8.28,0,0,1-4.31,7.58c-1.6,1-2.55,1.08-17.64,1.16-9.32.05-16.74-.12-17.84-.43C93.68,108.75,91.5,100.38,95.79,96Zm67.29,70.16-5.22.85-27.18.32c-23.89.28-30.65-.16-31.9-.7A8.8,8.8,0,0,1,96.42,152c2.49-2.25,3.58-2.32,34.15-2.35,31.45,0,31.28,0,34.27,2.75a8.66,8.66,0,0,1-1.76,13.81Z" style="fill:#fff"/><path d="M310.69,193.89V52.51h48.56q24,0,36.59,9.61T408.4,90.77a30.48,30.48,0,0,1-5.26,17.48q-5.26,7.77-15.38,12,11.48,3.11,17.76,11.7t6.28,20.63q0,19.91-12.8,30.59t-36.64,10.68ZM335.31,112h24.14q11.48,0,18-5.2t6.47-14.71q0-10.49-6-15.15t-18.64-4.66h-24Zm0,18.06v44.18h27.35q11.58,0,18.1-5.73t6.52-15.92q0-22-22.58-22.53Z"/><path d="M459.3,193.89H435.65V44.74H459.3Z"/><path d="M480.62,140.39a61.84,61.84,0,0,1,6.13-27.82,44.72,44.72,0,0,1,17.23-19,48.63,48.63,0,0,1,25.5-6.65q21.31,0,34.6,13.69t14.35,36.32l.1,5.54a62.39,62.39,0,0,1-6,27.77,44.18,44.18,0,0,1-17.13,18.94q-11.15,6.7-25.74,6.7-22.29,0-35.67-14.81T480.61,141.6Zm23.65,2q0,16.22,6.71,25.39T529.67,177q12,0,18.64-9.32T555,140.39q0-15.92-6.86-25.25a23.16,23.16,0,0,0-37-.15q-6.88,9.18-6.87,27.44Z"/><path d="M594.39,140.58q0-24.47,11.53-39.08t30.61-14.61q18,0,28.32,12.53l1.07-10.58h21.31V190.69q0,20.68-12.89,32.63t-34.79,11.94a56.19,56.19,0,0,1-22.63-4.81q-11-4.81-16.79-12.58l11.19-14.18q10.9,12.91,26.86,12.91,11.77,0,18.59-6.36t6.81-18.69v-7.09q-10.22,11.36-27.25,11.36-18.49,0-30.22-14.66T594.39,140.58Zm23.55,2q0,15.83,6.47,24.91t18,9.08q14.31,0,21.22-12.23V118.15q-6.72-11.94-21-11.94-11.68,0-18.15,9.22t-6.54,27.19Z"/><path d="M707.38,140.58q0-24.47,11.53-39.08t30.61-14.61q18,0,28.32,12.53l1.07-10.58h21.31V190.69q0,20.68-12.89,32.63t-34.79,11.94a56.19,56.19,0,0,1-22.63-4.81q-11-4.81-16.79-12.58l11.19-14.18q10.9,12.91,26.86,12.91,11.77,0,18.59-6.36t6.81-18.69v-7.09q-10.22,11.36-27.25,11.36-18.49,0-30.22-14.66T707.38,140.58Zm23.55,2q0,15.83,6.47,24.91t18,9.08q14.31,0,21.22-12.23V118.15q-6.72-11.94-21-11.94-11.68,0-18.15,9.22t-6.54,27.19Z"/><path d="M870.88,195.83q-22.48,0-36.45-14.13t-14-37.63v-2.91A62.92,62.92,0,0,1,826.51,113a46.22,46.22,0,0,1,17.08-19.27,45.23,45.23,0,0,1,24.53-6.89q21.51,0,33.23,13.69t11.73,38.74v9.52H844.31q1.07,13,8.71,20.59T872.24,177q16.25,0,26.47-13.11L911.46,176a42.54,42.54,0,0,1-16.89,14.61A53,53,0,0,1,870.88,195.83Zm-2.82-90q-9.73,0-15.72,6.8t-7.64,18.94h45.06V129.8q-.76-11.8-6.33-17.91t-15.37-6.07Z"/><path d="M986.59,110.38a58.69,58.69,0,0,0-9.64-.78Q960.7,109.6,955,122v71.86H931.41V88.83H954l.58,11.75q8.56-13.69,23.75-13.69a22.2,22.2,0,0,1,8.37,1.36Z"/></svg>