<svg xmlns="http://www.w3.org/2000/svg" viewBox="0 0 1000 180" id="svg-bukalapak"><title>bukalapak</title><path d="M69.57,96.61,51.23,21.08a15.47,15.47,0,0,0-19.8-11L11.57,16.5A15.47,15.47,0,0,0,2,37.06l29.58,71.89a15.48,15.48,0,0,0,19.1,8.88L59.33,115a15.46,15.46,0,0,0,10.24-18.4Zm2.76,73.07a21.21,21.21,0,1,1,7.24-4A21.21,21.21,0,0,1,72.33,169.68Zm44.06-19.39c27.22-8.84,49.19-40.22,38.26-73.87S107.49,30.29,80.28,39.13a12.7,12.7,0,0,0-8.42,15.13l2.75,11.31a12.74,12.74,0,0,0,16.29,9.07L92,74.28a21.39,21.39,0,1,1,13.22,40.67l-1.12.36a12.72,12.72,0,0,0-7.81,16.9L100.69,143a12.72,12.72,0,0,0,15.71,7.29Z" style="fill:#e31e52"/><path d="M237.19,63.84c14.47-7.75,32.3-6.33,44.38,5.74,11.59,11.61,11.82,28.3,11.82,34.87,0,18.59-8.59,34.25-24.93,39.07-21.76,6.66-55.08.78-55.08.78a3,3,0,0,1-2.69-3V38.59a2.45,2.45,0,0,1,2.44-2.44h20.41A2.45,2.45,0,0,1,236,38.59V63.15a.8.8,0,0,0,1.21.69ZM237,122.71c6.27,1.76,18.8,2.43,26-5v0c4.91-4.78,10.66-20.23-.88-31.77-4.87-5-12.84-7.67-23.91-3A3.81,3.81,0,0,0,236,86.38V121.3a1.43,1.43,0,0,0,1,1.41Zm353.6-84.05V144.89a1.64,1.64,0,0,0,1.63,1.63h22.19a1.64,1.64,0,0,0,1.64-1.63V38.65a2.44,2.44,0,0,0-2.45-2.44H593a2.45,2.45,0,0,0-2.43,2.44ZM392.37,127.73a7.47,7.47,0,0,1-3.44-1.42c-1.12-1-1.71-2.71-1.83-5.53V62A2.14,2.14,0,0,0,385,59.88H364A2.13,2.13,0,0,0,361.91,62v54.53a.93.93,0,0,1,0,.25c-2,7.1-10.34,9.24-16.87,8.14-9.28-1.56-13.15-9.36-12.82-18.33,0-.31.12-41.54.15-44.58a2.13,2.13,0,0,0-2.13-2.13H309.36A2.12,2.12,0,0,0,307.24,62c0,8.93-.07,51.87-.07,51.87,0,6.7,2.1,28.4,23.91,32.38,10.26,1.86,22.46-1.43,32.32-8.44a.84.84,0,0,1,1,0,.83.83,0,0,1,.24.23,18.58,18.58,0,0,0,9.62,6.87c5.76,1.89,13.58,1.13,15.94.9h.06a1.64,1.64,0,0,0,1.45-1.45l2-14.69a1.62,1.62,0,0,0-1.31-1.88ZM810.92,95.66c-.75-9.57-3.71-19.55-9.78-26.79l-.16-.2-.16-.19c-2.5-3-9.18-11.06-29.76-11-8.43,0-16.87.57-25.26,1.37-4.8.44-9.6.93-14.39,1.43-3.1.33-3.09,2.21-3.08,4.74V166.9a3.86,3.86,0,0,0,.1,1.47,3.77,3.77,0,0,0,.67,1.32,3.7,3.7,0,0,0,2.62.67H750.1a2.69,2.69,0,0,0,2.59-.65,2.7,2.7,0,0,0,.75-2.57c0-5.89,0-11.7,0-17.53q0-4.38,0-8.79a.82.82,0,0,1,.13-.44.79.79,0,0,1,.34-.31.82.82,0,0,1,.46-.07.81.81,0,0,1,.42.18c7.32,6.37,18.28,8.14,27.68,5.41,10-2.86,18.22-10.49,23-19.73S811.71,106,810.92,95.66Zm-25.68,12.21c-2.1,8.21-5.86,14.51-17.16,15.19-5.65.32-14.62-2.87-14.62-8.13V83.49c0-1.21.13-2.09,1.31-2.61,2.42-1.12,8.93-2,13.92-1.86,21.48.61,17.65,24.81,16.61,28.86Zm-327.15-7.73c-1.79,2.53-1.79,3.39-.11,5.76L487.59,144a1.63,1.63,0,0,1,.3.83,1.63,1.63,0,0,1-1.64,1.75H461.86a1.64,1.64,0,0,1-1.36-.74L435,112.76a1.25,1.25,0,0,0-1.37-.42,1.26,1.26,0,0,0-.87,1.13v31.46a1.64,1.64,0,0,1-1.64,1.63h-22a1.64,1.64,0,0,1-1.63-1.63V38.65a2.38,2.38,0,0,1,.18-.95,2.44,2.44,0,0,1,2.28-1.52h20.37a2.45,2.45,0,0,1,2.45,2.44V94.45a1.11,1.11,0,0,0,2,.66c4.91-6.7,21.85-30.43,24.56-34.31a1.61,1.61,0,0,1,1.34-.7h23.81a1.56,1.56,0,0,1,.87.24,1.54,1.54,0,0,1,.59.68,1.6,1.6,0,0,1,.17.88,1.62,1.62,0,0,1-.34.83Zm511,5.76c-1.67-2.37-1.67-3.23.12-5.76l27.71-37.41a1.64,1.64,0,0,0-1.3-2.63H971.8a1.61,1.61,0,0,0-.76.18,1.58,1.58,0,0,0-.58.52c-2.72,3.87-19.65,27.61-24.56,34.31a1.12,1.12,0,0,1-2-.66V38.63a2.48,2.48,0,0,0-.19-.94,2.45,2.45,0,0,0-2.26-1.51H921a2.44,2.44,0,0,0-2.26,1.51,2.4,2.4,0,0,0-.19.94V144.91a1.64,1.64,0,0,0,1.64,1.63h22a1.64,1.64,0,0,0,1.63-1.63V113.48a1.3,1.3,0,0,1,.27-.69,1.26,1.26,0,0,1,1.35-.43,1.28,1.28,0,0,1,.62.41l25.5,33.07a1.65,1.65,0,0,0,1.36.74h24.39a1.6,1.6,0,0,0,.85-.23,1.67,1.67,0,0,0,.79-1.51,1.59,1.59,0,0,0-.31-.83Zm-394,21.81.26.06a1.65,1.65,0,0,1,1.26,1.86l-2,14.69a1.6,1.6,0,0,1-1.43,1.44l-.39,0c-2.83.3-11.56,1.22-17.83-1.76a18.08,18.08,0,0,1-7.42-6.06.77.77,0,0,0-.22-.23.78.78,0,0,0-.61-.12.75.75,0,0,0-.29.13c-3.2,2.3-17.12,11.25-32.83,8.35a26.63,26.63,0,0,1-12.44-5.73c-11.71-10-12.49-31.61-1-42.35a34.42,34.42,0,0,1,9.66-5.69c14.86-6.44,35.07-5.48,35.07-5.48.23-3.86-.49-8.8-10.11-9.67-7.74-.85-22,1.66-26.28,2.41l-.86.15a2.43,2.43,0,0,1-2.51-1.11,2.37,2.37,0,0,1-.33-.91L500.14,64a2.46,2.46,0,0,1,0-1,2.34,2.34,0,0,1,.39-.87,2.43,2.43,0,0,1,1.59-1c4.4-.69,16.67-2.44,22-3,27.19-3.23,35.51,5.73,38.56,9h0l.5.54c6.62,7.41,7.07,17.86,7,27.27L570,119.55C570,126.57,572.43,127.11,575.09,127.72Zm-31.6-6.07a4.63,4.63,0,0,0,1.32-3.22V104.16c0-1.5-4.05-1.06-5.05-.95l-.22,0c-6.83.93-11.68,2.2-14.77,3.81-3.93,2.08-5.91,5.21-5.91,9.38a9.18,9.18,0,0,0,3.35,7.46C530.46,129.78,540.8,124.49,543.48,121.65Zm169.66,6.13-.26-.06c-2.64-.61-5-1.15-5-8.17L708,95c.06-9.41-.39-19.86-7-27.27l-.52-.55h0c-3.07-3.29-11.4-12.23-38.56-9-5.31.57-17.59,2.32-22,3A2.45,2.45,0,0,0,638,64l4.62,13.74a2.44,2.44,0,0,0,2.85,2l.19,0c3-.55,18.71-3.42,26.92-2.55,9.62.87,10.34,5.81,10.12,9.67,0,0-20.22-1-35.07,5.48A34.33,34.33,0,0,0,638,98c-11.49,10.74-10.72,32.3,1,42.35a26.62,26.62,0,0,0,12.44,5.73c15.72,2.9,29.63-6.05,32.82-8.35a.78.78,0,0,1,.61-.13.75.75,0,0,1,.29.12.77.77,0,0,1,.22.23,18.08,18.08,0,0,0,7.42,6.06c6.27,3,15,2.06,17.83,1.76l.39,0a1.61,1.61,0,0,0,1.43-1.44l2.07-14.67a1.65,1.65,0,0,0-.29-1.21A1.67,1.67,0,0,0,713.14,127.78Zm-30.49-9.34a4.65,4.65,0,0,1-1.32,3.22c-2.69,2.85-13,8.13-21.28,2.23a9.18,9.18,0,0,1-3.35-7.46c0-4.16,2-7.3,5.92-9.38,3.09-1.61,7.93-2.88,14.76-3.81l.21,0c1-.11,5.06-.55,5.06.95ZM903,127.72l.26.06a1.67,1.67,0,0,1,1.3,1.84l-2,14.69a1.6,1.6,0,0,1-1.43,1.44l-.4,0c-2.84.3-11.56,1.22-17.82-1.76a18,18,0,0,1-7.42-6.06.76.76,0,0,0-.22-.23.79.79,0,0,0-.61-.12.76.76,0,0,0-.29.12c-3.2,2.3-17.12,11.25-32.82,8.35a26.55,26.55,0,0,1-12.44-5.73c-11.71-10-12.49-31.61-1-42.35a34.44,34.44,0,0,1,9.61-5.69c14.86-6.44,35.07-5.48,35.07-5.48.21-3.86-.49-8.8-10.12-9.67-8.26-.88-24,2-27,2.55l-.15,0a2.44,2.44,0,0,1-1,0,2.45,2.45,0,0,1-1.89-2L828.06,64a2.46,2.46,0,0,1,2-2.82c4.39-.69,16.67-2.44,22-3,27.19-3.23,35.51,5.73,38.56,9l.51.54c6.61,7.41,7.07,17.86,7,27.27l-.18,24.56C897.93,126.57,900.33,127.11,903,127.72Zm-31.56-6.07a4.65,4.65,0,0,0,1.32-3.22V104.16c0-1.5-4.05-1.06-5.06-.95l-.21,0c-6.84.93-11.68,2.2-14.77,3.81-3.94,2.08-5.91,5.21-5.91,9.38a9.18,9.18,0,0,0,3.35,7.46C858.41,129.78,868.74,124.49,871.43,121.65Z" style="fill:#303330"/></svg>