<svg id="svg-bukalapak" xmlns="http://www.w3.org/2000/svg" viewBox="0 0 1000 165"><title>bukalapak</title><path d="M113.78,73.95c6.51-8.18,10.46-19.47,9.43-32.83-1.22-15.29-8.89-25.19-20.33-31.3C90.88,3.45,75.24,3.06,57,3.06H6.42A4.42,4.42,0,0,0,2,7.48V156.87a4.42,4.42,0,0,0,4.37,4.42H60.48c9.83,0,19,.11,27.15-1.18,11.38-1.86,20.72-5.95,27.52-12.43,1.68-1.43,22.91-20.19,13.56-52A49.27,49.27,0,0,0,113.78,73.95ZM44,35.48h24.8v0c9.76.42,17.51,7.06,17.51,15.18S78.57,65.43,68.81,65.86v0H44a4.42,4.42,0,0,1-4.42-4.42l-.06-21.75A4.44,4.44,0,0,1,44,35.48Zm27.83,94.16H44a4.42,4.42,0,0,1-4.43-4.42V103.46A4.42,4.42,0,0,1,44,99.1H71.84c10.21,0,18.49,6.84,18.49,15.27S82.06,129.65,71.84,129.65ZM242.95,17.1H214.19a4.44,4.44,0,0,0-4.37,4.42V108a51.76,51.76,0,0,1-22.66,4.68,11.66,11.66,0,0,1-10.47-8.83l0,0c-1.18-5.24-1.1-12.08-1.36-17.57-.41-8.35,0-16.76,0-24.38V21.52a4.44,4.44,0,0,0-4.44-4.42H142.1a4.44,4.44,0,0,0-4.36,4.42V78.91c0,8.49.13,16.63.86,24.15a49.09,49.09,0,0,0,57.66,42.54h0c.88-.17,1.74-.34,2.59-.54,8.54-2.07,40.46-14.19,48.54-17V21.52A4.44,4.44,0,0,0,242.95,17.1ZM998,50.78H962.4a11.91,11.91,0,0,0-10,5c-7.92,11.14-22,31.58-22,31.59a2.76,2.76,0,0,1-5-1.52V8.41A4.43,4.43,0,0,0,921,4H892.16a4.45,4.45,0,0,0-4.36,4.42V145.72l-1.38-.08c-9.25-.3-12-3.19-12.86-7-.26-1.21-.18-6.76-.18-8.68V87.42c0-16.51-2.55-28.34-11.64-36.87-8.67-8.17-24.55-9.93-41.07-8.91-5.06.29-10,.72-14.9,1.24h0C795.6,44,792.61,44.51,787.7,45.24a11.55,11.55,0,0,0-9.58,8.62,11,11,0,0,0-.28,4L779,82.73V83l0,.33s.87,0,0,.1c12.46-2.07,14-2.77,31.15-5,5.92-.78,20.2-2.4,23.38-.38,2.83,1.76,2.66,3.17,2.42,7.6C823.84,87,811.9,86.9,801.36,89s-19,6.68-24.43,14.27-7.43,19.32-6,31.59A41.7,41.7,0,0,0,779,155.55c2,2.58,7.22,6,12.36,6H920.93a4.44,4.44,0,0,0,4.44-4.42V132.39a2.73,2.73,0,0,1,5-1.52c6.28,8,14.76,19.29,20.28,25.57,0,0,4.09,5.16,9.69,5.16H998l-41-53.11ZM836,132.6a4.13,4.13,0,0,1-3.58,4.24l-.53.05h-.08l-10.25,1a11.75,11.75,0,0,1-2.16.2,11.54,11.54,0,1,1,0-23.07L836,113.41ZM728.34,4.15c-22.71-2.91-45.28,4.49-65.65,14a7.27,7.27,0,0,0-1.15.78,4.45,4.45,0,0,0-1.64,3.43v96.75L659,119c-9.25-.3-12-3.18-12.86-7-.27-1.21-.18-6.76-.18-8.67V60.82c0-16.51-2.55-28.34-11.64-36.87C625.64,15.78,609.76,14,593.24,15c-5.05.29-10,.72-14.9,1.24-10.15,1.08-13.15,1.63-18.06,2.36a11.55,11.55,0,0,0-9.58,8.62,11,11,0,0,0-.28,4l1.19,24.89v.56s.88,0,0,.11c12.46-2.08,14-2.78,31.15-5,5.92-.78,20.2-2.4,23.38-.38,2.84,1.76,2.67,3.17,2.42,7.61-12.16,1.37-24.1,1.32-34.65,3.45s-19,6.69-24.42,14.26-7.42,19.33-6,31.6a41.8,41.8,0,0,0,7.87,20.38l-.15-.05c.07.1.13.21.21.3.19.25.4.48.59.7l-33.92,0V8.09a4.34,4.34,0,0,0-4.47-4.18H485.08s-4.57,0-4.57,4.51V52.7c0,11.57,0,23.24,0,34.68v26.21h-.16L479,113.5c-9.25-.3-12-3.18-12.86-7-.27-1.22-.18-6.76-.18-8.68V55.29c0-16.5-2.54-28.34-11.64-36.87-8.67-8.16-24.54-9.93-41.07-8.91-5.06.29-10,.72-14.9,1.24h0c-10.16,1.08-13.16,1.62-18.06,2.36a11.55,11.55,0,0,0-9.59,8.62,11.12,11.12,0,0,0-.28,4l1.19,24.89v.18H336.33a11.91,11.91,0,0,0-10,5c-7.92,11.14-21.95,31.58-22,31.59a2.73,2.73,0,0,1-2.27,1.21,2.76,2.76,0,0,1-2.77-2.73V8.41A4.42,4.42,0,0,0,294.9,4H266.09a4.45,4.45,0,0,0-4.37,4.42V156.85s0,4.74,4.42,4.74h28.7a4.44,4.44,0,0,0,4.44-4.42V132.39a2.73,2.73,0,0,1,5-1.52c6.29,8,14.76,19.29,20.28,25.57,0,0,4.09,5.16,9.69,5.16h37.65l-41-53.11,40.76-57.32c.15,0,.74,0,0,.1,12.46-2.07,14-2.77,31.15-5,5.92-.78,20.2-2.4,23.37-.38,2.84,1.76,2.66,3.17,2.42,7.6-12.16,1.38-24.1,1.32-34.64,3.46s-19,6.68-24.43,14.26-7.43,19.33-6,31.6a41.67,41.67,0,0,0,8.07,20.65,27.27,27.27,0,0,0,8.63,6.89,52.55,52.55,0,0,0,23.41,6.36,45.44,45.44,0,0,0,7.16-.36,58.38,58.38,0,0,0,6.9-1.36,50.93,50.93,0,0,0,15.2-7.15l.63.53h0c10,8.3,28,14.51,45.47,8.59l1.54-.48v11.14h0v9.83a4.43,4.43,0,0,0,4.4,4.14h89a4.42,4.42,0,0,0,4.2-4c.06-1.35.13-2.83.19-4.39V141.71c1.75.23,3.51.4,5.25.48a46.66,46.66,0,0,0,7.16-.35,56.9,56.9,0,0,0,6.89-1.36,51,51,0,0,0,15.21-7.15l.63.53c10,8.3,28,14.51,45.47,8.58l.91-.28v14.7a4.45,4.45,0,0,0,4.36,4.42H693a4.44,4.44,0,0,0,4.43-4.42V124.34c11,1.2,22.55,1,31.83-1.15,20.29-4.73,32-19.93,34.84-41.92a131.6,131.6,0,0,0-.25-36C760.55,22.64,751.41,7.1,728.34,4.15Zm-299.8,96.31A4.15,4.15,0,0,1,425,104.7l-.54,0-.14,0h.06l-10.25,1a12,12,0,0,1-2.16.2,11.54,11.54,0,1,1,0-23.07l16.61-1.58Zm180,5.54a4.15,4.15,0,0,1-3.58,4.25l-.53,0-.15,0h.07l-10.25,1a11.53,11.53,0,0,1-13.7-11.33A11.55,11.55,0,0,1,592,88.4l16.59-1.58ZM720.75,85.11c-4.67,2.9-12.09,2.53-19.52,2.52h-4l0-43.72a87.81,87.81,0,0,1,13.31-2.16c14.84-.94,16.7,9,17.31,20.77C728.38,72.25,727.23,81.14,720.75,85.11Z" style="fill:#d71149"/></svg>