<svg xmlns="http://www.w3.org/2000/svg" viewBox="0 0 1000 220" id="svg-dana"><title>dana</title><path d="M340.9,101.54C339.18,79,331.34,60.39,318.77,43.6c-5.7-7.61-6.81-7.72-12.76-14-7.37-7.71-23-16.57-32.9-20.5a104.29,104.29,0,0,0-46.35-6.76C191,5.77,162.1,24.68,144.51,53.87a109.6,109.6,0,0,0-15.13,64.51c4.05,56.42,52.53,104.2,114.6,99.27C299.66,213.24,345.61,163.15,340.9,101.54ZM297.14,85.1V141c-.48,3.19-2.51,1.22-4.18.25-35.93-20.73-71.72,21.17-107.85,8.81-13.66-4.67-11.93-7.39-11.93-16.11,0-8.07-.81-51.54.55-55.46C177,78.29,182,84.44,194.09,86c32.63,4.29,67.45-34,99.6-11.62C297.68,77.2,297.14,79.09,297.14,85.1Z" style="fill:#108de8"/><path d="M867.87,89.5a46.17,46.17,0,0,0-44.09-33.72c-22.55-.09-38.91,15.67-44.14,33.24-3.1,10.39-2.06,25.29-2.06,36.74,0,13-.14,26.15,0,39.18h23.09l0-23.38h45.82l.14,23.38h23.08c0-13,0-25.89,0-38.77C869.76,114.56,870.74,100,867.87,89.5ZM846.65,118l-45.94,0c-.13-9.79-1.17-20.08,3.38-27.55a22.53,22.53,0,0,1,19.7-11.18,22.85,22.85,0,0,1,19.55,11.29C847.84,98.28,846.76,108,846.65,118Z" style="fill:#108de8"/><path d="M603.67,89.53a46.17,46.17,0,0,0-44.09-33.72c-22.55-.09-38.91,15.67-44.14,33.24-3.1,10.39-2.06,25.29-2.06,36.74,0,13-.14,26.15,0,39.18h23.09l0-23.38h45.82l.14,23.38h23.08c0-13,0-25.89,0-38.77C605.57,114.6,606.55,100.07,603.67,89.53Zm-21.22,28.54-45.94,0c-.13-9.79-1.17-20.08,3.38-27.55a22.53,22.53,0,0,1,19.7-11.18,22.85,22.85,0,0,1,19.55,11.29C583.65,98.31,582.57,108.05,582.46,118.08Z" style="fill:#108de8"/><path d="M458.62,72.62C451.09,64.15,434,56,422.22,56.1l-40.6,0V164.6l40.38.14c14.19,0,30.49-9.92,36.28-16.18C478.36,126.83,478.84,95.38,458.62,72.62Zm-35.56,68.63c-3.38.32-18.64,0-18.64,0h0l0-61.76s16-.28,19,.07a29.45,29.45,0,0,1,13.83,5.36C460.6,100.8,450.8,138.72,423.07,141.25Z" style="fill:#108de8"/><path d="M737.29,98.8l.18,65.84-22.59,0h0l22.59,0-.18-65.84c.56-5.16-2.55-13.13-4.54-17.18C716,47.62,668,47.17,650.82,81c-2,4-5.25,12.16-4.77,17.44h0c-1.28.56-.7,29.44-.7,33,0,5.25-.63,30.49.27,33.5l23,.09L669,100c0-10.71,11.18-20.68,22.48-20.71a22.51,22.51,0,0,1,15.68,6.15c2.88,2.62,7.28,8.58,7.19,14.63h0c.24,8.87-.48,61.75.35,64.92l23,.1c.59-2.54.23-43.78.23-50C737.9,112.1,738.7,100.38,737.29,98.8Zm-68.81,59.13c0,3.14,0,5.5-.13,6.71h0c.08-1.21.12-3.57.13-6.71,0-8.79-.17-23.63-.19-36.1q0-1.34,0-2.63,0,1.29,0,2.63C668.31,134.3,668.51,149.15,668.48,157.93Zm0-54.29c0,.46,0,1-.06,1.5,0,.8-.05,1.69-.07,2.64,0,1.59-.06,3.36-.07,5.28q0,1.15,0,2.37t0,2.49q0-1.27,0-2.49t0-2.37c0-1.92,0-3.7.07-5.28,0-1,0-1.83.07-2.64,0-.54,0-1,.06-1.5s0-.89.08-1.27C668.57,102.76,668.54,103.18,668.52,103.64Z" style="fill:#108de8"/></svg>