<svg id="svg-ebay" xmlns="http://www.w3.org/2000/svg" viewBox="0 0 1000 400"><title>ebay</title><path d="M133.64,88.4C63.93,88.4,5.84,118,5.84,207.2c0,70.68,39.06,115.2,129.6,115.2,106.57,0,113.4-70.2,113.4-70.2H197.2S186.13,290,132.29,290c-43.85,0-75.39-29.62-75.39-71.14H254.24V192.8c0-41.08-26.08-104.4-120.6-104.4Zm-1.8,33.3c41.74,0,70.2,25.57,70.2,63.9H58C58,144.91,95.18,121.7,131.84,121.7Z" style="fill:#e53238"/><path d="M254.2,2V277.59c0,15.64-1.12,37.61-1.12,37.61h49.25s1.77-15.78,1.77-30.19c0,0,24.33,38.07,90.5,38.07,69.67,0,117-48.37,117-117.67,0-64.47-43.47-116.32-116.88-116.32-68.75,0-90.11,37.12-90.11,37.12V2ZM382,123.16c47.31,0,77.4,35.11,77.4,82.24,0,50.53-34.75,83.59-77.06,83.59-50.5,0-77.74-39.43-77.74-83.14C304.6,165.12,329,123.16,382,123.16Z" style="fill:#0064d2"/><path d="M634,88.4c-104.87,0-111.6,57.42-111.6,66.6h52.2s2.74-33.52,55.8-33.52c34.48,0,61.2,15.78,61.2,46.12v10.8h-61.2c-81.25,0-124.2,23.77-124.2,72,0,47.47,39.69,73.29,93.32,73.29,73.09,0,96.64-40.39,96.64-40.39,0,16.06,1.24,31.89,1.24,31.89h46.4S742,295.57,742,283V174.51c0-71.14-57.39-86.12-108-86.12Zm57.6,122.4v14.4c0,18.78-11.59,65.47-79.82,65.47-37.36,0-53.38-18.65-53.38-40.27,0-39.35,53.94-39.6,133.2-39.6Z" style="fill:#f5af02"/><path d="M713.88,97.41H772.6l84.28,168.84L941,97.41h53.2L841,398H785.2l44.2-83.79Z" style="fill:#86b817"/></svg>