<svg id="svg-etsy" xmlns="http://www.w3.org/2000/svg" viewBox="0 0 1000 475"><title>etsy</title><path d="M108.81,171.91V38.4c0-4.95.49-7.91,8.9-7.91H231c19.78,0,30.66,16.82,38.57,48.46L276,104.17h19.28c3.46-71.7,6.42-102.85,6.42-102.85S253.2,6.76,224.52,6.76H79.65L2,4.28V25.05L28.21,30C46.51,33.46,51,37.41,52.45,54.23c0,0,1.49,49.45,1.49,131s-1.49,130.54-1.49,130.54c0,14.83-5.94,20.27-24.23,23.74L2,344.5v20.76l77.65-2.47H209.2c29.17,0,96.92,2.47,96.92,2.47C307.6,347.46,317.49,266.85,319,258h-18.3L281.4,302c-15.33,34.61-37.58,37.08-62.31,37.08H145.4c-24.73,0-36.59-9.89-36.59-31.15V195.16s53.9,0,72.68,1.49c13.85,1,22.25,4.95,26.71,24.23l5.94,25.71h21.25l-1.48-64.79,3-65.27H215.62l-6.92,28.68c-4.46,18.79-7.42,22.26-26.71,24.23-21.75,2.48-73.19,2-73.19,2v.49h0ZM402,52.25c-6.92,30.66-13.85,54.39-38.08,70.22-14.83,9.89-29.67,13.34-35.6,13.84V155.1h44V306.9c0,42.53,28.19,63.3,65.77,63.3,29.18,0,59.34-12.36,69.72-38.08l-10.39-13.35c-4.95,8.41-20.76,20.77-40.54,20.77-21.75,0-33.62-14.84-33.62-52.41v-134l73.19,5.44,4-33.63-77.14,3V52.74L402,52.25Zm156.26,233.5-18.79.49c1,10.88,1.49,24.73,1.49,37.58,0,13.35-.49,25.71-1.49,31.64,0,0,37.58,13.83,75.66,13.83,51.43,0,92.47-24.72,92.47-73.18,0-83.06-124.61-70.7-124.61-126.59,0-23.24,20.77-32.14,43.51-32.14,17.8,0,32.63,6.43,35.6,15.83l12.36,37.09,18.3-1c1.49-19.78,2.47-42.53,5.44-60.82-15.83-6.92-49-10.89-69.71-10.89-48.47,0-87.53,21.27-87.53,68.74,0,82.58,121.64,65.76,121.64,126.59,0,21.75-13.36,37.08-43.51,37.08-27.68,0-41.54-14.34-47-28.68l-13.87-35.59Zm298,57.13c-28.63,80-63.67,100.68-95.26,100.68-13.33,0-19.74-5.93-21.73-15.29L732,389.76l-20.73,1c-3.95,22.71-7.9,47.89-13.32,68.62,12.34,9.37,33.06,14.31,49.36,14.31,34.07,0,85.89-4.45,133.26-117L960,169.13c6.42-15.31,8.88-16.79,27.64-24.19L998,141V123.72l-46.89,2.47-50.34-2.47V141l12.83,3.94c12.83,4,18.76,8.89,18.76,17.78,0,4.44-1.49,8.88-4,15.79-7.4,18.77-53.31,130.31-65.63,154l12.32-4.45c-21.72-53.8-54.78-143.64-59.72-158.93a24.58,24.58,0,0,1-1.48-7.91c0-7.89,5.43-14.31,17.28-16.78L847.45,141V123.73l-67.63,2.47L726,123.73V141l8.89,3c12.34,3.95,15.3,7.41,22.71,24.68,41,93.79,60.22,145.11,86.37,212.25l12.36-38Z" style="fill:#f1641e"/></svg>