<svg id="svg-googlereviews" xmlns="http://www.w3.org/2000/svg" viewBox="0 0 1000 300"><title>googlereviews</title><path d="M70.89,89.36h60.58q.35,2.26.69,4.77a39,39,0,0,1,.35,5.29,72.48,72.48,0,0,1-3.47,22,48.42,48.42,0,0,1-11.8,19.44,59.72,59.72,0,0,1-20,13.71,66.64,66.64,0,0,1-26.21,4.86,66.13,66.13,0,0,1-25.25-4.86,63.12,63.12,0,0,1-34.71-34.11A64.88,64.88,0,0,1,6,94.57a64.89,64.89,0,0,1,5.12-25.95A63.11,63.11,0,0,1,45.81,34.51a66.11,66.11,0,0,1,25.25-4.86,67.63,67.63,0,0,1,26.3,5,55.8,55.8,0,0,1,20.22,14.06L103.86,62.46A41.73,41.73,0,0,0,89.54,52,45.69,45.69,0,0,0,70.89,48.4,45.49,45.49,0,0,0,39.47,61a43.58,43.58,0,0,0-9.89,14.49,48,48,0,0,0-3.65,19.09,48,48,0,0,0,3.65,19.09,43.57,43.57,0,0,0,9.89,14.49,44.92,44.92,0,0,0,14.41,9.29,45.39,45.39,0,0,0,17.18,3.3q12,0,19.35-3.65a48.84,48.84,0,0,0,12.41-8.5,31.85,31.85,0,0,0,6.42-9.11,39.23,39.23,0,0,0,3.65-12.41h-42Z" style="fill:#4285f4"/><path d="M180.24,74.17a43.78,43.78,0,0,1,16.94,3.21,39.4,39.4,0,0,1,13.32,9A41.09,41.09,0,0,1,219.21,100a48.37,48.37,0,0,1,0,34.21,41.06,41.06,0,0,1-8.72,13.65,39.35,39.35,0,0,1-13.32,9,46.34,46.34,0,0,1-33.88,0,39.29,39.29,0,0,1-13.32-9,41,41,0,0,1-8.72-13.65,48.37,48.37,0,0,1,0-34.21A41,41,0,0,1,150,86.34a39.34,39.34,0,0,1,13.32-9A43.76,43.76,0,0,1,180.24,74.17Zm0,68.91a22.58,22.58,0,0,0,8.88-1.81,24.58,24.58,0,0,0,7.65-5.1,23.64,23.64,0,0,0,5.34-8.14,31.29,31.29,0,0,0,0-21.87A23.69,23.69,0,0,0,196.76,98a24.66,24.66,0,0,0-7.65-5.1,22.7,22.7,0,0,0-17.76,0,24.6,24.6,0,0,0-7.65,5.1,23.66,23.66,0,0,0-5.34,8.14,31.29,31.29,0,0,0,0,21.87,23.6,23.6,0,0,0,5.34,8.14,24.52,24.52,0,0,0,7.65,5.1A22.56,22.56,0,0,0,180.24,143.08Z" style="fill:#db4437"/><path d="M270.36,74.17a43.78,43.78,0,0,1,16.94,3.21,39.39,39.39,0,0,1,13.32,9A41.09,41.09,0,0,1,309.34,100a48.37,48.37,0,0,1,0,34.21,41.06,41.06,0,0,1-8.72,13.65,39.34,39.34,0,0,1-13.32,9,46.34,46.34,0,0,1-33.88,0,39.29,39.29,0,0,1-13.32-9,41,41,0,0,1-8.72-13.65,48.37,48.37,0,0,1,0-34.21,41,41,0,0,1,8.72-13.65,39.34,39.34,0,0,1,13.32-9A43.76,43.76,0,0,1,270.36,74.17Zm0,68.91a22.58,22.58,0,0,0,8.88-1.81,24.58,24.58,0,0,0,7.65-5.1,23.63,23.63,0,0,0,5.34-8.14,31.28,31.28,0,0,0,0-21.87A23.69,23.69,0,0,0,286.89,98a24.65,24.65,0,0,0-7.65-5.1,22.7,22.7,0,0,0-17.76,0,24.6,24.6,0,0,0-7.65,5.1,23.66,23.66,0,0,0-5.34,8.14,31.29,31.29,0,0,0,0,21.87,23.6,23.6,0,0,0,5.34,8.14,24.52,24.52,0,0,0,7.65,5.1A22.56,22.56,0,0,0,270.36,143.08Z" style="fill:#f4b400"/><path d="M359.5,195.54a45.93,45.93,0,0,1-14.88-2.22,42.4,42.4,0,0,1-11.26-5.67,33.68,33.68,0,0,1-7.81-7.73,36.34,36.34,0,0,1-4.52-8.22l17.43-7.07a21.59,21.59,0,0,0,7.89,10.44,21.9,21.9,0,0,0,13.16,4q11.35,0,17.68-6.62t6.33-18.54v-6.58h-1a29.73,29.73,0,0,1-10.44,9A32.1,32.1,0,0,1,356.54,160a34.1,34.1,0,0,1-14.31-3.15,39.07,39.07,0,0,1-12.25-8.8,41.58,41.58,0,0,1-8.47-13.61A47.33,47.33,0,0,1,318.39,117a46.69,46.69,0,0,1,3.12-17.35A41.83,41.83,0,0,1,330,86.13a39.16,39.16,0,0,1,12.25-8.8,34.1,34.1,0,0,1,14.31-3.16,32.08,32.08,0,0,1,15.54,3.62,29.75,29.75,0,0,1,10.44,9h1v-10h17.6v76a48.86,48.86,0,0,1-3.21,18.34,38.86,38.86,0,0,1-8.72,13.4A36.23,36.23,0,0,1,376,192.74,47.81,47.81,0,0,1,359.5,195.54Zm.66-52.46a23.74,23.74,0,0,0,8.72-1.67,20.74,20.74,0,0,0,7.48-5,25.61,25.61,0,0,0,5.18-8.19,32.52,32.52,0,0,0,0-22.31,24.5,24.5,0,0,0-5.18-8.19,22.29,22.29,0,0,0-7.48-5,22.66,22.66,0,0,0-25,5.1,24.88,24.88,0,0,0-5.26,8.19,31.81,31.81,0,0,0,0,22.06,24.9,24.9,0,0,0,5.26,8.19,22.63,22.63,0,0,0,16.28,6.85Z" style="fill:#4285f4"/><path d="M409.06,157.39V34h18.25V157.39Z" style="fill:#0f9d58"/><path d="M514.24,139.4s-1.07,1.72-1.65,2.57q-6.36,9.3-19,14.39a42.71,42.71,0,0,1-16.68,3.25,39.5,39.5,0,0,1-15.63-3.37,41.13,41.13,0,0,1-13.15-9.33,48.22,48.22,0,0,1-12.73-31.22A42,42,0,0,1,438,99.93,39.53,39.53,0,0,1,460.77,77a42.2,42.2,0,0,1,16.65-3.33,35.39,35.39,0,0,1,14.77,3.45,38.15,38.15,0,0,1,12.28,9.6,52.78,52.78,0,0,1,9,15l.55,1.37a7.51,7.51,0,0,0,.4,1.43,5.33,5.33,0,0,0,.34,1.28L457.2,129a25.52,25.52,0,0,0,6.34,8.26,23.52,23.52,0,0,0,7.9,4.44,22.18,22.18,0,0,0,8.48,1,26.32,26.32,0,0,0,8-1.79q7.32-2.95,10.64-8.36c.45-.73,1.24-2.23,1.24-2.23ZM492.88,99.56A23.11,23.11,0,0,0,489.37,95a16.88,16.88,0,0,0-5.6-3.78A21.91,21.91,0,0,0,476,89.67a23.83,23.83,0,0,0-9.75,2,20.62,20.62,0,0,0-10.84,9.41,23,23,0,0,0-2.4,14.53Z" style="fill:#db4437"/><path d="M559,73.64h30.24a29.61,29.61,0,0,1,14,3.36A25.3,25.3,0,0,1,617,99.92a23.37,23.37,0,0,1-5.58,15.36,26.93,26.93,0,0,1-14,9l-.12.6,23.52,34v.72h-15.6L582.5,126H572.42v33.61H559Zm29.88,39.85a14.57,14.57,0,0,0,10.2-3.84,12.74,12.74,0,0,0,4.2-9.84,13.51,13.51,0,0,0-1.68-6.48,13.41,13.41,0,0,0-12.24-7.08H572.42v27.24Z" style="fill:#757575"/><path d="M639.46,157.29a29.59,29.59,0,0,1-11.16-11.58,34.16,34.16,0,0,1-4-16.62,34.72,34.72,0,0,1,3.9-16.26A30.68,30.68,0,0,1,639,100.88a28.82,28.82,0,0,1,15.84-4.44,30.5,30.5,0,0,1,16,4.08,26.74,26.74,0,0,1,10.32,11.16,35.22,35.22,0,0,1,3.54,16,30.7,30.7,0,0,1-.36,4.2H637.47q.72,8.52,6.06,13.14A18.4,18.4,0,0,0,656,149.61a18.1,18.1,0,0,0,9.78-2.58,19.37,19.37,0,0,0,6.66-7l11.16,5.28a32.9,32.9,0,0,1-11.28,11.88,33.74,33.74,0,0,1-32.83.12Zm31.86-35.53a15.28,15.28,0,0,0-2-6.42,14.6,14.6,0,0,0-5.46-5.34,17.31,17.31,0,0,0-8.94-2.16,15.87,15.87,0,0,0-10.74,3.78,19.59,19.59,0,0,0-6.06,10.14Z" style="fill:#757575"/><path d="M687.28,98.36H702L719,142.53h.48l17.28-44.17h14.4l-25.44,61.21h-13.2Z" style="fill:#757575"/><path d="M759.47,86.9a9,9,0,1,1,6.3,2.58A8.57,8.57,0,0,1,759.47,86.9Zm-.3,11.46h13.2v61.21h-13.2Z" style="fill:#757575"/><path d="M798.6,157.29a29.59,29.59,0,0,1-11.16-11.58,34.16,34.16,0,0,1-4-16.62,34.72,34.72,0,0,1,3.9-16.26,30.68,30.68,0,0,1,10.86-11.94A28.82,28.82,0,0,1,814,96.44a30.5,30.5,0,0,1,16,4.08,26.74,26.74,0,0,1,10.32,11.16,35.22,35.22,0,0,1,3.54,16,30.7,30.7,0,0,1-.36,4.2H796.62q.72,8.52,6.06,13.14a18.4,18.4,0,0,0,12.42,4.62,18.1,18.1,0,0,0,9.78-2.58,19.37,19.37,0,0,0,6.66-7l11.16,5.28a32.9,32.9,0,0,1-11.28,11.88,33.74,33.74,0,0,1-32.83.12Zm31.86-35.53a15.28,15.28,0,0,0-2-6.42A14.6,14.6,0,0,0,823,110a17.31,17.31,0,0,0-8.94-2.16,15.87,15.87,0,0,0-10.74,3.78,19.59,19.59,0,0,0-6.06,10.14Z" style="fill:#757575"/><path d="M846.43,98.36h14.28l12.36,43.81h.48l13.8-43.81h13.56l13.68,43.81h.48l12.36-43.81h14l-19.56,61.21H908l-14-43.93h-.36l-13.92,43.93H866Z" style="fill:#757575"/><path d="M953.6,156.87a25,25,0,0,1-9.48-11.82l11.76-5.16a16.49,16.49,0,0,0,6.06,7.32,16.12,16.12,0,0,0,8.94,2.52,17.85,17.85,0,0,0,8.28-1.74,5.58,5.58,0,0,0,3.36-5.22,6,6,0,0,0-2.88-5.28,28.66,28.66,0,0,0-8.88-3.36l-7.32-1.8A26.31,26.31,0,0,1,951.32,126a15.21,15.21,0,0,1-4.8-11.52A15,15,0,0,1,949.7,105a20.49,20.49,0,0,1,8.58-6.3A30.63,30.63,0,0,1,970,96.44a31.67,31.67,0,0,1,15,3.42,20.25,20.25,0,0,1,9.36,9.9l-11.52,5q-3.48-7.08-12.72-7.08a14.23,14.23,0,0,0-7.44,1.8,5.34,5.34,0,0,0-3,4.68,5.41,5.41,0,0,0,2.28,4.5,19.61,19.61,0,0,0,6.72,2.94l9,2.28q9,2.28,13.62,6.9A15.43,15.43,0,0,1,996,142.17a16.4,16.4,0,0,1-3.3,10.14,21.3,21.3,0,0,1-9.06,6.78,32.77,32.77,0,0,1-12.72,2.4Q960.32,161.49,953.6,156.87Z" style="fill:#757575"/><path d="M511.28,232.73l-11.28-28-11.28,28-28.86,2.58,21.92,20L475.19,285,500,269.24,524.81,285l-6.58-29.7,21.92-20Zm-103.93,0-11.28-28-11.28,28-28.86,2.58,21.92,20L371.26,285l24.81-15.76L420.88,285l-6.58-29.7,21.92-20Zm-103.93,0-11.28-28-11.28,28L252,235.31l21.92,20L267.33,285l24.81-15.76L316.95,285l-6.58-29.7,21.92-20Zm311.79,0-11.28-28-11.28,28-28.86,2.58,21.92,20L579.12,285l24.81-15.76L628.74,285l-6.58-29.7,21.92-20ZM748,235.31l-28.86-2.58-11.28-28-11.28,28-28.86,2.58,21.92,20L683.05,285l24.81-15.76L732.67,285l-6.58-29.7Z" style="fill:#f70"/></svg>