<svg id="svg-googlepay" xmlns="http://www.w3.org/2000/svg" viewBox="0 0 1000 400"><title>googlepay</title><path d="M324.67,170.16c0-11.2-1.24-22.4-2.49-33.6H166.6V200H255c-3.73,19.91-14.94,38.58-32.36,49.78v41.07h53.52C307.24,262.26,324.67,219.95,324.67,170.16Z" style="fill:#4285f4"/><path d="M166.6,330.72c44.81,0,82.14-14.94,109.53-39.83l-53.52-41.07c-14.94,10-33.6,16.18-56,16.18-42.32,0-79.66-28.63-92.1-68.45H19.74v42.32C48.36,295.87,104.37,330.72,166.6,330.72Z" style="fill:#34a853"/><path d="M74.5,197.54c-7.47-19.91-7.47-42.32,0-63.48V91.75H19.74c-23.65,46.05-23.65,100.81,0,148.11Z" style="fill:#fbbc04"/><path d="M166.6,66.86a92.64,92.64,0,0,1,63.48,24.89h0l47.3-47.3C247.5,17.08,207.67.9,167.84,2.14,105.61,2.14,48.36,37,21,93l54.76,42.32C86.94,95.49,124.28,66.86,166.6,66.86Z" style="fill:#ea4335"/><path d="M596,49.44a92.64,92.64,0,0,0-63.48-24.89H435.44V310.8h37.34V195.06l59.74,1.24c24.89,0,46.05-8.71,63.48-24.89s26.14-37.34,26.14-61S613.42,64.37,596,49.44ZM571.1,144C562.39,154,548.7,159,535,159H472.77V59.39H535c13.69-1.24,26.14,5,36.09,14.94l1.24,1.24A47.73,47.73,0,0,1,571.1,144Zm201.63-12.45c-16.18-14.94-37.34-22.4-64.72-22.4-34.85,0-61,12.45-80.9,38.58l32.36,19.91q16.8-26.14,48.54-26.14a54.22,54.22,0,0,1,36.09,13.69c10,7.47,14.94,19.91,14.94,32.36v8.71c-13.69-8.71-31.12-12.45-53.52-12.45-24.89,0-46.05,5-61,17.42s-22.4,28.63-22.4,48.54c0,18.67,8.71,36.09,22.4,48.54C659.47,310.8,678.13,317,699.29,317c24.89,0,46.05-11.2,61-33.6h1.24V310.8h34.85V191.32C796.37,166.43,788.91,146.52,772.73,131.58ZM742.85,267.24a58.57,58.57,0,0,1-41.07,17.42c-10,0-19.91-3.73-28.63-10a28.32,28.32,0,0,1-12.45-23.65q0-16.8,14.94-26.14,14.94-11.2,37.34-11.2c21.16,0,37.34,5,48.54,13.69C761.52,242.35,755.3,256,742.85,267.24Zm159.31-10h-1.24l-58.5-140.64H802.6l80.9,183-46.05,98.32h37.34L997.46,116.64h-38Zm95.29-140.64H998V115.4Z" style="fill:#5f6368"/></svg>