<svg id="svg-googlemaps" xmlns="http://www.w3.org/2000/svg" viewBox="0 0 1000 260"><title>googlemaps</title><rect x="12.31" y="38.9" width="213.17" height="213.17" rx="18.58" ry="18.58" style="fill:#34a668"/><path d="M120.31,143.54,17.49,246.35a18.51,18.51,0,0,0,13.41,5.71h176a18.51,18.51,0,0,0,14.71-7.23Z" style="fill:#5c88c5"/><path d="M192.18,9.07c-32.86,0-59.5,25.43-59.5,56.8A54.46,54.46,0,0,0,140.1,93.8h0c1.53,2.49,2.95,5,4.22,7.47q1.77,2.67,3.37,5.35,1.83,2.54,3.51,5.1c4.65,6.28,8.87,12.42,12.9,18.33,2.81,4.52,6,9.36,8.74,14.15,8.38,14.52,14.21,28.7,16.31,49.35v0a3.57,3.57,0,0,0,3.12,2.36,3.72,3.72,0,0,0,3.3-2.83c2.14-20.42,7.94-34.51,16.26-48.93,2.78-4.79,5.93-9.63,8.74-14.15,4-5.91,8.26-12.06,12.9-18.33q1.68-2.57,3.51-5.1,1.59-2.68,3.37-5.35c1.27-2.48,2.69-5,4.22-7.47h0c5.06-8.52,7.09-18.14,7.11-27.93,0-31.37-26.64-56.8-59.5-56.8Z" style="fill:#dd4b3e"/><ellipse cx="192.18" cy="65.87" rx="20.67" ry="19.73" style="fill:#802d27"/><path d="M62.93,59.77c-16.57,0-30,13.67-30,30.53s13.43,30.53,30,30.53c10.79,0,17-3.4,22.48-8.92s7.4-13.88,7.4-22.31a33.6,33.6,0,0,0-.23-3.83H63.29V96.55H80.5a15.39,15.39,0,0,1-3.75,7c-3.34,3.4-7.19,5.49-13.84,5.49a18.8,18.8,0,0,1,0-37.59,18.15,18.15,0,0,1,12.71,4.59l8.45-8.45h0c-5.63-5.41-12.84-7.86-21.12-7.86ZM78.64,79.84v0h0Z" style="fill:#fff"/><path d="M151.19,111.72,122.89,140l101,101a18.57,18.57,0,0,0,1.59-7.53V122.95c-1.66,2.39-3.31,4.78-4.9,7.11-2.81,4.52-6,9.36-8.74,14.15-8.33,14.42-14.12,28.51-16.26,48.93a3.72,3.72,0,0,1-3.3,2.83,3.57,3.57,0,0,1-3.12-2.36v0c-2.1-20.65-7.93-34.83-16.31-49.35-2.78-4.79-5.93-9.63-8.74-14.15-4-5.91-8.26-12.06-12.9-18.33h0Z" style="fill:#c3c3c3"/><path d="M143.38,99.54,12.31,230.61v2.88A18.54,18.54,0,0,0,30.9,252.07h3.6L161,125.56c-3.11-4.52-6.31-9.12-9.8-13.83q-1.68-2.57-3.51-5.1-1.59-2.68-3.37-5.35c-.3-.58-.63-1.16-.94-1.73Z" style="fill:#fddc4f"/><path d="M139.89,144.19,118.07,166l86.06,86.06h2.77a18.54,18.54,0,0,0,18.58-18.58v-3.71Z" style="fill:#fff"/><path d="M487.61,134.13a33.23,33.23,0,0,1,12.86,2.43,29.9,29.9,0,0,1,10.11,6.8,31.18,31.18,0,0,1,6.62,10.36,36.71,36.71,0,0,1,0,26,31.17,31.17,0,0,1-6.62,10.36,29.86,29.86,0,0,1-10.11,6.8,35.17,35.17,0,0,1-25.71,0,29.82,29.82,0,0,1-10.11-6.8A31.08,31.08,0,0,1,458,179.69a36.71,36.71,0,0,1,0-26,31.1,31.1,0,0,1,6.62-10.36,29.86,29.86,0,0,1,10.11-6.8A33.21,33.21,0,0,1,487.61,134.13Zm0,52.3a17.14,17.14,0,0,0,6.74-1.37,18.65,18.65,0,0,0,5.8-3.87,17.94,17.94,0,0,0,4.06-6.18,23.74,23.74,0,0,0,0-16.6,18,18,0,0,0-4.06-6.18,18.71,18.71,0,0,0-5.8-3.87,17.23,17.23,0,0,0-13.48,0,18.67,18.67,0,0,0-5.8,3.87,18,18,0,0,0-4.06,6.18,23.75,23.75,0,0,0,0,16.6,17.91,17.91,0,0,0,4.06,6.18,18.61,18.61,0,0,0,5.8,3.87A17.12,17.12,0,0,0,487.61,186.43Z" style="fill:#f4b400"/><path d="M382.19,145.66h-46V159.1h31.88a29.77,29.77,0,0,1-2.77,9.42,24.17,24.17,0,0,1-4.87,6.92,37.07,37.07,0,0,1-9.42,6.45q-5.6,2.77-14.69,2.77a34.45,34.45,0,0,1-13-2.5,34.09,34.09,0,0,1-10.93-7,33.07,33.07,0,0,1-7.51-11,39.33,39.33,0,0,1,0-29,33.08,33.08,0,0,1,7.51-11,34.53,34.53,0,0,1,23.84-9.55,34.68,34.68,0,0,1,14.16,2.77,31.67,31.67,0,0,1,10.87,7.9l10.41-10.41a42.35,42.35,0,0,0-15.35-10.67,51.33,51.33,0,0,0-20-3.82A50.18,50.18,0,0,0,317.18,104a47.9,47.9,0,0,0-26.35,25.89,51.84,51.84,0,0,0,0,39.39,47.91,47.91,0,0,0,26.35,25.89,53.54,53.54,0,0,0,39.06,0,45.32,45.32,0,0,0,15.15-10.41,36.75,36.75,0,0,0,9-14.75A55,55,0,0,0,383,153.3a29.57,29.57,0,0,0-.26-4Q382.45,147.38,382.19,145.66Zm191.31-9.53v7.61h-.75a22.58,22.58,0,0,0-7.93-6.87,24.35,24.35,0,0,0-11.8-2.75,25.88,25.88,0,0,0-10.86,2.39,29.73,29.73,0,0,0-9.3,6.68,31.75,31.75,0,0,0-6.43,10.27,35.44,35.44,0,0,0-2.37,13.17,35.92,35.92,0,0,0,2.37,13.23,31.56,31.56,0,0,0,6.43,10.33,29.65,29.65,0,0,0,9.3,6.68A25.88,25.88,0,0,0,553,199.29a24.36,24.36,0,0,0,11.8-2.75,22.57,22.57,0,0,0,7.93-6.87h.75v5q0,9-4.81,14.07t-13.42,5a16.62,16.62,0,0,1-10-3.06,16.39,16.39,0,0,1-6-7.93l-13.23,5.37a27.58,27.58,0,0,0,3.43,6.24,25.56,25.56,0,0,0,5.93,5.87,32.18,32.18,0,0,0,8.55,4.31,34.86,34.86,0,0,0,11.3,1.69,36.29,36.29,0,0,0,12.54-2.12,27.5,27.5,0,0,0,10-6.24,29.49,29.49,0,0,0,6.62-10.17,37.09,37.09,0,0,0,2.43-13.92V136.13Zm-1.5,39a19.44,19.44,0,0,1-3.93,6.21,15.74,15.74,0,0,1-5.68,3.81,18,18,0,0,1-6.62,1.27,17.18,17.18,0,0,1-12.36-5.2,18.9,18.9,0,0,1-4-6.21,24.15,24.15,0,0,1,0-16.74,18.88,18.88,0,0,1,4-6.21,17.22,17.22,0,0,1,19-3.87,16.92,16.92,0,0,1,5.68,3.8,18.6,18.6,0,0,1,3.93,6.21,24.68,24.68,0,0,1,0,16.93Z" style="fill:#4285f4"/><path d="M592.88,197.29V103.62h13.86v93.67Z" style="fill:#0f9d58"/><path d="M442.17,143.37a29.9,29.9,0,0,0-10.11-6.8,35.17,35.17,0,0,0-25.71,0,29.86,29.86,0,0,0-10.11,6.8,31.1,31.1,0,0,0-6.62,10.36,36.71,36.71,0,0,0,0,26,31.09,31.09,0,0,0,6.62,10.36,29.82,29.82,0,0,0,10.11,6.8,35.17,35.17,0,0,0,25.71,0,29.86,29.86,0,0,0,10.11-6.8,31.17,31.17,0,0,0,6.62-10.36,36.71,36.71,0,0,0,0-26A31.18,31.18,0,0,0,442.17,143.37ZM435.81,175a17.94,17.94,0,0,1-4.06,6.18,18.66,18.66,0,0,1-5.8,3.87,17.24,17.24,0,0,1-13.48,0,18.61,18.61,0,0,1-5.8-3.87,17.91,17.91,0,0,1-4.06-6.18,23.75,23.75,0,0,1,0-16.6,18,18,0,0,1,4.06-6.18,18.67,18.67,0,0,1,5.8-3.87,17.23,17.23,0,0,1,13.48,0,18.71,18.71,0,0,1,5.8,3.87,18,18,0,0,1,4.06,6.18,23.75,23.75,0,0,1,0,16.6Zm225,3.44a16.11,16.11,0,0,1-8.08,6.34,20,20,0,0,1-6,1.36,16.84,16.84,0,0,1-6.43-.78,17.85,17.85,0,0,1-6-3.37,19.37,19.37,0,0,1-4.81-6.27l43.66-17.56a4,4,0,0,1-.26-1,5.69,5.69,0,0,1-.3-1.09l-.42-1a40.06,40.06,0,0,0-6.8-11.39,29,29,0,0,0-9.32-7.28,26.86,26.86,0,0,0-11.21-2.62,32,32,0,0,0-12.64,2.53,30,30,0,0,0-17.29,17.38,31.91,31.91,0,0,0-2,12,36.6,36.6,0,0,0,9.67,23.69,31.21,31.21,0,0,0,10,7.08A30,30,0,0,0,644.36,199,32.42,32.42,0,0,0,657,196.52q9.61-3.87,14.44-10.92c.44-.64,1.25-2,1.25-2l-11-6.88S661.13,177.9,660.79,178.45Zm-32.7-23.91a15.65,15.65,0,0,1,8.23-7.14,18.09,18.09,0,0,1,7.4-1.5,16.63,16.63,0,0,1,5.87,1.21,12.81,12.81,0,0,1,4.25,2.87,17.54,17.54,0,0,1,2.66,3.44l-30.23,12.16A17.49,17.49,0,0,1,628.1,154.54Z" style="fill:#db4437"/><path d="M704.85,114.87h17.79l24.11,63.54h.7l24.11-63.54h17.79v83.79h-13V151.73l.7-15.1h-.7l-24,62H741.82l-24-62h-.7l.7,15.1v46.92h-13Z" style="fill:#757575"/><path d="M810.86,198a18.77,18.77,0,0,1-7.84-7.14,19.76,19.76,0,0,1-2.81-10.47,17.5,17.5,0,0,1,7-14.63q7-5.38,17.61-5.38a41.44,41.44,0,0,1,9.48,1,34.51,34.51,0,0,1,6.67,2.16v-3a11.16,11.16,0,0,0-4.1-9,15.79,15.79,0,0,0-10.53-3.45,19.21,19.21,0,0,0-8.6,2,16.88,16.88,0,0,0-6.49,5.5l-9-6.9a26.86,26.86,0,0,1,10.3-8.54,32,32,0,0,1,14-3q13,0,20,6.38t7,18v37.21H840.94v-7.14h-.59A20.19,20.19,0,0,1,833.1,198a22,22,0,0,1-10.77,2.57A25.31,25.31,0,0,1,810.86,198ZM833,187.66a15.89,15.89,0,0,0,5.85-6,16.19,16.19,0,0,0,2.11-8.07,26.28,26.28,0,0,0-6.26-2.46,29.24,29.24,0,0,0-7.43-.94q-7.26,0-10.65,2.87a9.27,9.27,0,0,0-3.39,7.43,8.37,8.37,0,0,0,3.16,6.73,12.37,12.37,0,0,0,8.19,2.63A16.19,16.19,0,0,0,833,187.66Z" style="fill:#757575"/><path d="M866.1,139h12.29v7.84H879a20.54,20.54,0,0,1,7.61-6.9,22.89,22.89,0,0,1,11.35-2.81,27,27,0,0,1,14.63,4.1,29,29,0,0,1,10.36,11.29,36.94,36.94,0,0,1,0,32.65,29,29,0,0,1-10.36,11.29,27.05,27.05,0,0,1-14.63,4.1,22.89,22.89,0,0,1-11.35-2.81,21,21,0,0,1-7.61-6.79h-.59l.59,8.31v24.69H866.1Zm38.73,47.28a17.84,17.84,0,0,0,6.55-7,21.63,21.63,0,0,0,2.46-10.42,21.29,21.29,0,0,0-2.46-10.36,17.94,17.94,0,0,0-6.55-7,16.77,16.77,0,0,0-8.78-2.46,16.47,16.47,0,0,0-8.72,2.46,18.09,18.09,0,0,0-6.49,7,21.29,21.29,0,0,0-2.46,10.36,21.63,21.63,0,0,0,2.46,10.42,18,18,0,0,0,6.49,7,16.48,16.48,0,0,0,8.72,2.46A16.78,16.78,0,0,0,904.83,186.25Z" style="fill:#757575"/><path d="M941.69,196a24.35,24.35,0,0,1-9.25-11.53l11.47-5a16.08,16.08,0,0,0,5.91,7.14,15.7,15.7,0,0,0,8.72,2.46,17.42,17.42,0,0,0,8.07-1.7,5.44,5.44,0,0,0,3.28-5.09,5.87,5.87,0,0,0-2.81-5.15,27.93,27.93,0,0,0-8.66-3.28l-7.14-1.76a25.67,25.67,0,0,1-11.82-6.2,14.83,14.83,0,0,1-4.68-11.23,14.61,14.61,0,0,1,3.1-9.25,20,20,0,0,1,8.37-6.14,29.88,29.88,0,0,1,11.47-2.16,30.89,30.89,0,0,1,14.63,3.33,19.75,19.75,0,0,1,9.13,9.65L970.24,155q-3.4-6.9-12.4-6.9a13.88,13.88,0,0,0-7.26,1.76,5.21,5.21,0,0,0-2.93,4.56,5.27,5.27,0,0,0,2.22,4.39,19.14,19.14,0,0,0,6.55,2.87l8.78,2.22q8.78,2.22,13.28,6.73A15,15,0,0,1,983,181.69a16,16,0,0,1-3.22,9.89,20.76,20.76,0,0,1-8.84,6.61,32,32,0,0,1-12.4,2.34Q948.24,200.53,941.69,196Z" style="fill:#757575"/></svg>