<svg id="svg-googlemybusiness" xmlns="http://www.w3.org/2000/svg" xmlns:xlink="http://www.w3.org/1999/xlink" viewBox="0 0 1000 180"><defs><linearGradient id="a" x1="14.29" y1="66.9" x2="189.1" y2="66.9" gradientTransform="matrix(1, 0, 0, -1, 0, 179)" gradientUnits="userSpaceOnUse"><stop offset="0.03" stop-color="#4079d8"/><stop offset="1" stop-color="#4989f5"/></linearGradient></defs><title>googlemybusiness</title><rect x="14.19" y="47.17" width="175" height="130.85" rx="6.93" ry="6.93" style="fill:#4989f5"/><path d="M180.24,46.19H23c-4.87,0-8.66,37.71-8.66,42.58L100.42,178h79.81a8.88,8.88,0,0,0,8.86-8.86V55A8.88,8.88,0,0,0,180.24,46.19Z" style="fill:url(#a)"/><path d="M54.15,69.08h50V3.46H61.64Zm135.1-53-.06-.22A15.81,15.81,0,0,0,173.75,3.46H146.66l7.48,65.63h50Z" style="fill:#3f51b5"/><path d="M146.66,3.46H104.15V69.08h50ZM19.11,15.9l-.06.22-14.9,53h50L61.64,3.46H34.55A15.81,15.81,0,0,0,19.11,15.9Z" style="fill:#7babf7"/><path d="M29.25,94.05a25,25,0,0,0,25-25h-50A25,25,0,0,0,29.25,94.05Zm75-25a25,25,0,0,0,50,0Z" style="fill:#709be0"/><path d="M79.22,94.05a25,25,0,0,0,25-25h-50A25,25,0,0,0,79.22,94.05Zm75-25a25,25,0,0,0,50,0Z" style="fill:#3c4ba6"/><path d="M179.16,136.76c-.09-1.19-.23-2.28-.44-3.66H151.46c0,3.81,0,8,0,11.79h15.79a13.73,13.73,0,0,1-5.78,8.81s0-.07,0-.07a16.54,16.54,0,0,1-6.39,2.49,18.77,18.77,0,0,1-6.92,0,17.27,17.27,0,0,1-6.45-2.8,18,18,0,0,1-6.34-8.1c-.1-.25-.19-.51-.28-.77v0l0,0a17.48,17.48,0,0,1,0-11.25,18.1,18.1,0,0,1,4.19-6.82,17,17,0,0,1,17.17-4.47,15.6,15.6,0,0,1,6.25,3.68l5.33-5.33c.94-.95,1.92-1.87,2.82-2.85h0a28.15,28.15,0,0,0-9.33-5.78,29.34,29.34,0,0,0-19.52-.17l-.66.23a29.17,29.17,0,0,0-15.76,14.12,28.69,28.69,0,0,0-2.52,7.29A29,29,0,0,0,144,166.76a31,31,0,0,0,14.83.16A25.5,25.5,0,0,0,178,148.66,33.65,33.65,0,0,0,179.16,136.76Z" style="fill:#fff"/><path d="M391,86.16A25.52,25.52,0,0,1,400.9,88a23,23,0,0,1,7.77,5.23,24,24,0,0,1,5.08,8,28.2,28.2,0,0,1,0,19.94,23.94,23.94,0,0,1-5.08,8,22.94,22.94,0,0,1-7.77,5.23,27,27,0,0,1-19.75,0,22.91,22.91,0,0,1-7.77-5.23,23.88,23.88,0,0,1-5.08-8,28.2,28.2,0,0,1,0-19.94,23.89,23.89,0,0,1,5.08-8A22.94,22.94,0,0,1,381.14,88,25.51,25.51,0,0,1,391,86.16Zm0,40.18a13.17,13.17,0,0,0,5.18-1.05,14.33,14.33,0,0,0,4.46-3,13.78,13.78,0,0,0,3.12-4.75,18.24,18.24,0,0,0,0-12.75,13.81,13.81,0,0,0-3.12-4.75,14.37,14.37,0,0,0-4.46-3,13.23,13.23,0,0,0-10.36,0,14.34,14.34,0,0,0-4.46,3,13.79,13.79,0,0,0-3.12,4.75,18.24,18.24,0,0,0,0,12.75,13.76,13.76,0,0,0,3.12,4.75,14.3,14.3,0,0,0,4.46,3A13.15,13.15,0,0,0,391,126.33Z" style="fill:#f4b400"/><path d="M310,95H274.72v10.32h24.49a22.87,22.87,0,0,1-2.13,7.23,18.57,18.57,0,0,1-3.74,5.31,28.48,28.48,0,0,1-7.24,5Q281.8,125,274.82,125a26.46,26.46,0,0,1-10-1.92,26.19,26.19,0,0,1-8.4-5.41,25.4,25.4,0,0,1-5.77-8.45,30.21,30.21,0,0,1,0-22.26,25.41,25.41,0,0,1,5.77-8.45,26.53,26.53,0,0,1,18.32-7.34,26.64,26.64,0,0,1,10.88,2.13,24.33,24.33,0,0,1,8.35,6.07l8-8a32.53,32.53,0,0,0-11.79-8.2,39.43,39.43,0,0,0-15.33-2.94A38.55,38.55,0,0,0,260.09,63a36.8,36.8,0,0,0-20.24,19.89,39.82,39.82,0,0,0,0,30.26,36.8,36.8,0,0,0,20.24,19.89,41.13,41.13,0,0,0,30,0,34.82,34.82,0,0,0,11.64-8,28.23,28.23,0,0,0,6.88-11.33,42.26,42.26,0,0,0,2-12.85,22.71,22.71,0,0,0-.2-3.09Q310.24,96.33,310,95Zm147-7.32v5.85h-.58a17.34,17.34,0,0,0-6.09-5.27,18.7,18.7,0,0,0-9.06-2.11A19.88,19.88,0,0,0,432.93,88a22.83,22.83,0,0,0-7.14,5.13,24.39,24.39,0,0,0-4.94,7.89A27.22,27.22,0,0,0,419,111.13a27.6,27.6,0,0,0,1.82,10.16,24.24,24.24,0,0,0,4.94,7.94,22.78,22.78,0,0,0,7.14,5.13,19.88,19.88,0,0,0,8.34,1.84,18.71,18.71,0,0,0,9.06-2.11,17.34,17.34,0,0,0,6.09-5.27H457v3.84q0,6.95-3.69,10.81T443,147.33a12.77,12.77,0,0,1-7.67-2.35,12.59,12.59,0,0,1-4.6-6.09L420.56,143a21.19,21.19,0,0,0,2.64,4.79,19.64,19.64,0,0,0,4.55,4.51,24.72,24.72,0,0,0,6.57,3.31,26.78,26.78,0,0,0,8.68,1.29,27.88,27.88,0,0,0,9.64-1.63,21.12,21.12,0,0,0,7.67-4.79,22.66,22.66,0,0,0,5.08-7.81A28.49,28.49,0,0,0,467.25,132V87.69Zm-1.15,30a14.93,14.93,0,0,1-3,4.77,12.09,12.09,0,0,1-4.36,2.92,13.84,13.84,0,0,1-5.08,1,13.19,13.19,0,0,1-9.49-4,14.52,14.52,0,0,1-3.07-4.77,18.55,18.55,0,0,1,0-12.86,14.5,14.5,0,0,1,3.07-4.77,13.23,13.23,0,0,1,14.58-3,13,13,0,0,1,4.36,2.92,14.28,14.28,0,0,1,3,4.77,19,19,0,0,1,0,13Z" style="fill:#4285f4"/><path d="M471.89,134.67v-72h10.64v72Z" style="fill:#0f9d58"/><path d="M356.12,93.25A23,23,0,0,0,348.35,88a27,27,0,0,0-19.75,0,22.94,22.94,0,0,0-7.77,5.23,23.89,23.89,0,0,0-5.08,8,28.2,28.2,0,0,0,0,19.94,23.88,23.88,0,0,0,5.08,8,22.91,22.91,0,0,0,7.77,5.23,27,27,0,0,0,19.75,0,22.94,22.94,0,0,0,7.77-5.23,23.94,23.94,0,0,0,5.08-8,28.2,28.2,0,0,0,0-19.94A24,24,0,0,0,356.12,93.25Zm-4.89,24.31a13.78,13.78,0,0,1-3.12,4.75,14.33,14.33,0,0,1-4.46,3,13.24,13.24,0,0,1-10.36,0,14.3,14.3,0,0,1-4.46-3,13.76,13.76,0,0,1-3.12-4.75,18.24,18.24,0,0,1,0-12.75,13.79,13.79,0,0,1,3.12-4.75,14.34,14.34,0,0,1,4.46-3,13.23,13.23,0,0,1,10.36,0,14.38,14.38,0,0,1,4.46,3,13.82,13.82,0,0,1,3.12,4.75,18.24,18.24,0,0,1,0,12.75Zm172.83,2.64a12.38,12.38,0,0,1-6.2,4.87,15.34,15.34,0,0,1-4.65,1,12.93,12.93,0,0,1-4.94-.6,13.71,13.71,0,0,1-4.61-2.59,14.88,14.88,0,0,1-3.69-4.82l33.54-13.49a3.11,3.11,0,0,1-.2-.75,4.38,4.38,0,0,1-.23-.84l-.32-.8a30.77,30.77,0,0,0-5.23-8.75,22.24,22.24,0,0,0-7.16-5.59,20.63,20.63,0,0,0-8.61-2A24.61,24.61,0,0,0,502,87.82a23,23,0,0,0-13.28,13.35,24.51,24.51,0,0,0-1.52,9.19,28.12,28.12,0,0,0,7.43,18.2,24,24,0,0,0,7.67,5.44,23,23,0,0,0,9.11,2,24.9,24.9,0,0,0,9.73-1.9,23.66,23.66,0,0,0,11.09-8.39c.34-.5,1-1.5,1-1.5l-8.44-5.28S524.31,119.78,524.05,120.2Zm-25.12-18.37a12,12,0,0,1,6.32-5.49,13.9,13.9,0,0,1,5.69-1.15,12.77,12.77,0,0,1,4.51.93,9.84,9.84,0,0,1,3.26,2.2,13.48,13.48,0,0,1,2,2.64l-23.22,9.34A13.43,13.43,0,0,1,498.94,101.83Z" style="fill:#db4437"/><path d="M556.38,75.75h12.36l16.76,44.17H586l16.76-44.17H615.1V134h-9V101.37l.49-10.49h-.49L589.4,134h-7.32L565.41,90.88h-.49l.49,10.49V134h-9Z" style="fill:#757575"/><path d="M637.12,131.71,619.88,92.5h10l11.71,28.22h.33L653.3,92.5h9.84l-25.62,59h-9.44Z" style="fill:#757575"/><path d="M686,75.75h21.88a18.46,18.46,0,0,1,8.58,2,16.41,16.41,0,0,1,6.3,5.61,14,14,0,0,1,2.36,7.89A13,13,0,0,1,723,98.77a13.69,13.69,0,0,1-5.65,4.8v.49a15,15,0,0,1,7.12,5.12,13.45,13.45,0,0,1,2.72,8.38,15.1,15.1,0,0,1-2.48,8.54,16.76,16.76,0,0,1-6.67,5.82,20.34,20.34,0,0,1-9.15,2.07H686Zm21.47,24.4a8.45,8.45,0,0,0,6.3-2.44,7.81,7.81,0,0,0,.08-11.18,8.05,8.05,0,0,0-6.06-2.4H695.14v16Zm1.38,25.38a8.73,8.73,0,0,0,6.63-2.6,8.47,8.47,0,0,0,2.48-6,8.29,8.29,0,0,0-2.56-6.06,9.29,9.29,0,0,0-6.87-2.56H695.14v17.24Z" style="fill:#757575"/><path d="M735.53,130.77q-3.95-4.51-3.94-12.57V92.5h8.95V117q0,5,2.4,7.56a8.3,8.3,0,0,0,6.3,2.52,9.7,9.7,0,0,0,5.61-1.67,10.85,10.85,0,0,0,3.74-4.43,13.78,13.78,0,0,0,1.3-5.94V92.5h8.95V134h-8.46v-5.37h-.49a12.72,12.72,0,0,1-5.29,4.8,16.11,16.11,0,0,1-7.56,1.87Q739.48,135.29,735.53,130.77Z" style="fill:#757575"/><path d="M779.53,132.15a16.92,16.92,0,0,1-6.43-8l8-3.5a11.18,11.18,0,0,0,4.11,5,10.91,10.91,0,0,0,6.06,1.71,12.11,12.11,0,0,0,5.61-1.18,3.78,3.78,0,0,0,2.28-3.54,4.08,4.08,0,0,0-2-3.58,19.42,19.42,0,0,0-6-2.28l-5-1.22a17.83,17.83,0,0,1-8.21-4.31,10.31,10.31,0,0,1-3.25-7.81A10.16,10.16,0,0,1,776.89,97a13.88,13.88,0,0,1,5.82-4.27,20.77,20.77,0,0,1,8-1.5,21.47,21.47,0,0,1,10.17,2.32,13.73,13.73,0,0,1,6.34,6.71l-7.81,3.42q-2.36-4.8-8.62-4.8a9.64,9.64,0,0,0-5,1.22,3.62,3.62,0,0,0-2,3.17,3.67,3.67,0,0,0,1.54,3.05,13.3,13.3,0,0,0,4.56,2l6.1,1.54q6.1,1.55,9.23,4.68a10.46,10.46,0,0,1,3.13,7.69,11.12,11.12,0,0,1-2.24,6.87,14.43,14.43,0,0,1-6.14,4.6,22.22,22.22,0,0,1-8.62,1.63Q784.08,135.29,779.53,132.15Z" style="fill:#757575"/><path d="M812.68,84.74A6.09,6.09,0,1,1,817,86.49,5.8,5.8,0,0,1,812.68,84.74Zm-.2,7.77h8.95V134h-8.95Z" style="fill:#757575"/><path d="M826.84,92.5h8.54V98h.41a13.64,13.64,0,0,1,5.33-4.84,15.6,15.6,0,0,1,7.52-1.91q7.56,0,11.51,4.43t3.95,12.08V134h-8.95V108.93q0-4.88-2.4-7.16a9.24,9.24,0,0,0-6.63-2.28,9.07,9.07,0,0,0-5.37,1.67,11.09,11.09,0,0,0-3.66,4.43,13.76,13.76,0,0,0-1.3,5.94V134h-8.95Z" style="fill:#757575"/><path d="M879.45,132.44a20.06,20.06,0,0,1-7.56-7.85,23.15,23.15,0,0,1-2.73-11.26,23.54,23.54,0,0,1,2.64-11,20.79,20.79,0,0,1,7.36-8.09,19.53,19.53,0,0,1,10.74-3A20.67,20.67,0,0,1,900.76,94a18.12,18.12,0,0,1,7,7.56,23.87,23.87,0,0,1,2.4,10.82,20.75,20.75,0,0,1-.24,2.85h-31.8q.49,5.78,4.11,8.91a12.47,12.47,0,0,0,8.42,3.13,12.27,12.27,0,0,0,6.63-1.75,13.13,13.13,0,0,0,4.51-4.76l7.56,3.58a22.29,22.29,0,0,1-7.65,8.05,22.86,22.86,0,0,1-22.25.08ZM901,108.36a10.34,10.34,0,0,0-1.38-4.35,9.9,9.9,0,0,0-3.7-3.62,11.73,11.73,0,0,0-6.06-1.46,10.75,10.75,0,0,0-7.28,2.56,13.28,13.28,0,0,0-4.11,6.87Z" style="fill:#757575"/><path d="M920.38,132.15a16.92,16.92,0,0,1-6.43-8l8-3.5a11.18,11.18,0,0,0,4.11,5,10.91,10.91,0,0,0,6.06,1.71,12.11,12.11,0,0,0,5.61-1.18A3.78,3.78,0,0,0,940,122.6a4.08,4.08,0,0,0-2-3.58,19.42,19.42,0,0,0-6-2.28l-5-1.22a17.83,17.83,0,0,1-8.21-4.31,10.31,10.31,0,0,1-3.25-7.81A10.16,10.16,0,0,1,917.74,97a13.88,13.88,0,0,1,5.82-4.27,20.77,20.77,0,0,1,8-1.5,21.47,21.47,0,0,1,10.17,2.32,13.73,13.73,0,0,1,6.34,6.71l-7.81,3.42q-2.36-4.8-8.62-4.8a9.64,9.64,0,0,0-5,1.22,3.62,3.62,0,0,0-2,3.17,3.67,3.67,0,0,0,1.54,3.05,13.3,13.3,0,0,0,4.56,2l6.1,1.54q6.1,1.55,9.23,4.68a10.46,10.46,0,0,1,3.13,7.69,11.12,11.12,0,0,1-2.24,6.87,14.43,14.43,0,0,1-6.14,4.6,22.22,22.22,0,0,1-8.62,1.63Q924.93,135.29,920.38,132.15Z" style="fill:#757575"/><path d="M959.5,132.15a16.92,16.92,0,0,1-6.43-8l8-3.5a11.18,11.18,0,0,0,4.11,5,10.91,10.91,0,0,0,6.06,1.71,12.11,12.11,0,0,0,5.61-1.18,3.78,3.78,0,0,0,2.28-3.54,4.08,4.08,0,0,0-2-3.58,19.42,19.42,0,0,0-6-2.28l-5-1.22a17.83,17.83,0,0,1-8.21-4.31,10.31,10.31,0,0,1-3.25-7.81A10.16,10.16,0,0,1,956.86,97a13.88,13.88,0,0,1,5.82-4.27,20.77,20.77,0,0,1,8-1.5,21.47,21.47,0,0,1,10.17,2.32,13.73,13.73,0,0,1,6.34,6.71l-7.81,3.42q-2.36-4.8-8.62-4.8a9.64,9.64,0,0,0-5,1.22,3.62,3.62,0,0,0-2,3.17,3.67,3.67,0,0,0,1.54,3.05,13.3,13.3,0,0,0,4.56,2l6.1,1.54q6.1,1.55,9.23,4.68a10.46,10.46,0,0,1,3.13,7.69,11.12,11.12,0,0,1-2.24,6.87,14.43,14.43,0,0,1-6.14,4.6,22.22,22.22,0,0,1-8.62,1.63Q964.06,135.29,959.5,132.15Z" style="fill:#757575"/></svg>