<svg id="svg-googleadsense" xmlns="http://www.w3.org/2000/svg" viewBox="0 0 1000 150"><title>googleadsense</title><path d="M986.13,86.65A14.08,14.08,0,0,0,982,78.06Q978.18,74,970.66,74a14.17,14.17,0,0,0-9.5,3.44,17.51,17.51,0,0,0-5.53,9.23h30.49ZM972,121q-11.92,0-19.37-7.94T945.12,93a29,29,0,0,1,7.24-19.76A23.52,23.52,0,0,1,970.88,65q11.7,0,18.74,7.62t7,20.4l-.11,1.82H955q.43,8,5.31,12.57A16.11,16.11,0,0,0,971.74,112q10.63,0,14.39-9l8.8,3.65a23.57,23.57,0,0,1-8.49,10.26A24.67,24.67,0,0,1,972,121Zm-52.65,0q-8.8,0-14.54-4.29A25.38,25.38,0,0,1,896.34,106l8.8-3.65q4.19,9.88,14.28,9.88a13,13,0,0,0,7.57-2,6.27,6.27,0,0,0,3-5.37q0-5.15-7.19-7l-10.63-2.58a25.26,25.26,0,0,1-9.56-4.88,11.8,11.8,0,0,1-4.51-9.72q0-7,6.18-11.32A24.77,24.77,0,0,1,918.89,65a24.49,24.49,0,0,1,12.45,3.16,17.85,17.85,0,0,1,7.84,9.07l-8.59,3.54q-2.9-7-12-7a14.06,14.06,0,0,0-7.41,1.83,5.56,5.56,0,0,0-3,4.94q0,4.51,7,6.12l10.41,2.47q7.42,1.72,11,5.91a14.22,14.22,0,0,1,3.54,9.45,14.64,14.64,0,0,1-5.8,11.81q-5.8,4.72-14.92,4.72M852,66.68V74h.43a17.49,17.49,0,0,1,6.76-6.39A19.62,19.62,0,0,1,869.07,65q9.77,0,14.92,6t5.15,16.1v32.21h-9.88V88.58q0-14.6-13-14.6a12.18,12.18,0,0,0-10,4.89,17.73,17.73,0,0,0-3.87,11.32v29.1h-9.87V66.68Zm-28.24,20a14.05,14.05,0,0,0-4.14-8.59Q815.81,74,808.3,74a14.18,14.18,0,0,0-9.5,3.44,17.54,17.54,0,0,0-5.53,9.23h30.49ZM809.59,121q-11.92,0-19.38-7.94T782.75,93A29,29,0,0,1,790,73.23,23.52,23.52,0,0,1,808.51,65q11.7,0,18.74,7.62t7,20.4l-.11,1.82H792.62q.43,8,5.32,12.57A16.09,16.09,0,0,0,809.37,112q10.64,0,14.39-9l8.8,3.65a23.56,23.56,0,0,1-8.48,10.26A24.69,24.69,0,0,1,809.59,121Zm-59.46,0a28.71,28.71,0,0,1-16.37-5.48,25.38,25.38,0,0,1-10.47-15.35l9-3.65a20.55,20.55,0,0,0,6.6,10.68,16.62,16.62,0,0,0,11.21,4.35,18,18,0,0,0,11-3.38A10.81,10.81,0,0,0,765.7,99q0-6.44-4.57-9.93t-14.44-6.49q-10.2-3.22-15.47-8.32a17.39,17.39,0,0,1-5.26-13,19.08,19.08,0,0,1,6.55-14.39q6.54-6.12,17.07-6.12,9.77,0,15.89,4.89t7.95,10.68l-9,3.76a13.3,13.3,0,0,0-4.78-6.76,15,15,0,0,0-9.82-3.11,15.24,15.24,0,0,0-9.72,3.16,9.68,9.68,0,0,0-4,7.89,9,9,0,0,0,3.71,7.25,35.37,35.37,0,0,0,10.9,5.32,93.19,93.19,0,0,1,9.5,3.54,44.41,44.41,0,0,1,7.73,4.56A18.22,18.22,0,0,1,773.81,89a22.94,22.94,0,0,1,2,9.82,21.16,21.16,0,0,1-2.31,10,18.76,18.76,0,0,1-6.12,7A30.75,30.75,0,0,1,750.13,121m-61.21-9a15.72,15.72,0,0,0,11.86-5.15q4.88-5.15,4.89-13.85t-4.89-13.85a16.1,16.1,0,0,0-23.67.05q-5,5.21-4.95,13.8t4.95,13.79a15.69,15.69,0,0,0,11.81,5.2m-1.62,9q-10.2,0-17.6-8.06T662.3,93q0-11.92,7.41-20t17.6-8a22.3,22.3,0,0,1,10.79,2.58A18.28,18.28,0,0,1,705.24,74h.43l-.43-7.3V42.42h9.87v76.87h-9.44V112h-.43a18.25,18.25,0,0,1-7.14,6.45A22.43,22.43,0,0,1,687.31,121M612.37,89.23h25.56L625.36,54.55h-.43L612.37,89.23Zm-21.8,30.06,29-76.87h11.18l29,76.87h-11l-7.41-20.82H609l-7.52,20.82h-11Z" style="fill:#757575"/><path d="M97.48,41.12A23.37,23.37,0,0,0,88.77,9,24,24,0,0,0,56.24,17.6q-.43.76-.82,1.54l-22.22,38q-.74,1.13-1.36,2.33L8.77,99.3,50,122.42,73,82.93a22.72,22.72,0,0,0,1.36-2.33l22.22-38c.32-.48.64-1,.94-1.47" style="fill:#fbbc04"/><path d="M50.19,122.29c-6.54,11.43-21.28,15.64-32.6,9A23.71,23.71,0,0,1,8.79,99c6.54-11.43,21.15-15.65,32.48-9.06a23.76,23.76,0,0,1,8.93,32.35" style="fill:#34a853"/><path d="M139.17,48.64A23.57,23.57,0,0,0,107,57.23L83.47,97.91A23.45,23.45,0,0,0,92,130l.06,0a23.57,23.57,0,0,0,32.16-8.59l23.54-40.67a23.46,23.46,0,0,0-8.56-32l-.05,0" style="fill:#4285f4"/><path d="M391.84,62.56a30,30,0,0,1,11.62,2.2,27,27,0,0,1,9.14,6.15,28.19,28.19,0,0,1,6,9.36,33.18,33.18,0,0,1,0,23.47,28.17,28.17,0,0,1-6,9.36,27,27,0,0,1-9.14,6.15,31.79,31.79,0,0,1-23.24,0,27,27,0,0,1-9.14-6.15,28.1,28.1,0,0,1-6-9.36,33.18,33.18,0,0,1,0-23.47,28.11,28.11,0,0,1,6-9.36,27,27,0,0,1,9.14-6.15A30,30,0,0,1,391.84,62.56Zm0,47.27a15.49,15.49,0,0,0,6.09-1.24,16.86,16.86,0,0,0,5.25-3.5,16.21,16.21,0,0,0,3.67-5.58,21.46,21.46,0,0,0,0-15,16.25,16.25,0,0,0-3.67-5.58,16.91,16.91,0,0,0-5.25-3.5,15.57,15.57,0,0,0-12.18,0,16.87,16.87,0,0,0-5.25,3.5,16.23,16.23,0,0,0-3.67,5.58,21.47,21.47,0,0,0,0,15,16.19,16.19,0,0,0,3.67,5.58,16.82,16.82,0,0,0,5.25,3.5A15.47,15.47,0,0,0,391.84,109.83Z" style="fill:#f4b400"/><path d="M296.55,73H255V85.13h28.82a26.91,26.91,0,0,1-2.5,8.51,21.85,21.85,0,0,1-4.41,6.25,33.51,33.51,0,0,1-8.51,5.83q-5.06,2.5-13.28,2.5A31.13,31.13,0,0,1,243.33,106a30.81,30.81,0,0,1-9.88-6.37,29.89,29.89,0,0,1-6.79-9.94,32.93,32.93,0,0,1-2.5-13.1,32.94,32.94,0,0,1,2.5-13.1,29.9,29.9,0,0,1,6.79-9.94A31.21,31.21,0,0,1,255,44.88a31.35,31.35,0,0,1,12.8,2.5,28.63,28.63,0,0,1,9.82,7.14L287,45.12a38.28,38.28,0,0,0-13.87-9.64,46.39,46.39,0,0,0-18-3.45,45.35,45.35,0,0,0-17.32,3.33A43.3,43.3,0,0,0,214,58.75a44.51,44.51,0,0,0-3.51,17.8A44.51,44.51,0,0,0,214,94.35a43.3,43.3,0,0,0,23.81,23.4,48.4,48.4,0,0,0,35.3,0,41,41,0,0,0,13.69-9.41A33.22,33.22,0,0,0,294.88,95a49.72,49.72,0,0,0,2.38-15.12,26.73,26.73,0,0,0-.24-3.63Q296.79,74.53,296.55,73Zm172.91-8.62v6.88h-.68A20.41,20.41,0,0,0,461.62,65,22,22,0,0,0,451,62.56a23.39,23.39,0,0,0-9.82,2.16,26.87,26.87,0,0,0-8.41,6A28.7,28.7,0,0,0,426.93,80,32,32,0,0,0,424.78,92a32.47,32.47,0,0,0,2.14,12,28.52,28.52,0,0,0,5.81,9.34,26.8,26.8,0,0,0,8.41,6,23.39,23.39,0,0,0,9.82,2.16A22,22,0,0,0,461.62,119a20.4,20.4,0,0,0,7.16-6.21h.68v4.51q0,8.18-4.34,12.72T453,134.54a15,15,0,0,1-9-2.76,14.81,14.81,0,0,1-5.42-7.16l-12,4.85a24.93,24.93,0,0,0,3.1,5.64,23.1,23.1,0,0,0,5.36,5.3,29.09,29.09,0,0,0,7.73,3.89A31.51,31.51,0,0,0,453,145.82a32.8,32.8,0,0,0,11.34-1.92,24.85,24.85,0,0,0,9-5.64,26.66,26.66,0,0,0,6-9.19,33.52,33.52,0,0,0,2.2-12.58V64.37Zm-1.35,35.26a17.57,17.57,0,0,1-3.55,5.62,14.23,14.23,0,0,1-5.13,3.44,16.29,16.29,0,0,1-6,1.15,15.52,15.52,0,0,1-11.17-4.7,17.08,17.08,0,0,1-3.61-5.62,21.82,21.82,0,0,1,0-15.13,17.07,17.07,0,0,1,3.61-5.62,15.56,15.56,0,0,1,17.15-3.5,15.29,15.29,0,0,1,5.13,3.44,16.81,16.81,0,0,1,3.55,5.62,22.31,22.31,0,0,1,0,15.3Z" style="fill:#4285f4"/><path d="M487,119.65V35h12.52v84.66Z" style="fill:#0f9d58"/><path d="M350.77,70.91a27,27,0,0,0-9.14-6.15,31.79,31.79,0,0,0-23.24,0,27,27,0,0,0-9.14,6.15,28.11,28.11,0,0,0-6,9.36,33.18,33.18,0,0,0,0,23.47,28.09,28.09,0,0,0,6,9.36,27,27,0,0,0,9.14,6.15,31.79,31.79,0,0,0,23.24,0,27,27,0,0,0,9.14-6.15,28.17,28.17,0,0,0,6-9.36,33.18,33.18,0,0,0,0-23.47A28.19,28.19,0,0,0,350.77,70.91ZM345,99.51a16.21,16.21,0,0,1-3.67,5.58,16.86,16.86,0,0,1-5.25,3.5,15.58,15.58,0,0,1-12.18,0,16.82,16.82,0,0,1-5.25-3.5A16.19,16.19,0,0,1,315,99.51a21.47,21.47,0,0,1,0-15,16.23,16.23,0,0,1,3.67-5.58,16.87,16.87,0,0,1,5.25-3.5,15.57,15.57,0,0,1,12.18,0,16.91,16.91,0,0,1,5.25,3.5A16.25,16.25,0,0,1,345,84.5a21.47,21.47,0,0,1,0,15Zm203.35,3.11a14.56,14.56,0,0,1-7.3,5.73,18.05,18.05,0,0,1-5.47,1.23,15.22,15.22,0,0,1-5.81-.7,16.14,16.14,0,0,1-5.42-3,17.51,17.51,0,0,1-4.35-5.67l39.46-15.87a3.66,3.66,0,0,1-.23-.88,5.15,5.15,0,0,1-.27-1l-.38-.94a36.21,36.21,0,0,0-6.15-10.3A26.17,26.17,0,0,0,544,64.6a24.28,24.28,0,0,0-10.13-2.37,29,29,0,0,0-11.42,2.29,27.12,27.12,0,0,0-15.63,15.71A28.84,28.84,0,0,0,505,91a33.08,33.08,0,0,0,8.74,21.42,28.21,28.21,0,0,0,9,6.4,27.09,27.09,0,0,0,10.72,2.31A29.3,29.3,0,0,0,545,118.95q8.69-3.49,13.05-9.87c.4-.58,1.13-1.77,1.13-1.77l-9.93-6.22S548.67,102.12,548.36,102.62ZM518.81,81a14.15,14.15,0,0,1,7.43-6.46,16.35,16.35,0,0,1,6.69-1.35,15,15,0,0,1,5.3,1.09,11.58,11.58,0,0,1,3.84,2.59,15.86,15.86,0,0,1,2.4,3.11L517.17,91A15.8,15.8,0,0,1,518.81,81Z" style="fill:#db4437"/></svg>