<svg id="svg-googleplay" xmlns="http://www.w3.org/2000/svg" viewBox="0 0 1000 210"><title>googleplay</title><path d="M145.18,136.43c24.22-13.3,42.59-23.44,44.17-24.22,5.06-2.69,10.29-9.82,0-15.36-3.32-1.74-21.22-11.56-44.17-24.22l-31.82,32.14Z" style="fill:#ffd900"/><path d="M113.36,104.76,12,206.89c2.38.32,5.06-.32,8.23-2.06,6.65-3.64,77.11-42.12,124.92-68.4Z" style="fill:#f43249"/><path d="M113.36,104.76l31.82-32S27.38,8.5,20.26,4.7a12.34,12.34,0,0,0-8.39-1.59Z" style="fill:#00ee76"/><path d="M113.36,104.76,11.87,3.11c-4.12,1-7.6,4.59-7.6,12V194.86C4.27,201.67,7,206.57,12,207Z" style="fill:#00d3ff"/><path d="M766.09,44.91H727.58V153.09h16.11v-41h22.4c17.86,0,35.36-13,35.36-33.61S783.94,44.91,766.09,44.91Zm.52,52.17H743.85V60h22.76a18.83,18.83,0,0,1,18.9,18.55c-.17,8.4-7,18.56-18.9,18.56ZM865.69,81.5c-11.55,0-23.63,5.08-28.53,16.63l14.18,6c3.15-6,8.75-7.88,14.71-7.88,8.4,0,16.8,5.08,17,14v1.05a34.58,34.58,0,0,0-16.8-4.21c-15.4,0-31,8.58-31,24.34,0,14.53,12.61,23.8,26.61,23.8,10.86,0,16.8-4.9,20.48-10.67h.52v8.4h15.58V111.43C898.25,92.35,884.07,81.5,865.69,81.5Zm-1.92,59.17c-5.25,0-12.61-2.63-12.61-9.1,0-8.4,9.1-11.55,17-11.55,7,0,10.33,1.58,14.71,3.67A19.38,19.38,0,0,1,863.77,140.67ZM954.62,84l-18.38,46.74h-.52L916.64,84H899.31L928,149.42,911.74,186h16.8L972.48,84H954.62ZM810.38,153.09h16.11V44.91H810.38Z" style="fill:#808285"/><path d="M476.6,82.17c-20.38,0-36.86,15.44-36.86,36.76s16.53,36.76,36.86,36.76,36.86-15.56,36.86-36.76S496.93,82.17,476.6,82.17Zm0,58.94c-11.09,0-20.77-9.14-20.77-22.29s9.57-22.29,20.77-22.29,20.77,9.06,20.77,22.29S487.68,141.11,476.6,141.11Z" style="fill:#f4b400"/><path d="M300.43,93.48V109h37.3c-1.13,8.69-4,15.11-8.48,19.57C323.82,134,315.34,140,300.44,140c-22.95,0-40.89-18.49-40.89-41.44s17.94-41.44,40.89-41.44a39.62,39.62,0,0,1,28.17,11.09l11-11a54.5,54.5,0,0,0-39.15-15.77c-31.54,0-58,25.67-58,57.09s26.42,57,58.07,57.09c17,0,29.8-5.55,39.81-16,10.34-10.19,13.48-24.68,13.48-36.43a51.93,51.93,0,0,0-.87-9.78Zm274.9-9.14v6h-.54c-3.59-4.35-10.55-8.26-19.36-8.26-18.37,0-35.23,16.1-35.23,36.86,0,20.56,16.86,36.64,35.22,36.64,8.81,0,15.77-3.92,19.36-8.38h.54v5.33c0,14-7.51,21.51-19.57,21.51-9.89,0-16-7.06-18.49-13.05l-14,5.91a35,35,0,0,0,32.63,21.75c18.92,0,34.9-11.09,34.9-38.28v-66Zm-18.49,56.77c-11.09,0-20.45-9.35-20.45-22.18s9.35-22.4,20.45-22.4,19.57,9.46,19.57,22.4S567.87,141.11,556.85,141.11Z" style="fill:#4285f4"/><rect x="601.87" y="45.41" width="16.1" height="107.98" style="fill:#0f9d58"/><path d="M396.13,82.17c-20.38,0-36.86,15.44-36.86,36.76s16.53,36.76,36.86,36.76S433,140.14,433,118.93,416.46,82.17,396.13,82.17Zm0,58.94c-11.09,0-20.77-9.14-20.77-22.29s9.57-22.29,20.77-22.29,20.77,9.06,20.77,22.29S407.21,141.11,396.13,141.11Zm266.05,0c-8.26,0-14-3.8-17.83-11.09l49.16-20.38-1.63-4.13c-3-8.26-12.45-23.38-31.43-23.38S625.76,97,625.76,118.89c0,20.55,15.56,36.76,36.43,36.76a36.79,36.79,0,0,0,30.67-16.31L680.41,131c-4.27,6.12-9.92,10.16-18.18,10.16ZM661,96.31c6.42,0,11.85,3.16,13.59,7.83l-32.83,13.59c-.4-14.14,11-21.43,19.29-21.43Z" style="fill:#db4437"/></svg>