<svg id="svg-googlepagespeed" xmlns="http://www.w3.org/2000/svg" viewBox="0 0 1000 220"><title>googlepagespeedinsights</title><path d="M251.93,37.34V199.43a16.76,16.76,0,0,1-16.74,16.77H22.78A16.76,16.76,0,0,1,6,199.45V37.34Z" style="fill:#eaeaea"/><path d="M22.78,3.8H235.16a16.76,16.76,0,0,1,16.77,16.74v16.8H6V20.57A16.76,16.76,0,0,1,22.76,3.8Z" style="fill:#ccc"/><path d="M128.88,87.64A89.29,89.29,0,0,0,39.6,176.95v.12c0,1.87-.11,4.19,0,5.59h39a49.45,49.45,0,0,1,0-5.59,50.34,50.34,0,0,1,76.71-42.79l28.08-28.08a89.07,89.07,0,0,0-54.51-18.55Z" style="fill:#4c8cf5"/><path d="M28.37,15A5.59,5.59,0,1,0,34,20.57,5.59,5.59,0,0,0,28.37,15Zm22.36,0a5.59,5.59,0,1,0,5.59,5.59A5.59,5.59,0,0,0,50.73,15Z" style="fill:#eee"/><path d="M183.59,106.22a2.76,2.76,0,0,1,0,3.32l-40.33,65.06a16.74,16.74,0,0,1-25.2,4l37.54,37.54h79.53A16.76,16.76,0,0,0,251.9,199.4V174.55Z" style="fill:#cecece"/><path d="M183.37,106.11l-28.12,28.1,9.38,7.43A50.27,50.27,0,0,1,179.2,177a49.45,49.45,0,0,1,0,5.59h39.13c.11-1.34,0-3.72,0-5.59A89.25,89.25,0,0,0,183.37,106.11Z" style="fill:#d34238"/><path d="M235.18,214.78H22.72A16.81,16.81,0,0,1,6,198v1.34a16.81,16.81,0,0,0,16.77,16.77H235.18A16.81,16.81,0,0,0,252,199.35V198A16.81,16.81,0,0,1,235.18,214.78Z" style="fill:#c4c4c4"/><path d="M183.46,109.81,143.3,174.59a16.74,16.74,0,0,1-31.05-7.93v.64A16.76,16.76,0,0,0,143.34,176l40.33-65.06a2.76,2.76,0,0,0,.53-1.63,13.37,13.37,0,0,0-.05-1.69,2.88,2.88,0,0,1-.52,1.92Z" style="fill:#878787;isolation:isolate"/><path d="M183.63,109.53a2.75,2.75,0,0,0,.53-1.63,2.81,2.81,0,0,0-2.8-2.8,2.74,2.74,0,0,0-1.73.62l-60.93,46.9a16.76,16.76,0,1,0,24.57,21.95Z" style="fill:#a2a2a2"/><path d="M118.72,154l60.93-46.91a2.75,2.75,0,0,1,3.87.41,2.83,2.83,0,0,1,.56,1,2.68,2.68,0,0,0,.08-.68,2.8,2.8,0,0,0-2.81-2.78,2.74,2.74,0,0,0-1.73.62l-60.91,46.89a16.69,16.69,0,0,0-6.53,13.27v.75A16.74,16.74,0,0,1,118.72,154Z" style="fill:#c6c6c6"/><path d="M6,37.34H251.93v1.34H6Z" style="fill:#bdbdbd"/><path d="M235.16,3.8H22.78A16.81,16.81,0,0,0,6,20.57v1.34A16.81,16.81,0,0,1,22.78,5.19H235.16A16.81,16.81,0,0,1,251.93,22V20.63A16.81,16.81,0,0,0,235.16,3.8Z" style="fill:#e2e2e2"/><path d="M308.75,138a19.89,19.89,0,0,0-9.45-2.3H279.2v58.71h9.08v-22.8h11a19.89,19.89,0,0,0,9.45-2.3,17.75,17.75,0,0,0,6.89-6.4,18.08,18.08,0,0,0,0-18.53A17.77,17.77,0,0,0,308.75,138ZM308,158a9.08,9.08,0,0,1-3.32,3.49,9.68,9.68,0,0,1-5.19,1.35H288.28V144.44h11.19a9.92,9.92,0,0,1,5.19,1.31,8.8,8.8,0,0,1,3.32,3.44,9.2,9.2,0,0,1,0,8.86Zm31.54-6.81a21.94,21.94,0,0,0-9.73,2.13,18.66,18.66,0,0,0-7.14,6l6.24,4.84a11.73,11.73,0,0,1,4.5-3.85,13.19,13.19,0,0,1,6-1.39,10.86,10.86,0,0,1,7.3,2.42,7.86,7.86,0,0,1,2.84,6.27v2.13a23.66,23.66,0,0,0-4.62-1.52,28.4,28.4,0,0,0-6.57-.7q-7.38,0-12.2,3.77a12.32,12.32,0,0,0-4.82,10.25,14,14,0,0,0,1.95,7.34,13.06,13.06,0,0,0,5.43,5,17.37,17.37,0,0,0,7.95,1.76,15.1,15.1,0,0,0,7.46-1.8,14.05,14.05,0,0,0,5-4.51h.41v5h8.76V168.3q0-8.12-4.87-12.59T339.53,151.24ZM348,182.49a11.12,11.12,0,0,1-9.89,5.74,8.51,8.51,0,0,1-5.68-1.84,5.89,5.89,0,0,1-2.19-4.71,6.53,6.53,0,0,1,2.35-5.21q2.35-2,7.38-2a20,20,0,0,1,5.15.66,18.12,18.12,0,0,1,4.34,1.72A11.45,11.45,0,0,1,348,182.49Zm49.55-24.85h-.49a14.25,14.25,0,0,0-5.43-4.67,16.83,16.83,0,0,0-7.7-1.72,18.07,18.07,0,0,0-9.65,2.75,19.65,19.65,0,0,0-7.1,7.71,25.79,25.79,0,0,0,0,22.71,19.35,19.35,0,0,0,7.1,7.67,18.27,18.27,0,0,0,9.65,2.71,17.1,17.1,0,0,0,7.74-1.68,14,14,0,0,0,5.39-4.63h.49v3.85q0,6.15-3.2,9.55t-8.88,3.4a11.42,11.42,0,0,1-10.95-7.3l-8.35,3.53a17.35,17.35,0,0,0,6.69,8.36q5,3.52,12.61,3.53a22.68,22.68,0,0,0,10.74-2.46,17.3,17.3,0,0,0,7.26-7.26,24.09,24.09,0,0,0,2.59-11.6V152.56h-8.51ZM396,180.31a11.39,11.39,0,0,1-4.38,4.67,11.75,11.75,0,0,1-6,1.6,11.9,11.9,0,0,1-6.08-1.6,11.43,11.43,0,0,1-4.38-4.63,17.23,17.23,0,0,1,0-14.6,11.44,11.44,0,0,1,4.38-4.63,11.9,11.9,0,0,1,6.08-1.6,11.42,11.42,0,0,1,8.55,3.57q3.45,3.57,3.45,10A15.35,15.35,0,0,1,396,180.31ZM444.66,154a20.43,20.43,0,0,0-10.83-2.79,19.32,19.32,0,0,0-10.7,3,20.87,20.87,0,0,0-7.34,8.16,23.94,23.94,0,0,0-2.64,11.11,23.54,23.54,0,0,0,2.72,11.36,20.1,20.1,0,0,0,7.54,7.91,22.58,22.58,0,0,0,22.18-.08,22.37,22.37,0,0,0,7.62-8.12L445.68,181a13.17,13.17,0,0,1-4.5,4.8,12.13,12.13,0,0,1-6.61,1.76,12.35,12.35,0,0,1-8.39-3.16q-3.61-3.16-4.09-9h31.71a21.15,21.15,0,0,0,.24-2.87,24.29,24.29,0,0,0-2.39-10.91A18.19,18.19,0,0,0,444.66,154Zm-22.18,14.51a13.41,13.41,0,0,1,4.1-6.93,10.64,10.64,0,0,1,7.26-2.58,11.59,11.59,0,0,1,6,1.48,9.93,9.93,0,0,1,3.69,3.65,10.52,10.52,0,0,1,1.38,4.39Zm59,1.48-6.08-1.56a13.18,13.18,0,0,1-4.54-2,3.71,3.71,0,0,1-1.54-3.08,3.65,3.65,0,0,1,2-3.2,9.53,9.53,0,0,1,5-1.23q6.24,0,8.6,4.84l7.78-3.44a13.78,13.78,0,0,0-6.33-6.76,21.2,21.2,0,0,0-10.14-2.34,20.5,20.5,0,0,0-7.95,1.52,13.85,13.85,0,0,0-5.8,4.3,10.31,10.31,0,0,0-2.15,6.48,10.45,10.45,0,0,0,3.24,7.87,17.72,17.72,0,0,0,8.19,4.35l4.95,1.23a19.21,19.21,0,0,1,6,2.3,4.13,4.13,0,0,1,1.95,3.61,3.82,3.82,0,0,1-2.27,3.57,12,12,0,0,1-5.6,1.19,10.79,10.79,0,0,1-6-1.72,11.23,11.23,0,0,1-4.1-5l-7.95,3.53a17,17,0,0,0,6.41,8.08q4.54,3.16,11.68,3.16a21.93,21.93,0,0,0,8.6-1.64,14.39,14.39,0,0,0,6.12-4.63,11.29,11.29,0,0,0,2.23-6.93,10.6,10.6,0,0,0-3.12-7.75Q487.6,171.58,481.52,170Zm50.76-15.91a18.59,18.59,0,0,0-10.14-2.87,15.72,15.72,0,0,0-7.87,2A14.28,14.28,0,0,0,509,158h-.41v-5.49h-8.51v59.53H509v-17.3L508.6,189H509a14.56,14.56,0,0,0,5.27,4.76,15.73,15.73,0,0,0,7.87,2,18.58,18.58,0,0,0,10.14-2.87,20.22,20.22,0,0,0,7.18-7.91,26.14,26.14,0,0,0,0-22.88A20.25,20.25,0,0,0,532.28,154.11Zm-.81,26.65a12.44,12.44,0,0,1-4.54,4.92,11.52,11.52,0,0,1-6.08,1.72,11.31,11.31,0,0,1-6-1.72,12.54,12.54,0,0,1-4.5-4.92,15.28,15.28,0,0,1-1.7-7.3,15,15,0,0,1,1.7-7.26,12.61,12.61,0,0,1,4.5-4.88,11.32,11.32,0,0,1,6-1.72,11.52,11.52,0,0,1,6.08,1.72,12.51,12.51,0,0,1,4.54,4.88,15.05,15.05,0,0,1,1.7,7.26A15.29,15.29,0,0,1,531.47,180.76ZM578.7,154a20.43,20.43,0,0,0-10.82-2.79,19.32,19.32,0,0,0-10.7,3,20.87,20.87,0,0,0-7.34,8.16,23.94,23.94,0,0,0-2.64,11.11,23.55,23.55,0,0,0,2.72,11.36,20.11,20.11,0,0,0,7.54,7.91,22.58,22.58,0,0,0,22.18-.08,22.37,22.37,0,0,0,7.62-8.12L579.72,181a13.17,13.17,0,0,1-4.5,4.8,12.12,12.12,0,0,1-6.61,1.76,12.35,12.35,0,0,1-8.39-3.16q-3.61-3.16-4.1-9h31.71a21.16,21.16,0,0,0,.24-2.87,24.29,24.29,0,0,0-2.39-10.91A18.19,18.19,0,0,0,578.7,154Zm-22.18,14.51a13.4,13.4,0,0,1,4.1-6.93,10.64,10.64,0,0,1,7.26-2.58,11.59,11.59,0,0,1,6,1.48,9.93,9.93,0,0,1,3.69,3.65,10.51,10.51,0,0,1,1.38,4.39ZM625.09,154a20.43,20.43,0,0,0-10.82-2.79,19.32,19.32,0,0,0-10.7,3,20.87,20.87,0,0,0-7.34,8.16,23.94,23.94,0,0,0-2.64,11.11,23.55,23.55,0,0,0,2.72,11.36,20.11,20.11,0,0,0,7.54,7.91,22.58,22.58,0,0,0,22.18-.08,22.37,22.37,0,0,0,7.62-8.12L626.1,181a13.17,13.17,0,0,1-4.5,4.8,12.12,12.12,0,0,1-6.61,1.76,12.35,12.35,0,0,1-8.39-3.16q-3.61-3.16-4.1-9h31.71a21.16,21.16,0,0,0,.24-2.87,24.29,24.29,0,0,0-2.39-10.91A18.19,18.19,0,0,0,625.09,154Zm-22.18,14.51a13.4,13.4,0,0,1,4.1-6.93,10.64,10.64,0,0,1,7.26-2.58,11.59,11.59,0,0,1,6,1.48,9.93,9.93,0,0,1,3.69,3.65,10.51,10.51,0,0,1,1.38,4.39Zm70.14-16.4.41,5.9h-.41a14.3,14.3,0,0,0-5.27-4.84,15.72,15.72,0,0,0-7.87-2,18.59,18.59,0,0,0-10.14,2.87A20.22,20.22,0,0,0,642.6,162a26.14,26.14,0,0,0,0,22.88,20.2,20.2,0,0,0,7.18,7.91,18.58,18.58,0,0,0,10.14,2.87,15.73,15.73,0,0,0,7.87-2,14.59,14.59,0,0,0,5.27-4.76h.41v5.41H682V135.66h-8.92Zm-1.3,28.62a12.54,12.54,0,0,1-4.5,4.92,11.31,11.31,0,0,1-6,1.72,11.52,11.52,0,0,1-6.08-1.72,12.42,12.42,0,0,1-4.54-4.92,15.28,15.28,0,0,1-1.7-7.3,15,15,0,0,1,1.7-7.26,12.49,12.49,0,0,1,4.54-4.88,11.52,11.52,0,0,1,6.08-1.72,11.32,11.32,0,0,1,6,1.72,12.6,12.6,0,0,1,4.5,4.88,15,15,0,0,1,1.7,7.26A15.28,15.28,0,0,1,671.75,180.76Zm39.57,13.61h9.08V135.66h-9.08Zm41.84-43.13a15.42,15.42,0,0,0-7.5,1.93,13.67,13.67,0,0,0-5.31,4.88H740v-5.49h-8.51v41.82h8.92V171.74a14,14,0,0,1,1.3-6,11.16,11.16,0,0,1,3.65-4.47,9,9,0,0,1,5.35-1.68,9.16,9.16,0,0,1,6.61,2.3q2.39,2.3,2.39,7.22v25.26h8.92V167.89q0-7.71-3.93-12.18T753.17,151.24Zm44,18.78-6.08-1.56a13.19,13.19,0,0,1-4.54-2,3.71,3.71,0,0,1-1.54-3.08,3.65,3.65,0,0,1,2-3.2,9.53,9.53,0,0,1,5-1.23q6.24,0,8.6,4.84l7.78-3.44a13.78,13.78,0,0,0-6.33-6.76A21.2,21.2,0,0,0,792,151.24a20.51,20.51,0,0,0-7.95,1.52,13.85,13.85,0,0,0-5.8,4.3,10.31,10.31,0,0,0-2.15,6.48,10.45,10.45,0,0,0,3.24,7.87,17.72,17.72,0,0,0,8.19,4.35L792.5,177a19.21,19.21,0,0,1,6,2.3,4.13,4.13,0,0,1,1.95,3.61,3.82,3.82,0,0,1-2.27,3.57,12,12,0,0,1-5.6,1.19,10.79,10.79,0,0,1-6-1.72,11.24,11.24,0,0,1-4.09-5l-7.95,3.53a17,17,0,0,0,6.41,8.08q4.54,3.16,11.68,3.16a21.94,21.94,0,0,0,8.6-1.64,14.39,14.39,0,0,0,6.12-4.63,11.29,11.29,0,0,0,2.23-6.93,10.6,10.6,0,0,0-3.12-7.75Q803.28,171.58,797.2,170Zm24-35.67a5.76,5.76,0,0,0-4.26,1.76,6.19,6.19,0,0,0,0,8.61,6,6,0,0,0,8.51,0,6.19,6.19,0,0,0,0-8.61A5.76,5.76,0,0,0,821.2,134.35Zm-4.46,60h8.92V152.56h-8.92Zm49.63-36.74h-.49a14.25,14.25,0,0,0-5.43-4.67,16.83,16.83,0,0,0-7.7-1.72A18.07,18.07,0,0,0,843.1,154a19.65,19.65,0,0,0-7.1,7.71,25.79,25.79,0,0,0,0,22.71,19.35,19.35,0,0,0,7.1,7.67,18.27,18.27,0,0,0,9.65,2.71,17.1,17.1,0,0,0,7.74-1.68,14,14,0,0,0,5.39-4.63h.49v3.85q0,6.15-3.2,9.55t-8.88,3.4a11.42,11.42,0,0,1-10.95-7.3L835,201.51a17.34,17.34,0,0,0,6.69,8.36q5,3.52,12.61,3.53A22.68,22.68,0,0,0,865,210.94a17.3,17.3,0,0,0,7.26-7.26,24.09,24.09,0,0,0,2.59-11.6V152.56h-8.51Zm-1.62,22.67a11.39,11.39,0,0,1-4.38,4.67,11.75,11.75,0,0,1-6,1.6,11.9,11.9,0,0,1-6.08-1.6,11.43,11.43,0,0,1-4.38-4.63,17.22,17.22,0,0,1,0-14.6,11.44,11.44,0,0,1,4.38-4.63,11.9,11.9,0,0,1,6.08-1.6,11.42,11.42,0,0,1,8.55,3.57q3.45,3.57,3.45,10A15.34,15.34,0,0,1,864.75,180.31Zm41.68-29.07a15.57,15.57,0,0,0-7.58,1.93,13.67,13.67,0,0,0-5.31,4.88h-.4l.4-6.4v-16h-8.92v58.71h8.92V171.91a13.56,13.56,0,0,1,1.38-6,11.92,11.92,0,0,1,3.77-4.55,9.64,9.64,0,0,1,11.84.66q2.47,2.38,2.47,7.13v25.26h8.92V167.89q0-7.71-4-12.18T906.43,151.24ZM948,186.59q-3,0-4.22-1.64-1.3-1.39-1.3-4.76V160.51h10.06v-8H942.52V140.75H933.6v11.81h-7.22v8h7.22v21.65q0,6.07,3.49,9.59a11.36,11.36,0,0,0,4,2.38,14.83,14.83,0,0,0,5.19.9,15.46,15.46,0,0,0,6.49-1.23V185a10.12,10.12,0,0,1-2.27,1.19A7.36,7.36,0,0,1,948,186.59Zm42-11.85q-3.12-3.16-9.2-4.71l-6.08-1.56a13.19,13.19,0,0,1-4.54-2,3.71,3.71,0,0,1-1.54-3.08,3.65,3.65,0,0,1,2-3.2,9.53,9.53,0,0,1,5-1.23q6.24,0,8.6,4.84l7.78-3.44a13.78,13.78,0,0,0-6.33-6.76,21.2,21.2,0,0,0-10.14-2.34,20.5,20.5,0,0,0-7.95,1.52,13.85,13.85,0,0,0-5.8,4.3,10.31,10.31,0,0,0-2.15,6.48,10.45,10.45,0,0,0,3.24,7.87,17.72,17.72,0,0,0,8.19,4.35l4.95,1.23a19.21,19.21,0,0,1,6,2.3,4.13,4.13,0,0,1,1.95,3.61,3.82,3.82,0,0,1-2.27,3.57,12,12,0,0,1-5.6,1.19,10.79,10.79,0,0,1-6-1.72,11.24,11.24,0,0,1-4.09-5l-7.95,3.53a17,17,0,0,0,6.41,8.08q4.54,3.16,11.68,3.16a21.94,21.94,0,0,0,8.6-1.64,14.39,14.39,0,0,0,6.12-4.63,11.29,11.29,0,0,0,2.23-6.93A10.6,10.6,0,0,0,990.07,174.74Z" style="fill:#757575"/><path d="M475.67,48.22a32.53,32.53,0,0,1,12.59,2.38,29.27,29.27,0,0,1,9.9,6.66,30.53,30.53,0,0,1,6.48,10.14,35.95,35.95,0,0,1,0,25.42A30.52,30.52,0,0,1,498.15,103a29.23,29.23,0,0,1-9.9,6.66,34.44,34.44,0,0,1-25.17,0,29.2,29.2,0,0,1-9.9-6.66,30.43,30.43,0,0,1-6.48-10.14,35.95,35.95,0,0,1,0-25.42,30.45,30.45,0,0,1,6.48-10.14,29.23,29.23,0,0,1,9.9-6.66A32.52,32.52,0,0,1,475.67,48.22Zm0,51.21a16.78,16.78,0,0,0,6.6-1.34A18.26,18.26,0,0,0,488,94.3a17.56,17.56,0,0,0,4-6,23.24,23.24,0,0,0,0-16.25,17.61,17.61,0,0,0-4-6,18.32,18.32,0,0,0-5.68-3.79,16.87,16.87,0,0,0-13.2,0,18.28,18.28,0,0,0-5.68,3.79,17.58,17.58,0,0,0-4,6,23.25,23.25,0,0,0,0,16.25,17.54,17.54,0,0,0,4,6,18.22,18.22,0,0,0,5.68,3.79A16.76,16.76,0,0,0,475.67,99.43Z" style="fill:#f4b400"/><path d="M372.45,59.51h-45V72.67h31.21a29.15,29.15,0,0,1-2.71,9.22,23.66,23.66,0,0,1-4.77,6.77A36.3,36.3,0,0,1,341.95,95q-5.48,2.71-14.38,2.71a33.73,33.73,0,0,1-12.77-2.45,33.38,33.38,0,0,1-10.71-6.9,32.38,32.38,0,0,1-7.35-10.77A35.67,35.67,0,0,1,294,63.38a35.69,35.69,0,0,1,2.71-14.19,32.39,32.39,0,0,1,7.35-10.77,33.81,33.81,0,0,1,23.35-9.35,34,34,0,0,1,13.87,2.71,31,31,0,0,1,10.64,7.74l10.19-10.19a41.46,41.46,0,0,0-15-10.45,50.25,50.25,0,0,0-19.54-3.74,49.13,49.13,0,0,0-18.77,3.61A46.9,46.9,0,0,0,283,44.1a48.22,48.22,0,0,0-3.81,19.28A48.22,48.22,0,0,0,283,82.66,46.91,46.91,0,0,0,308.8,108,52.42,52.42,0,0,0,347,108a44.37,44.37,0,0,0,14.83-10.19,36,36,0,0,0,8.77-14.45A53.86,53.86,0,0,0,373.22,67a29,29,0,0,0-.26-3.93Q372.71,61.19,372.45,59.51Zm187.3-9.33v7.46H559a22.11,22.11,0,0,0-7.76-6.72,23.84,23.84,0,0,0-11.55-2.69,25.34,25.34,0,0,0-10.63,2.34A29.1,29.1,0,0,0,520,57.11a31.09,31.09,0,0,0-6.29,10.06,34.69,34.69,0,0,0-2.32,12.9,35.17,35.17,0,0,0,2.32,13A30.9,30.9,0,0,0,520,103.13a29,29,0,0,0,9.11,6.54A25.34,25.34,0,0,0,539.71,112a23.85,23.85,0,0,0,11.55-2.69,22.09,22.09,0,0,0,7.76-6.72h.73v4.89q0,8.86-4.71,13.78t-13.14,4.92a16.28,16.28,0,0,1-9.78-3,16,16,0,0,1-5.87-7.76l-13,5.26a27,27,0,0,0,3.36,6.11,25,25,0,0,0,5.81,5.74,31.51,31.51,0,0,0,8.37,4.22,34.13,34.13,0,0,0,11.06,1.65,35.53,35.53,0,0,0,12.28-2.08,26.92,26.92,0,0,0,9.78-6.11,28.88,28.88,0,0,0,6.48-10,36.31,36.31,0,0,0,2.38-13.63V50.18Zm-1.47,38.2a19,19,0,0,1-3.85,6.08,15.41,15.41,0,0,1-5.56,3.73,17.64,17.64,0,0,1-6.48,1.24,16.82,16.82,0,0,1-12.1-5.09,18.5,18.5,0,0,1-3.91-6.08,23.64,23.64,0,0,1,0-16.39,18.49,18.49,0,0,1,3.91-6.08A16.86,16.86,0,0,1,548.88,62a16.56,16.56,0,0,1,5.56,3.72,18.21,18.21,0,0,1,3.85,6.08,24.16,24.16,0,0,1,0,16.58Z" style="fill:#4285f4"/><path d="M578.74,110.06V18.35H592.3v91.71Z" style="fill:#0f9d58"/><path d="M431.18,57.27a29.28,29.28,0,0,0-9.9-6.66,34.44,34.44,0,0,0-25.18,0,29.24,29.24,0,0,0-9.9,6.66,30.45,30.45,0,0,0-6.48,10.14,35.95,35.95,0,0,0,0,25.42A30.43,30.43,0,0,0,386.21,103a29.2,29.2,0,0,0,9.9,6.66,34.44,34.44,0,0,0,25.18,0,29.24,29.24,0,0,0,9.9-6.66,30.52,30.52,0,0,0,6.48-10.14,35.95,35.95,0,0,0,0-25.42A30.53,30.53,0,0,0,431.18,57.27Zm-6.23,31a17.56,17.56,0,0,1-4,6,18.27,18.27,0,0,1-5.68,3.79,16.87,16.87,0,0,1-13.2,0,18.23,18.23,0,0,1-5.68-3.79,17.54,17.54,0,0,1-4-6,23.25,23.25,0,0,1,0-16.25,17.58,17.58,0,0,1,4-6,18.28,18.28,0,0,1,5.68-3.79,16.87,16.87,0,0,1,13.2,0A18.32,18.32,0,0,1,421,65.94a17.61,17.61,0,0,1,4,6,23.25,23.25,0,0,1,0,16.25Zm220.28,3.37a15.77,15.77,0,0,1-7.91,6.21,19.55,19.55,0,0,1-5.92,1.33,16.48,16.48,0,0,1-6.3-.76,17.48,17.48,0,0,1-5.87-3.3A19,19,0,0,1,614.51,89l42.74-17.2a4,4,0,0,1-.25-1,5.58,5.58,0,0,1-.3-1.07l-.41-1a39.22,39.22,0,0,0-6.66-11.15,28.35,28.35,0,0,0-9.13-7.13,26.3,26.3,0,0,0-11-2.57,31.36,31.36,0,0,0-12.37,2.48,29.38,29.38,0,0,0-16.93,17,31.24,31.24,0,0,0-1.94,11.71,35.84,35.84,0,0,0,9.46,23.2,30.56,30.56,0,0,0,9.77,6.94,29.35,29.35,0,0,0,11.61,2.51,31.74,31.74,0,0,0,12.4-2.42q9.41-3.79,14.14-10.69c.43-.63,1.23-1.91,1.23-1.91L646.15,90S645.56,91.07,645.22,91.62Zm-32-23.41a15.33,15.33,0,0,1,8.05-7,17.71,17.71,0,0,1,7.25-1.47,16.28,16.28,0,0,1,5.74,1.18,12.54,12.54,0,0,1,4.16,2.81A17.18,17.18,0,0,1,641,67.09L611.43,79A17.12,17.12,0,0,1,613.21,68.2Z" style="fill:#db4437"/></svg>