<svg id="svg-googlesearchconsole" xmlns="http://www.w3.org/2000/svg" viewBox="0 0 1000 280"><title>googlesearchconsole</title><path d="M397.36,219.28a46,46,0,0,0-7.12-4.18c-2.32-1-5.26-2.09-8.74-3.25A32,32,0,0,1,371.44,207a8.25,8.25,0,0,1-3.4-6.65,9,9,0,0,1,3.71-7.27,14.21,14.21,0,0,1,9-2.94,13.65,13.65,0,0,1,9,2.86,12.7,12.7,0,0,1,4.41,6.27l8.36-3.48c-1.16-3.56-3.56-6.81-7.35-9.83s-8.59-4.49-14.62-4.49c-6.5,0-11.76,1.86-15.78,5.65a17.7,17.7,0,0,0-6,13.31,16,16,0,0,0,4.87,12.07c3.17,3.09,8,5.65,14.24,7.66,6,1.78,10.52,3.79,13.31,6a10.91,10.91,0,0,1,4.18,9.13,10,10,0,0,1-4.18,8.43,16.44,16.44,0,0,1-10.24,3,15.22,15.22,0,0,1-10.37-4,18.84,18.84,0,0,1-6.11-9.83l-8.36,3.4a23.62,23.62,0,0,0,9.67,14.16,26.49,26.49,0,0,0,15.09,5,23.57,23.57,0,0,0,8.28-1.39,29.79,29.79,0,0,0,7.58-3.64,16.92,16.92,0,0,0,5.65-6.42,19,19,0,0,0,2.17-9.21,21,21,0,0,0-1.86-9.05A16.76,16.76,0,0,0,397.36,219.28Zm36-15.55a21.69,21.69,0,0,0-17.1,7.66,27.09,27.09,0,0,0-6.65,18.26c0,7.43,2.32,13.62,6.89,18.49s10.52,7.35,17.87,7.35c5.34,0,9.75-1.24,13.38-3.87a21.31,21.31,0,0,0,7.81-9.44l-8.12-3.4c-2.32,5.57-6.81,8.36-13.31,8.36a14.73,14.73,0,0,1-10.52-4.26,16.7,16.7,0,0,1-4.87-11.61h38.3l.08-1.7q0-11.72-6.5-18.8c-4.34-4.77-10.06-7-17.26-7Zm-14,20.12a16.13,16.13,0,0,1,5.11-8.51,13.07,13.07,0,0,1,8.74-3.17c4.64,0,8.12,1.32,10.44,3.79a13,13,0,0,1,3.79,7.89Zm78.3-14.7c-4.1-3.64-9.28-5.42-15.47-5.42-5.42,0-9.75,1.24-13.08,3.71s-5.57,5.11-6.65,8l8.36,3.56a9.34,9.34,0,0,1,4.41-5.18,14.25,14.25,0,0,1,7.2-1.86,13.07,13.07,0,0,1,9,3.25,11,11,0,0,1,3.64,8.59v1.39c-3.4-1.93-7.81-2.94-13.15-2.94-6,0-11.06,1.47-15.16,4.49a15.84,15.84,0,0,0-.93,24.22,18.91,18.91,0,0,0,12.92,4.49c7,0,12.3-2.71,15.94-8.28h.39v6.73h8.74V224.46c-.05-6.58-2.06-11.68-6.16-15.32ZM490.43,243a14.67,14.67,0,0,1-10.21,4.18,12.35,12.35,0,0,1-7-2.09,6.4,6.4,0,0,1-3.09-5.65,8.72,8.72,0,0,1,3.4-6.73c2.24-1.93,5.57-2.86,10-2.86,5.18,0,9,1.08,11.61,3.17A13,13,0,0,1,490.43,243Zm45.26-38.76a16.33,16.33,0,0,0-8.36,2.55,12.14,12.14,0,0,0-5.73,6.5h-.39V205.4h-8.74v48.51h9.13V227.4a14,14,0,0,1,3.79-10.21,11.79,11.79,0,0,1,8.74-3.95,13.56,13.56,0,0,1,4.87.7l3.48-8.51a17.62,17.62,0,0,0-6.79-1.16Zm30.25,42.94a14.17,14.17,0,0,1-10.68-5,19.45,19.45,0,0,1,0-25.22,14.17,14.17,0,0,1,10.68-5c6.5,0,11.06,3,13.54,9.13l8.36-3.48a22.93,22.93,0,0,0-7.81-10q-5.34-3.95-13.46-3.95c-7.27,0-13.23,2.4-18,7.35s-7,11.06-7,18.49,2.32,13.54,7,18.49a23.91,23.91,0,0,0,18,7.35,22.84,22.84,0,0,0,13.62-3.95,23.63,23.63,0,0,0,8-10L580,238.08c-2.61,6.11-7.25,9.13-14.06,9.13Zm52.22-43.33a18.1,18.1,0,0,0-9.13,2.4,16,16,0,0,0-6.27,5.88h-.39l.39-6.73V183.07h-9.13v70.87h9.13V227.09a16.28,16.28,0,0,1,3.56-10.44,11.15,11.15,0,0,1,9.21-4.49q12,0,12,13.46v28.32h9.13V224.31c0-6.19-1.55-11.14-4.72-14.85s-7.74-5.58-13.77-5.58Zm73.11,42.86a27,27,0,0,1-19.57-7.81c-5.34-5.18-8-12.07-8-20.5s2.63-15.32,8-20.5a27,27,0,0,1,19.57-7.81c8.36,0,14.93,2.94,19.73,9l6.34-6.11q-10.09-11.61-26.07-11.61c-10.44,0-19.19,3.56-26.23,10.6s-10.6,15.86-10.6,26.46S658,237.85,665,244.89s15.78,10.6,26.23,10.6a37.2,37.2,0,0,0,16-3.4,35.56,35.56,0,0,0,12.15-9.28l-6.34-6.34c-6,6.87-13.29,10.27-21.8,10.27Zm56.63-42.86c-7.27,0-13.23,2.4-18,7.35s-7,11.06-7,18.49,2.32,13.54,7,18.49a23.91,23.91,0,0,0,18,7.35c7.27,0,13.23-2.4,18-7.35s7-11.06,7-18.49-2.32-13.54-7-18.49a23.91,23.91,0,0,0-17.94-7.32ZM759,242.41a15.34,15.34,0,0,1-21.69.59q-.31-.29-.59-.59c-3.09-3.25-4.64-7.43-4.72-12.69s1.55-9.52,4.72-12.69a15.34,15.34,0,0,1,21.69-.62q.31.29.59.59c3.17,3.17,4.72,7.43,4.72,12.69S762.15,239.24,759,242.41Zm44.8-38.53a18.1,18.1,0,0,0-9.13,2.4,16,16,0,0,0-6.27,5.88H788v-6.73h-8.74v48.51h9.13V227.09A16.28,16.28,0,0,1,792,216.65a11.15,11.15,0,0,1,9.21-4.49q12,0,12,13.46v28.32h9.13V224.31c0-6.19-1.55-11.14-4.72-14.85s-7.76-5.58-13.8-5.58Zm50.75,22.2L845,223.84c-4.26-1-6.42-2.86-6.42-5.65a5.16,5.16,0,0,1,2.79-4.56,12.53,12.53,0,0,1,6.81-1.7c5.57,0,9.28,2.17,11.06,6.42l7.89-3.25a15.88,15.88,0,0,0-7.2-8.36,24.32,24.32,0,0,0-25,1.08c-3.79,2.71-5.73,6.19-5.73,10.44a10.87,10.87,0,0,0,4.18,9,23.87,23.87,0,0,0,8.82,4.49l9.83,2.4c4.41,1.08,6.65,3.25,6.65,6.42a5.85,5.85,0,0,1-2.71,5,12,12,0,0,1-7,1.86c-6.19,0-10.6-3-13.15-9.13l-8.12,3.4a23,23,0,0,0,7.74,9.9c3.48,2.63,8,3.95,13.38,3.95,5.57,0,10.21-1.39,13.77-4.33a13.62,13.62,0,0,0,5.34-10.91,13.18,13.18,0,0,0-3.25-8.74c-2.22-2.62-5.55-4.4-10.12-5.49Zm41.78-22.2c-7.27,0-13.23,2.4-18,7.35s-7,11.06-7,18.49,2.32,13.54,7,18.49a23.91,23.91,0,0,0,18,7.35c7.27,0,13.23-2.4,18-7.35s7-11.06,7-18.49-2.32-13.54-7-18.49a23.91,23.91,0,0,0-18-7.35Zm11.14,38.53a15.34,15.34,0,0,1-21.69.59q-.31-.29-.59-.59c-3.17-3.25-4.72-7.43-4.72-12.69S882,220.2,885.16,217a15.34,15.34,0,0,1,21.69-.59q.31.29.59.59c3.17,3.17,4.72,7.43,4.72,12.69s-1.54,9.55-4.72,12.72Zm20.35,11.53h9.13V183.07h-9.13ZM991,229.57q0-11.72-6.5-18.8c-4.33-4.72-10.06-7-17.25-7a21.69,21.69,0,0,0-17.1,7.66,27.09,27.09,0,0,0-6.65,18.26c0,7.43,2.32,13.62,6.89,18.49s10.52,7.35,17.87,7.35c5.26,0,9.75-1.24,13.38-3.87a21.31,21.31,0,0,0,7.81-9.44l-8.12-3.4c-2.32,5.57-6.81,8.36-13.31,8.36a14.73,14.73,0,0,1-10.52-4.26,16.7,16.7,0,0,1-4.87-11.61h38.3Zm-37.76-5.73a16.13,16.13,0,0,1,5.11-8.51,13.07,13.07,0,0,1,8.74-3.17c4.64,0,8.12,1.32,10.44,3.79a13,13,0,0,1,3.79,7.89Z" style="fill:#757575"/><path d="M563.38,75.18c-18,0-32.56,13.64-32.56,32.47s14.6,32.47,32.56,32.47,32.56-13.74,32.56-32.47S581.34,75.18,563.38,75.18Zm0,52.06c-9.8,0-18.35-8.07-18.35-19.69s8.45-19.69,18.35-19.69,18.35,8,18.35,19.69S573.17,127.24,563.38,127.24Z" style="fill:#f4b400"/><path d="M407.77,85.17V98.9h33c-1,7.68-3.55,13.35-7.49,17.29-4.8,4.8-12.29,10.09-25.45,10.09-20.27,0-36.12-16.33-36.12-36.6s15.85-36.6,36.12-36.6a35,35,0,0,1,24.88,9.8l9.7-9.7a48.14,48.14,0,0,0-34.58-13.93c-27.86,0-51.2,22.67-51.2,50.43s23.34,50.33,51.29,50.43c15,0,26.32-4.9,35.16-14.12,9.13-9,11.91-21.8,11.91-32.18a45.87,45.87,0,0,0-.77-8.64ZM650.59,77.1v5.28h-.48c-3.17-3.84-9.32-7.3-17.1-7.3-16.23,0-31.12,14.22-31.12,32.56C601.89,125.8,616.78,140,633,140c7.78,0,13.93-3.46,17.1-7.4h.48v4.71c0,12.39-6.63,19-17.29,19-8.74,0-14.12-6.24-16.33-11.53L604.58,150a30.94,30.94,0,0,0,28.82,19.21c16.71,0,30.83-9.8,30.83-33.81V77.1Zm-16.33,50.14c-9.8,0-18.06-8.26-18.06-19.59s8.26-19.79,18.06-19.79,17.29,8.36,17.29,19.79S644,127.24,634.26,127.24Z" style="fill:#4285f4"/><rect x="674.03" y="42.71" width="14.22" height="95.38" style="fill:#0f9d58"/><path d="M492.3,75.18c-18,0-32.56,13.64-32.56,32.47s14.6,32.47,32.56,32.47,32.56-13.74,32.56-32.47S510.26,75.18,492.3,75.18Zm0,52.06c-9.8,0-18.35-8.07-18.35-19.69s8.45-19.69,18.35-19.69,18.35,8,18.35,19.69S502.09,127.24,492.3,127.24Zm235,0c-7.3,0-12.39-3.36-15.75-9.8l43.42-18-1.44-3.65c-2.69-7.3-11-20.65-27.76-20.65s-30.64,13.16-30.64,32.47c0,18.15,13.74,32.47,32.18,32.47a32.5,32.5,0,0,0,27.09-14.41l-11-7.4c-3.77,5.41-8.76,9-16.06,9Zm-1.06-39.57c5.67,0,10.47,2.79,12,6.92l-29,12c-.35-12.49,9.76-18.93,17-18.93Z" style="fill:#db4437"/><path d="M95.62,51.13h21V9.07l-21,21ZM202.82,9.07V51.13h21v-21Z" style="fill:#7b7b7b"/><rect x="116.65" y="9.07" width="86.17" height="21.03" style="fill:#5a5a5a"/><rect x="46.55" y="134.81" width="225.21" height="134.95" style="fill:#fff"/><path d="M264,50.69H53.41L11.94,91v43.81H305.5V91ZM61.63,270.2h97.09V252.68H61.63Zm0-119v83.91h75.18V151.24Zm175,55.09L182,151.73l-6,70.13,48.34,48.34h47.39v-75L236.58,160Z" style="fill:#d2d3d4"/><path d="M252.26,196a49.07,49.07,0,0,0-28.41-44.51v46.26l-20.92,12-20.92-12v-46a49.09,49.09,0,0,0,0,88.56V270.2h42.35V240.29A49.08,49.08,0,0,0,252.26,196Z" style="fill:#505050"/><path d="M271.76,134.81V104a11.72,11.72,0,0,0-11.68-11.68H58.23A11.72,11.72,0,0,0,46.55,104v30.82" style="fill:#458cf5"/><path d="M70.06,119.88a8.43,8.43,0,1,0-8.43-8.43,8.43,8.43,0,0,0,8.43,8.43Zm26.14,0a8.43,8.43,0,1,0-8.43-8.43,8.43,8.43,0,0,0,8.43,8.43h0Zm175.55,14.93v135H46.55v-135H11.94V247A23.44,23.44,0,0,0,35.3,270.35H282.13A23.44,23.44,0,0,0,305.5,247V134.81Z" style="fill:#e6e7e8"/></svg>