<svg id="svg-gopay" xmlns="http://www.w3.org/2000/svg" viewBox="0 0 1000 220"><title>gopay</title><path d="M497.26,34.33c-39.39,0-67.69,27.87-67.69,64h0c0,36,28.11,63.89,67.7,63.89s67.59-27.78,67.59-63.89S536.67,34.33,497.26,34.33Zm24.61,88.81a32.49,32.49,0,0,1-24.69,9.56,34.4,34.4,0,0,1,0-68.8h0a34.3,34.3,0,0,1,34.18,34.41A32.88,32.88,0,0,1,521.87,123.15ZM377.44,48.61a54.26,54.26,0,0,0-40.69-14.26c-34.94.31-63,29.07-62.65,64.22a63.43,63.43,0,0,0,63.83,63,51.11,51.11,0,0,0,38.89-14.7v12.37c0,16.52-14.09,28.72-32.72,28.72a51.11,51.11,0,0,1-39.33-14.54L283,194.61a83.24,83.24,0,0,0,61.78,24.5c38.22,0,64.44-25.8,64.44-60.19V34.33H377.44Zm-35.56,83.15a31.85,31.85,0,0,1-25.5-9,32.26,32.26,0,0,1-9.56-25.43C306.83,77.59,321.2,64,343.24,64,360.33,64,376,76.46,376,90.5l.09,14.33C376.07,119.8,361.11,131.76,341.89,131.76ZM656.15,34.35a53.06,53.06,0,0,0-38.63,14.07h-.43V37.69H585L585.11,210h33.52V149.3a57.39,57.39,0,0,0,37.52,12.81,63.88,63.88,0,0,0,0-127.76Zm-4.94,98.09c-18.3,0-32.74-12.11-32.74-26.74V90c0-13.24,14.87-25.8,32.56-25.8h.19a34.42,34.42,0,0,1,0,68.28ZM787.78,34.33c-30.94,0-56.07,17.54-60.59,42.13l31.61,6.63a28.48,28.48,0,0,1,29.93-21.67c12.65,0,21.19,4.81,21.19,12.81,0,6.17-6.48,9.37-28.46,12.28v0c-37.85,5.24-52.3,18-52.3,39.46s18.37,36.11,44.78,36.11a49.52,49.52,0,0,0,40.52-16.7v13.7h30.09V81.7C844.54,52.3,822.81,34.33,787.78,34.33Zm24.61,79.35c0,12-15,20.56-34.19,20.56-12.74,0-18.54-3.35-18.54-10.48s7-11,26.67-14.61c16.31-3,22.65-5.52,25.63-9.81h.69Zm146.67-76-36,78.93-36.5-78.93H849.76L905.13,152l-28.81,57.61h36.85l83-172Z"/><path d="M111.56,3C52.56,3,4.69,51.07,4.69,110.43S52.54,217.91,111.54,217.91h0c59,0,106.85-48.13,106.85-107.48S170.56,3,111.56,3Zm60,142.2a25.7,25.7,0,0,1-22.22,20.63,299.09,299.09,0,0,1-74.35,0,26.2,26.2,0,0,1-22.74-21.93,226.43,226.43,0,0,1,0-64.48A25.72,25.72,0,0,1,73.59,57.46a168.41,168.41,0,0,1,59.83,0A18.61,18.61,0,0,1,149,74.67H78.63a4.81,4.81,0,0,0-4.44,4.46v0a4.44,4.44,0,0,0,4.44,4.44H148.2a25.19,25.19,0,0,1,25.65,24.15A171.41,171.41,0,0,1,171.54,145.17Z" style="fill:#00aed6"/><path d="M149.83,113.61h-.07a7.07,7.07,0,0,0-7,7.13,8.61,8.61,0,0,0,2.65,5.43v5.78a4.44,4.44,0,0,0,4.44,4.44h0a4.44,4.44,0,0,0,4.41-4.48v-5.74a10.85,10.85,0,0,0,2.72-5.43q0-.17,0-.34A7,7,0,0,0,149.83,113.61Z" style="fill:#00aed6"/></svg>