<svg id="svg-indodax" xmlns="http://www.w3.org/2000/svg" viewBox="0 0 1000 140"><title>indodax</title><path d="M1,124.18H31.93V14.94H1ZM7,20.92h19v97.27H7Zm196.29-6.86A6.11,6.11,0,0,0,200,25.35v93.84H164.46L85.15,39.88H75.32v78.81h-17V21.92H92.44L171.5,101h10.82V21.92h5.24v85H169.7L90.14,27.41H63.35v77.36a6.11,6.11,0,1,0,6.48.31V33.89H87.45L167,113.45h27v-98H175.84V94.5h-1.65L95.12,15.44H51.88V125.18H81.81V46.36h.65l79.31,79.31h44.74V25.35a6.11,6.11,0,0,0-3.24-11.28ZM22.7,30.15a6.24,6.24,0,1,0-9.23,5.47v68.87a6.24,6.24,0,1,0,6.24.15V35.47A6.23,6.23,0,0,0,22.7,30.15Zm314.67-17h-114V123.6h19.29V32h95.86c6.3,0,7.57,2.51,7.57,6.57v57c0,7.42-1.81,9.23-9.23,9.23H255.15V44c14.11,0,68.3.19,74.46.09,2.22,0,2.62,0,3.41.89,1.11,1.26.91,3.4.91,7.16l0,36.5c0,2.25-.72,2.93-1.08,3.28a3.34,3.34,0,0,1-2.64,1H268.79a6.11,6.11,0,1,0-.31,6.48h61.75c2.76,0,6.15.17,8.06-1.79s2.31-2.83,2.31-8.42l-.1-38.64c.08-7.65.13-9.35-1.86-11.34-1.67-1.67-4.58-1.62-7.58-1.57-6.87.11-78.43-.1-79.14-.1h-3.25v73.83h88.21c11,0,15.71-4.7,15.71-15.71v-57c0-4.87-1.83-13.05-14-13.05H236.19v91.62h-6.32V19.68h107.5c15.74,0,20.53,4.64,20.53,19.87v59c0,14-5.43,18.54-22.36,18.54H256.41a6.11,6.11,0,1,0,0,6.48h79.13c20.49,0,28.85-7.25,28.85-25v-59C364.39,20.83,356.56,13.19,337.37,13.19Zm317.25,0h-114V123.6h19.29V32h95.86c6.3,0,7.57,2.51,7.57,6.57v57c0,7.42-1.81,9.23-9.23,9.23H572.4V44c14.11,0,68.3.19,74.46.09,2.22,0,2.62,0,3.41.89,1.11,1.26.91,3.4.91,7.16l0,36.5c0,2.25-.72,2.93-1.08,3.28a3.34,3.34,0,0,1-2.64,1H586a6.11,6.11,0,1,0-.31,6.48h61.75c2.76,0,6.15.17,8.06-1.79s2.31-2.83,2.31-8.42l-.1-38.64c.08-7.65.13-9.35-1.86-11.34-1.67-1.67-4.58-1.62-7.58-1.57-6.87.11-78.43-.1-79.14-.1h-3.25v73.83h88.21c11,0,15.71-4.7,15.71-15.71v-57c0-4.87-1.83-13.05-14-13.05H553.44v91.62h-6.32V19.68h107.5c15.74,0,20.53,4.64,20.53,19.87v59c0,14-5.43,18.54-22.36,18.54H573.66a6.11,6.11,0,1,0,0,6.48h79.13c20.49,0,28.85-7.25,28.85-25v-59C681.64,20.83,673.81,13.19,654.62,13.19Zm-239.89.29L382,46.06V93.59l32.75,31.27,72.41-.74,21.79-33.77V52.76l-25.4-26.47H420L395.75,52.14l.71,38.2,23,20.83H479.4l16.8-26V58.12L477.83,39.75H425.21L409.58,58.36V84.31l16.37,15.05h38.72a6.31,6.31,0,1,0-.19-6.24h-36.1L415.81,81.57V60.63L428.11,46h47.14L490,60.71V83.35l-14,21.58H421.88L402.65,87.52l-.62-33,20.66-22h58.18l21.82,22.74V88.51l-19,29.41-66.52.68-29-27.68V48.66l29.1-28.94h69.09L516.3,49.63l-.63,43.15L502.6,112.26a6.32,6.32,0,1,0,5.53,6.26,6.29,6.29,0,0,0-.53-2.53l14.28-21.27.7-47.63L489,13.48ZM821,15.3c-9.09-.61-90.62-1.2-99.75-.5-10.15.78-21.25,6.49-21.95,20.17-.68,13.24-1,83.35-1,86.33v3.92l31.17,0,.25-30.51h91.31v9.76a6.11,6.11,0,1,0,6.48.32V88.26H723.32l-.25,30.27-18.21,0c.07-14.12.38-71.69,1-83.2s11.36-13.68,16-14c8.81-.68,90.6-.05,98.81.5,7.66.52,12.42,6.78,12.42,16.36v80.81H815.57V100.48h-71.4a6.11,6.11,0,1,0,0,6.48h64.91v18.46h30.43V38.13C839.52,25.22,832.09,16,821,15.3Zm-7.22,12.1c-6.48,0-84.85-.62-90.43-.37-7.6.35-12.6,5.73-12.45,13.4.1,5,0,47.67,0,64.23a6.11,6.11,0,1,0,6.48,0c0-16.63.09-59.17,0-64.35-.11-5.66,3.87-6.69,6.26-6.8,5.55-.25,83.89-.69,90.31-.05,6.73.68,7.15,4.17,7.24,14,.07,7.56,0,20.58.06,28.1H729.74c-.07-7.4-.1-23.06-.2-25.28-.19-4.24,1.06-4.9,6.13-5,7-.11,66.28.26,69.5.32,2.91.06,3.63,1.46,3.61,4.16,0,3.25,0,7.79,0,11.63a6.11,6.11,0,1,0,6.5.24c0-4.34,0-9.66,0-13.13,0-7.39-1.87-9.3-9.33-9.38-3.42,0-67.84.32-75.26.32-3.85,0-7.65.42-7.57,8.18,0,2.87.16,31,.17,32.18l0,2.21,104.05.08,0-3.27c0-.27-.21-24.83,0-34.14C827.56,37.92,826.46,27.41,813.83,27.41Zm65.61,6.26A6,6,0,1,0,875,38l22.86,22.42h38.21l41.37-40.4L990,32.44,944.61,78.82l27.16,26.93a6,6,0,1,0,4.67-4.15l-23-22.85,45.4-46.4-21.35-21L934,54.22H900.4ZM971.8,80.54a6,6,0,1,0-4.84,4l23.59,22.62L977.69,120l-41.4-41.15L915,79.19l-41,41.07-13-13.18L898.32,70,860.74,32l12.78-12.35,24.37,24.56a6,6,0,1,0,4.3-4.52L873.6,10.93,852.12,32.18l37.33,37.73-37.14,37.47,21.6,21.69,43.66-43.68,16.3-.22,43.81,43.75L999,107.22Zm-30.47-7.59,34.5-35a6,6,0,1,0-4.21-4.61l-32.9,33.36H910.06l-35.17,34.92a6,6,0,1,0,4.53,4.29l33.22-33Z" style="fill:#0084b5"/></svg>