<svg id="svg-jenius" xmlns="http://www.w3.org/2000/svg" viewBox="0 0 1000 230"><title>jenius</title><path d="M170.87,203.27C198,187.59,215,160.77,215,131.62c0-65-65.62-88.24-65.62-88.24-12.07-6.87-27-10.54-43.43-10.54l-4.64,0A104.84,104.84,0,0,1,161.8,13.24c51.29,0,90.1,47,90.1,91.08,0,51.22-37.52,91-81,98.95m-33-.19c-33.35-6.31-60.75-30.71-72.52-59.62,11.69,11.09,28.33,18.67,49.57,18.67,33.9,0,66.14-25.14,66.14-62.34,0-18.31-6.71-30.28-6.71-30.28,14.18,13.88,23.13,33.36,23.13,57.09,0,33.36-25.84,64.48-59.62,76.49m-29.82,5.29c-39.81,0-81.87-37.22-81.87-83.53,0-22.64,7.34-45.21,26-60.4a68.47,68.47,0,0,0-6.5,24.22,84.64,84.64,0,0,0-.7,10.8c0,50,28.39,91.5,72.85,108.29a77.3,77.3,0,0,1-9.74.63m3.85-162c28.94,0,51.33,27.51,51.33,52,0,33.18-21,55.39-50.27,55.39-26.27,0-49.74-23.5-49.74-56.93,0-27.6,21.25-50.5,48.69-50.5M153.16,2.56c-27,0-65.44,11.25-88.09,38.64C29.2,56.36,3,90.14,3,127.12c0,57.33,50.54,91.58,111.46,91.58,10,0,19.6-2.15,28.51-4.37a133.35,133.35,0,0,0,20.42,1.55c57.5,0,108.13-45,108.13-103.86,0-60.65-49.95-109.45-118.36-109.45" style="fill:#00aae7"/><path d="M366.46,170.67c0,18.45-12.13,28.86-38,29.64v28.09c29.35,0,66.55-15.38,66.55-57.74V33H366.46ZM534.92,92.29c0-21.83-12.41-61.9-58.2-61.9-43.37,0-58.17,35.14-58.17,71.52s15.1,71.54,64.91,71.54c13.49,0,30.69-3.11,50.38-16.65L519.29,135c-12.38,7.56-24.28,11.44-35.84,11.44-22.09,0-32.33-14.56-34.75-29.65h60.06C526.55,116.75,534.92,110,534.92,92.29Zm-86.49-2.62c1.9-17.11,9.44-32.21,28.28-32.21s26.4,15.1,28.32,32.21Zm164.1-59.28c-35.58,0-53.82,28.37-53.82,28.37V171.9h28.52v-104s8.89-10.41,25.31-10.41c18.06,0,28,14.3,28,27v87.4h28.59V84.49C669.13,58.22,650,30.39,612.53,30.39ZM700.79,171.9h28.53V32H700.79Zm244.5-84.8h.25c-9.74-2.61-22.33-7.23-22.33-16.87,0-7,7.53-12.77,21.8-12.77s30.43,6.25,36.63,9.09l9.18-24.72c-9.47-4.68-28.6-11.43-45.81-11.43-24.77,0-50.65,12.21-50.65,39.83,0,25.45,23.18,38.22,46.07,43.67,12.42,2.58,28,7.55,28,17.44,0,10.41-12.61,15.09-25,15.09-12.11,0-28.81-7.57-41.47-14.08l-11.05,25.77c12.11,6,29.92,14.79,52.52,15.33,26.1,0,53.61-11.95,53.61-42.1C997,102.15,966.83,92.28,945.28,87.09ZM843.67,119.34c0,12.71-9.93,26.94-27.87,27.05C797.94,146.28,788,132,788,119.34V32H759.44v87.39c0,26.22,19,53.92,56.24,54.1H816c37.21-.18,56.2-27.89,56.2-54.1V32H843.67Z" style="fill:#00aae7"/></svg>