<svg id="svg-lazada" xmlns="http://www.w3.org/2000/svg" xmlns:xlink="http://www.w3.org/1999/xlink" viewBox="0 0 1000 265"><defs><linearGradient id="linear-gradient" x1="288.11" y1="213.94" x2="345.28" y2="214.38" gradientTransform="matrix(5.57, 0, 0, -5.57, -1601.8, 1324.98)" gradientUnits="userSpaceOnUse"><stop offset="0" stop-color="#ffb900"/><stop offset="0.34" stop-color="#f38000"/><stop offset="0.57" stop-color="#f83c72"/><stop offset="0.78" stop-color="#fc1cbe"/><stop offset="0.93" stop-color="#fe08ed"/><stop offset="1" stop-color="#f0f"/></linearGradient><linearGradient id="linear-gradient-2" x1="304.18" y1="195.23" x2="362.47" y2="227.5" gradientTransform="matrix(5.57, 0, 0, -5.57, -1601.8, 1324.98)" gradientUnits="userSpaceOnUse"><stop offset="0" stop-color="#ee0a3f"/><stop offset="1" stop-color="#ee0a3f" stop-opacity="0"/></linearGradient><linearGradient id="linear-gradient-3" x1="458.58" y1="204.71" x2="487.05" y2="227.65" gradientTransform="translate(2653.36 1312.63) rotate(180) scale(5.51)" gradientUnits="userSpaceOnUse"><stop offset="0" stop-color="#ed6600"/><stop offset="1" stop-color="#f98200"/></linearGradient></defs><title>lazada</title><path d="M977,73V85.8a38.09,38.09,0,0,0-30.59-14.73c-26.24,0-46.25,22.37-46.25,49.75s19.92,49.79,46.16,49.79a38.09,38.09,0,0,0,30.59-14.73v12.79H998V73Zm-26.76,78.44c-16.8,0-28.32-13.45-28.32-30.63s11.28-30.58,28.32-30.58,28.32,13.36,28.32,30.58S967,151.46,950.24,151.46Zm-85-65.65a38.09,38.09,0,0,0-30.59-14.73c-26.24,0-46.16,22.37-46.16,49.75s19.92,49.79,46.16,49.79a38.09,38.09,0,0,0,30.59-14.73v12.79h21V30.82h-21Zm-26.76,65.65c-16.8,0-28.32-13.45-28.32-30.63s11.28-30.58,28.32-30.58,28.32,13.36,28.32,30.58S855.27,151.46,838.47,151.46Zm-85-65.65a38.23,38.23,0,0,0-30.63-14.73c-26.24,0-46.11,22.37-46.11,49.75s19.87,49.79,46.11,49.79a38.23,38.23,0,0,0,30.63-14.73v12.79h21.05V73H753.47Zm-26.81,65.65c-16.85,0-28.32-13.45-28.32-30.63s11.28-30.58,28.32-30.58S755,103.6,755,120.82,743.51,151.46,726.66,151.46ZM668.18,89.86V73h-76.6V92.13H641l-50.17,59.94v16.61h78.49V149.57H618.2ZM553.4,85.8a38.24,38.24,0,0,0-30.63-14.73c-26.24,0-46.16,22.37-46.16,49.75s19.92,49.79,46.16,49.79a38.24,38.24,0,0,0,30.63-14.73v12.79h21V73h-21Zm-26.81,65.65c-16.85,0-28.32-13.45-28.32-30.63s11.28-30.58,28.32-30.58h0c17,0,28.32,13.36,28.32,30.58S543.44,151.46,526.59,151.46Zm-95-112.94H409.06l.09,130h61.36V147.07H431.62Z" style="fill:#000083"/><path d="M977,73V85.8a38.09,38.09,0,0,0-30.59-14.73c-26.24,0-46.25,22.37-46.25,49.75s19.92,49.79,46.16,49.79a38.09,38.09,0,0,0,30.59-14.73v12.79H998V73Zm-26.76,78.44c-16.8,0-28.32-13.45-28.32-30.63s11.28-30.58,28.32-30.58,28.32,13.36,28.32,30.58S967,151.46,950.24,151.46Zm-85-65.65a38.09,38.09,0,0,0-30.59-14.73c-26.24,0-46.16,22.37-46.16,49.75s19.92,49.79,46.16,49.79a38.09,38.09,0,0,0,30.59-14.73v12.79h21V30.82h-21Zm-26.76,65.65c-16.8,0-28.32-13.45-28.32-30.63s11.28-30.58,28.32-30.58,28.32,13.36,28.32,30.58S855.27,151.46,838.47,151.46Zm-85-65.65a38.23,38.23,0,0,0-30.63-14.73c-26.24,0-46.11,22.37-46.11,49.75s19.87,49.79,46.11,49.79a38.23,38.23,0,0,0,30.63-14.73v12.79h21.05V73H753.47Zm-26.81,65.65c-16.85,0-28.32-13.45-28.32-30.63s11.28-30.58,28.32-30.58S755,103.6,755,120.82,743.51,151.46,726.66,151.46ZM668.18,89.86V73h-76.6V92.13H641l-50.17,59.94v16.61h78.49V149.57H618.2ZM553.4,85.8a38.24,38.24,0,0,0-30.63-14.73c-26.24,0-46.16,22.37-46.16,49.75s19.92,49.79,46.16,49.79a38.24,38.24,0,0,0,30.63-14.73v12.79h21V73h-21Zm-26.81,65.65c-16.85,0-28.32-13.45-28.32-30.63s11.28-30.58,28.32-30.58h0c17,0,28.32,13.36,28.32,30.58S543.44,151.46,526.59,151.46Zm-95-112.94H409.06l.09,130h61.36V147.07H431.62Z" style="fill:#000083"/><path d="M977,73V85.8a38.09,38.09,0,0,0-30.59-14.73c-26.24,0-46.25,22.37-46.25,49.75s19.92,49.79,46.16,49.79a38.09,38.09,0,0,0,30.59-14.73v12.79H998V73Zm-26.76,78.44c-16.8,0-28.32-13.45-28.32-30.63s11.28-30.58,28.32-30.58,28.32,13.36,28.32,30.58S967,151.46,950.24,151.46Zm-85-65.65a38.09,38.09,0,0,0-30.59-14.73c-26.24,0-46.16,22.37-46.16,49.75s19.92,49.79,46.16,49.79a38.09,38.09,0,0,0,30.59-14.73v12.79h21V30.82h-21Zm-26.76,65.65c-16.8,0-28.32-13.45-28.32-30.63s11.28-30.58,28.32-30.58,28.32,13.36,28.32,30.58S855.27,151.46,838.47,151.46Zm-85-65.65a38.23,38.23,0,0,0-30.63-14.73c-26.24,0-46.11,22.37-46.11,49.75s19.87,49.79,46.11,49.79a38.23,38.23,0,0,0,30.63-14.73v12.79h21.05V73H753.47Zm-26.81,65.65c-16.85,0-28.32-13.45-28.32-30.63s11.28-30.58,28.32-30.58S755,103.6,755,120.82,743.51,151.46,726.66,151.46ZM668.18,89.86V73h-76.6V92.13H641l-50.17,59.94v16.61h78.49V149.57H618.2ZM553.4,85.8a38.24,38.24,0,0,0-30.63-14.73c-26.24,0-46.16,22.37-46.16,49.75s19.92,49.79,46.16,49.79a38.24,38.24,0,0,0,30.63-14.73v12.79h21V73h-21Zm-26.81,65.65c-16.85,0-28.32-13.45-28.32-30.63s11.28-30.58,28.32-30.58h0c17,0,28.32,13.36,28.32,30.58S543.44,151.46,526.59,151.46Zm-95-112.94H409.06l.09,130h61.36V147.07H431.62Z" style="fill:#000083"/><path id="path69" d="M162.8,263a13,13,0,0,1-6.52-1.69c-17-9.84-142.94-88.8-147.69-91.21A11.4,11.4,0,0,1,2.08,161V50.22A12,12,0,0,1,7.48,39.92l.91-.52c12.18-7.56,53-32.44,59.42-36A9.77,9.77,0,0,1,72.7,2a10.16,10.16,0,0,1,4.63,1.17s57.07,37.2,65.8,40.52a45,45,0,0,0,19.55,4.1,43.78,43.78,0,0,0,21.89-5.34C193.1,38,247.63,3.37,248.21,3.37a8.6,8.6,0,0,1,4.56-1.24,9.58,9.58,0,0,1,4.89,1.37c7.43,4.1,58,35.05,60.13,36.42a11.73,11.73,0,0,1,5.67,10.16V160.84a11.27,11.27,0,0,1-6.51,9.12c-4.76,2.61-130.3,81.57-147.63,91.21A13,13,0,0,1,162.8,263" style="fill:#000083"/><path id="path77" d="M162.15,263h.65a13,13,0,0,0,6.51-1.69c17-9.84,142.87-88.8,147.63-91.21a11.27,11.27,0,0,0,6.51-9.12V50.22a11.85,11.85,0,0,0-1.24-5.41L162.15,132.7V263" style="fill:#000083"/><path id="path968" d="M161.59,261.43h-.64a12.89,12.89,0,0,1-6.45-1.68C137.68,250,13.15,171.9,8.45,169.52a11.15,11.15,0,0,1-6.45-9V50.92a11.72,11.72,0,0,1,1.22-5.35l158.37,87V261.43" style="fill:#000083"/><path d="M977,73V85.8a38.09,38.09,0,0,0-30.59-14.73c-26.24,0-46.25,22.37-46.25,49.75s19.92,49.79,46.16,49.79a38.09,38.09,0,0,0,30.59-14.73v12.79H998V73Zm-26.76,78.44c-16.8,0-28.32-13.45-28.32-30.63s11.28-30.58,28.32-30.58,28.32,13.36,28.32,30.58S967,151.46,950.24,151.46Zm-85-65.65a38.09,38.09,0,0,0-30.59-14.73c-26.24,0-46.16,22.37-46.16,49.75s19.92,49.79,46.16,49.79a38.09,38.09,0,0,0,30.59-14.73v12.79h21V30.82h-21Zm-26.76,65.65c-16.8,0-28.32-13.45-28.32-30.63s11.28-30.58,28.32-30.58,28.32,13.36,28.32,30.58S855.27,151.46,838.47,151.46Zm-85-65.65a38.23,38.23,0,0,0-30.63-14.73c-26.24,0-46.11,22.37-46.11,49.75s19.87,49.79,46.11,49.79a38.23,38.23,0,0,0,30.63-14.73v12.79h21.05V73H753.47Zm-26.81,65.65c-16.85,0-28.32-13.45-28.32-30.63s11.28-30.58,28.32-30.58S755,103.6,755,120.82,743.51,151.46,726.66,151.46ZM668.18,89.86V73h-76.6V92.13H641l-50.17,59.94v16.61h78.49V149.57H618.2ZM553.4,85.8a38.24,38.24,0,0,0-30.63-14.73c-26.24,0-46.16,22.37-46.16,49.75s19.92,49.79,46.16,49.79a38.24,38.24,0,0,0,30.63-14.73v12.79h21V73h-21Zm-26.81,65.65c-16.85,0-28.32-13.45-28.32-30.63s11.28-30.58,28.32-30.58h0c17,0,28.32,13.36,28.32,30.58S543.44,151.46,526.59,151.46Zm-95-112.94H409.06l.09,130h61.36V147.07H431.62Z" style="fill:#0f146d"/><path id="path69-2" data-name="path69" d="M162.8,263a13,13,0,0,1-6.52-1.69c-17-9.84-142.94-88.8-147.69-91.21A11.4,11.4,0,0,1,2.08,161V50.22A12,12,0,0,1,7.48,39.92l.91-.52c12.18-7.56,53-32.44,59.42-36A9.77,9.77,0,0,1,72.7,2a10.16,10.16,0,0,1,4.63,1.17s57.07,37.2,65.8,40.52a45,45,0,0,0,19.55,4.1,43.78,43.78,0,0,0,21.89-5.34C193.1,38,247.63,3.37,248.21,3.37a8.6,8.6,0,0,1,4.56-1.24,9.58,9.58,0,0,1,4.89,1.37c7.43,4.1,58,35.05,60.13,36.42a11.73,11.73,0,0,1,5.67,10.16V160.84a11.27,11.27,0,0,1-6.51,9.12c-4.76,2.61-130.3,81.57-147.63,91.21A13,13,0,0,1,162.8,263" style="fill:url(#linear-gradient)"/><path id="path77-2" data-name="path77" d="M162.15,263h.65a13,13,0,0,0,6.51-1.69c17-9.84,142.87-88.8,147.63-91.21a11.27,11.27,0,0,0,6.51-9.12V50.22a11.85,11.85,0,0,0-1.24-5.41L162.15,132.7V263" style="fill:url(#linear-gradient-2)"/><path id="path968-2" data-name="path968" d="M161.59,261.43h-.64a12.89,12.89,0,0,1-6.45-1.68C137.68,250,13.15,171.9,8.45,169.52a11.15,11.15,0,0,1-6.45-9V50.92a11.72,11.72,0,0,1,1.22-5.35l158.37,87V261.43" style="fill:url(#linear-gradient-3)"/></svg>