<svg id="svg-linkaja" xmlns="http://www.w3.org/2000/svg" viewBox="0 0 1000 1000"><title>linkaja</title><path d="M38,938.42C19.16,928.62,4.33,920,5,919.33c2.41-2.41,92.48-21.63,155.38-33.15,136.11-24.95,297.93-44.92,459.11-56.66,66.38-4.83,306.53-5,348.18-.23L995,832.41l-30.78.48c-54.64.85-180,9.62-278.14,19.46-185.84,18.64-392.46,53-541.92,90.12C113.63,950,85,956.25,80.43,956.25S56.81,948.23,38,938.42ZM297.81,751.36c-2.79-7.72,8.89-11.17,14-13.36,22.88-9.81,39-25.8,44.37-44.06,2.58-8.74,10.43-58.13,17.45-109.76s13.33-91.56,14-93.91c.51-1.73,1.89-7.89,9.3-8.56,18.9-.18,32.94.06,52.32.06,10.7-1,8.6,10.68,7.76,18.18-.84,9.48-3.39,27.77-6.36,50.09l-12,90.41c-6.73,50.58-10.46,66.15-22.1,92.21-13.85,31-35,49-73.39,61.83-7.75,2.43-30,10-32.4,3.27-5-16.08-8.58-30.06-12.92-46.41Zm440.69-17c-25.57-10.32-24.37-50.19,2.46-66.55,17-10.35,40.83-8.59,53.09,3.67C824.25,701.72,779.83,751.08,738.5,734.4ZM545.21,710.58C470,697.74,470.52,608.1,487.37,556.87c21.09-59.3,72.49-76.52,114.74-78,35.65-1.22,85.07,5.41,97.48,13.08,3.43,2.12,1.81,22.67-7.76,98.88-6.64,52.91-13.91,98.41-16.15,101.1-11.9,14.34-91.66,25.77-130.47,18.68Zm65.59-70.95c8.07-30,11.48-57.14,17.25-88.82-.72-10.92-19.15-11-23.83-11-24.41,0-38.83,13.7-46.47,44.17-10.48,41.78.46,65.06,30.59,65.06C597.85,648.15,607.79,648.68,610.8,639.64ZM61.29,686.39c20.55-50.21,103.1-230,122.91-267.21,3.74-9.28,13.61-11.11,20.36-11.76,19.42-.89,36.2-.65,53.25-.53,17.57.15,17.83,6.32,20.09,19.38,2.76,13,37,217.65,44.79,266.77,1,8.16,3,10.7-7.63,10.71-14.71,0-50.13,2-62.14,1A7.77,7.77,0,0,1,246,699a233.75,233.75,0,0,1-3.18-23.74l-2.19-24.47H152.4l-9.64,23.53c-3.43,8.37-7.18,16.63-10,22.1-2,5-4.87,7.34-9.24,8.29-10.8-.09-49.06,1.33-63.45.06-7.11-3.27-.68-13.76,1.19-18.33ZM232.84,582.6c-1.25-13.22-9.69-81.41-11.67-91.48-.52-1.08-.77-.73-1.3-.09-5.21,7.82-33.4,77-38.21,93.1-.58,2.22.86,3,3,2.85,7.15-.49,36.38-1,45.28-1.37,2.53-.19,2.78-1.08,2.94-3Zm509.05,33.15c1.14-8.92,3.64-33.11,5.55-53.76s5-52.91,6.81-71.68c1.39-14.25,2.61-28.08,3.14-35.35,1.07-6.52,9-7.29,14.14-7.34,17.28.18,33.55-.84,49.08.59,7.35.75,10.42,2.37,10.44,6.74-7,35.94-32.18,160-34.12,167.64-1.67,6.62-2.35,8.57-12.46,9.15-12.38-.2-22.71.45-35.27.38-7.2-.09-9.13-2.21-7.32-16.36ZM393.26,431.51c0-21.91,14.1-38.61,31.75-45.63,15.26-5.35,32.35-5.32,41.45,5.07,16.15,18.78,5.55,46.52-13.32,61C429,468.56,393.66,458.73,393.26,431.51Zm433.13-46.17c-5.28-11.73-22.22-48.75-37.64-82.26S761.52,240,762.52,237.43s18.19-23.95,38.2-47.45l32.57-38.26c2.13-2.57,4.58-5.73,7.53-5.77,19.63.1,40,1.27,58.71,1.09,14-.12,21-1,10.63,9.48-6.63,8.21-19.69,23.23-34.63,39.71C853.94,220,836.27,240.18,836.27,241s16.19,36.35,36,79c15.55,33.54,28.39,63.55,32.72,76.08,1.85,4.25.22,7.9-3.73,8.89-5.24,1.22-14.66,1.7-30.87,1.7H846.09c-5.93.62-10.29-.42-12.58-5.5Zm-726.61-25C77.93,349.48,67.6,335.7,65.72,314.93,64.59,302.48,85,135.15,94,81.95c2.2-12.49,3.16-13.21,15.14-13.21h23.57c12.38,0,23.65-.21,30.74.2,9.69.14,7.92,6.24,7.18,13.55-1.67,16.32-6.85,51.66-13.37,97.17-11.56,80.75-14.5,109.24-11.73,113.63,3.23,5.13,11.45,6,65.89,6.79l48.69.73c11.6-.65,14,2.2,12.85,12.61-2.84,17.24-4.4,31-7.22,46.41-1.94,9.64-8.16,7.12-17.85,7.71l-56.92.79c-73,.91-73.38.88-91.15-8Zm561.47,6.2c-.74-1.41,1.3-21,4.53-43.52s10-70.92,15-107.52C695,111.59,699.64,80.27,701.62,68.29c2.09-14,2.1-13.21,15.8-13.21h21.72c8.48,0,15.09-.11,20.2.06,19.51.63,17-1,12.1,29.16-1.86,11.42-8.06,61.67-13.77,103.91-14.38,106.37-23.82,171.6-25.55,176.65C730.51,369.59,663.67,371.2,661.25,366.57Zm-371.13-8.09c9.06-76,17.71-133.5,27.78-204.24.75-8.47,9.08-9.45,18.8-9.46,11.06,0,22.31-.16,32.84.19,20.4.07,25.77,2.8,23.65,16.45-9,66.41-20.21,125.68-31.94,193.2-2.19,11.43-4.87,11.09-15.8,11.09-12.72,0-35.29.47-46.82.15-6.75-1.19-8.28-2-8.51-7.39Zm144-170.18c5.6-29.4,9.48-34,17.61-39.31,10-6.57,84.16-13.42,109.75-10.14q5.36.77,10.21,1.93c75,17.81,63.32,102.7,58.44,141.76C625,319.83,620,353.81,618.94,358c-1.79,7.35-3.38,7.68-37.34,7.68a228.13,228.13,0,0,1-23.86-1c-10.49-.68-11.46-3-10.41-10.67,3.82-31.17,9-58.05,12.82-87.17,5.17-39.74,3.79-79-45.51-70.53-8.45,2.14-10.76,2.82-11.93,11.25-6.15,39.25-11.56,79.79-17.18,118.19-1.24,9.16-3,18.74-4.73,27.23-.46,2.16-.71,4.09-1.1,5.53-.5,1.69-1.67,3.46-2.79,1.71-7.92-14.43-45.2-12-60.75-1.43-7.8,5.42-9.41,8.34-6.22-8.2q.84-5.26,1.64-10.51c7.72-50.65,12.92-100.47,22.56-151.81Zm-106.43-87c-8.33-28.4,16.47-56.47,44.23-57.45,37.62-2.51,48,49.24,9.52,72.7C359.16,126.75,335.73,124.58,327.7,101.29Z" style="fill:#ea232a"/></svg>