<svg id="svg-metrica" xmlns="http://www.w3.org/2000/svg" viewBox="0 0 1000 190"><title>metrica</title><path d="M135.22,161.88c-3.19,5-9.33,9.1-15.47,9.1-9.1,0-13.42-8.65-13.42-21.85,0-14.78,4.78-24.57,26.84-24.57h2.05Zm17.51-3.42V104.54c0-27.75-11.14-36.4-31.39-36.4-11.6,0-22.07,4.78-27.3,9.1l3.42,15.7c5.91-5.24,13.65-10,22.75-10,10,0,15,6.37,15,21.39v6.82h-2.5c-32.08,0-44.59,15.47-44.59,40,0,22.52,11.15,34.81,27.53,34.81,10,0,16.38-4.32,21.39-10.69h1.13a54.28,54.28,0,0,0,1.59,9.1h15a165,165,0,0,1-2-25.94Zm39.82-63c4.09-5.69,10.47-11.38,18-11.38,6.82,0,10.69,3,10.69,11.61V184.4h18V94.08c0-17.51-8-25.94-23-25.94-10.69,0-19.33,7.05-22.52,11.38h-1.14v-10H174.81V184.4h17.74v-89Zm99,90.54c9.33,0,15.7-4.32,20.71-10.69h1.13l1.36,9.1h13.2V21.73H310.17V72.47c-3.41-2.51-9.1-4.33-14.56-4.33-23,0-38.9,20.71-38.9,63.25C256.71,166.88,269,186,291.52,186Zm18.66-23.89c-3,4.55-7.74,8.88-16.61,8.88-13,0-18-16.38-18-43.23,0-23.43,6.82-45,21.16-45a17.34,17.34,0,0,1,13.42,5.45V162.1Zm101.24,14.57L407.33,163c-4.56,3.19-11.84,7.74-21.85,7.74-14.1,0-21.39-13.65-21.39-39.59h47.78v-9.78c0-38.9-12.51-53.24-31.62-53.24-24.34,0-34.59,26.84-34.59,63.7,0,35.27,14.57,54.15,38.22,54.15A43.17,43.17,0,0,0,411.42,176.67Zm-31.17-94c10.23,0,13.42,14.33,13.42,33.9H364.31C365.46,96.12,369.32,82.7,380.25,82.7Zm91.46-13L456,111.37,441.22,69.74H422.78L444.39,125,420.52,184.4H438l17.3-47.32,17.74,47.32H491.5l-23.88-61L489,69.74H471.7Z"/><path d="M58.88,184.4V126.84L101.19,4.9h-18l-33,97.37L21.56,21.73H2L40.9,126.15V184.4Z" style="fill:red"/><path d="M647.23,128.3q.45,23.67,6.6,36.06t18.65,12.4a25.66,25.66,0,0,0,10-1.82,28,28,0,0,0,7.28-4.32,25.24,25.24,0,0,0,5.91-6.14l3.42,8.65a27.31,27.31,0,0,1-6.6,6.6,36.37,36.37,0,0,1-8.41,4.44,32.75,32.75,0,0,1-11.83,1.94q-18.19,0-26.84-15.7t-8.65-43.91a114,114,0,0,1,2.5-25.14,67.53,67.53,0,0,1,6.94-18.77,33.26,33.26,0,0,1,10.58-11.71,24.9,24.9,0,0,1,26.84-.11,28.75,28.75,0,0,1,9.78,11.6,62.11,62.11,0,0,1,5.46,19.23,119.22,119.22,0,0,1,.23,26.73H647.23ZM654.62,87q-6.48,11.26-7.16,32.87h41.63q1.37-23-4.44-33.55T670.21,75.75q-9.1,0-15.59,11.27Zm98.63,95.44a16.21,16.21,0,0,1-4.32,1.82,23.68,23.68,0,0,1-6.14.68q-10.23,0-15.13-6.71t-4.89-17.4V77.57H711.16V69.16h11.61l1.13-22.75h9.56V69.16H753v8.42H733.46V159.7q0,8.64,2.61,12.52a8.84,8.84,0,0,0,7.85,3.87,13.38,13.38,0,0,0,4.21-.57c1.14-.37,2.08-.72,2.84-1l2.28,8ZM811.12,79.62q-19.33.68-27.3,24.57v79.63H773.13V69.16h9.78l.45,23h.69a42.78,42.78,0,0,1,3.75-8.18,34.08,34.08,0,0,1,5.8-7.4,30.29,30.29,0,0,1,7.85-5.45,27.27,27.27,0,0,1,9.67-2.62Zm15.62-35a7.08,7.08,0,0,1-2.05-5.23,7.56,7.56,0,0,1,2.05-5.23A6.72,6.72,0,0,1,832,31.84a6.85,6.85,0,0,1,5.12,2.28,7.39,7.39,0,0,1,2.16,5.24,6.89,6.89,0,0,1-2.16,5.22,7.19,7.19,0,0,1-5.12,2,7.08,7.08,0,0,1-5.24-2ZM837.2,69.16V183.83H826.51V69.16H837.2ZM904.43,175a28.69,28.69,0,0,0,7.17-4.32,25.37,25.37,0,0,0,5.91-6.14l3.41,8.87a25.42,25.42,0,0,1-6.37,6.37,31.4,31.4,0,0,1-8.3,4.44,33,33,0,0,1-11.72,1.94q-17.29,0-26.73-15.59t-9.44-43.79q0-28.44,9.33-44.14t27.07-15.7a33.27,33.27,0,0,1,15,3.07,31.23,31.23,0,0,1,10,7.62l-3,11.38a40.91,40.91,0,0,0-9.33-9.1A21.44,21.44,0,0,0,894.76,76q-13.2,0-19.45,13.21t-6.26,37.54q0,23.66,6.14,36.85t19.56,13.2A24.17,24.17,0,0,0,904.43,175Zm69.85-4.09A48.68,48.68,0,0,0,983,154.93V123.31H970.75q-14.34,0-21.16,6.83T942.77,152q0,12.27,4.89,18.88a15.46,15.46,0,0,0,13.08,6.6q8,0,13.54-6.6Zm11.94,13q-.83-2.88-1.48-5.81a69.37,69.37,0,0,1-1.25-9.67,37.09,37.09,0,0,1-10.24,13,25,25,0,0,1-33.67-4q-7.29-8.76-7.28-24.47,0-18.42,9.78-27.87t28.44-9.44H983V101.24q0-13.19-4.77-19.11t-14.33-5.92a29.28,29.28,0,0,0-13.65,3.3,28.47,28.47,0,0,0-10.47,9.22l-3-10.24q3.41-4.54,10.36-8.07t16.72-3.52q14.33,0,22,8.07t7.62,25.14v62.56a105.15,105.15,0,0,0,.68,11.95,43.63,43.63,0,0,0,1.82,9.22h-9.78ZM545.15,69.13c-2.28-8.41-4.09-15.7-5.45-23.2H539c.45,7.73.68,15.92.68,24.11V184h-10V21.36h13.19L570.4,125.31a159.18,159.18,0,0,1,3.41,18.88h.68c.91-6.14,2.73-14.78,3.87-18.88L606.11,21.36h12.74V184H607.93V70c0-7.74.46-15.92.91-24.11h-.91q-2.5,11.31-5.45,22.51L578.14,159h-8.88Z"/></svg>