<svg id="svg-patreon" xmlns="http://www.w3.org/2000/svg" viewBox="0 0 1000 180"><title>patreon</title><path d="M324.49,41.61H285.05v94.23h21.81V109.73h17.63c20.87,0,34.33-15.75,34.33-34.05S345.36,41.61,324.49,41.61ZM321.8,92H306.86V59.38H321.8c9.15,0,15.08,7.54,15.08,16.29S331,92,321.8,92Zm90.06-50.35-33.66,94.23H401.5l3.64-11.44h33.52l3.63,11.44H466L431.92,41.61Zm-1.48,65.7L422,68.53l11.31,38.77Zm71-46.85H502.6v75.39H524.4V60.46h21.41V41.61H481.33ZM653.64,75.67c0-18.31-13.46-34.06-34.33-34.06H579.73v94.23h21.81V109.73h10.23l16.7,26.12h25.31l-18.85-29.75C646.64,100.57,653.64,88.86,653.64,75.67ZM616.48,92H601.54V59.38h14.94c9.15,0,15.08,7.54,15.08,16.29S625.64,92,616.48,92Zm74.18,43.89h57.48v-17.5H712.47V97.61h35.67V80.51H712.47V59.11h35.67V41.61H690.66ZM833.5,39.19c-31.37,0-49.95,23.69-49.95,49.54s18.58,49.54,49.95,49.54,49.81-23.69,49.81-49.54S864.72,39.19,833.5,39.19Zm0,79.43c-17.23,0-27.6-14.4-27.6-29.89s10.37-29.89,27.6-29.89,27.6,14.4,27.6,29.89S850.59,118.61,833.5,118.61Zm142.83-77V103L942.26,41.61H919.51v94.23h21.81V75.26l33.93,60.58H998V41.61ZM2,178.45h32.4V1.71H2Z" style="fill:#052d49"/><circle cx="120.07" cy="67.96" r="66.26" style="fill:#f86753"/></svg>