<svg id="svg-paypal" xmlns="http://www.w3.org/2000/svg" viewBox="0 0 1000 250"><title>paypal</title><path d="M374.22,58.38H319.1a7.66,7.66,0,0,0-7.57,6.46L289.24,206.17a4.59,4.59,0,0,0,4.55,5.3H320.1a7.66,7.66,0,0,0,7.57-6.47l6-38.12a7.66,7.66,0,0,1,7.56-6.47h17.45c36.31,0,57.26-17.57,62.73-52.38,2.47-15.23.1-27.2-7-35.58C406.56,63.24,392.66,58.38,374.22,58.38ZM380.57,110c-3,19.78-18.13,19.78-32.74,19.78h-8.32l5.83-36.94A4.59,4.59,0,0,1,349.89,89h3.81c10,0,19.34,0,24.19,5.67C380.79,98,381.68,103,380.57,110ZM539,109.36H512.57a4.59,4.59,0,0,0-4.54,3.88l-1.17,7.38L505,117.94c-5.71-8.29-18.46-11.07-31.17-11.07-29.17,0-54.08,22.09-58.93,53.08-2.52,15.46,1.06,30.24,9.83,40.55,8,9.48,19.55,13.43,33.24,13.43a50.5,50.5,0,0,0,36.53-15.11l-1.18,7.33a4.59,4.59,0,0,0,4.53,5.32h23.77a7.66,7.66,0,0,0,7.57-6.47l14.26-90.34a4.58,4.58,0,0,0-4.52-5.3Zm-36.79,51.37c-2.55,15.08-14.51,25.2-29.78,25.2-7.66,0-13.79-2.46-17.72-7.12s-5.38-11.21-4.14-18.54a29.54,29.54,0,0,1,29.58-25.4c7.5,0,13.59,2.49,17.6,7.19S503.33,153.43,502.18,160.73Zm177.36-51.37H653a7.69,7.69,0,0,0-6.34,3.36L610.09,166.6l-15.51-51.78a7.68,7.68,0,0,0-7.35-5.46H561.17a4.59,4.59,0,0,0-4.36,6.08L586,201.17l-27.47,38.77a4.59,4.59,0,0,0,3.75,7.25H588.8a7.65,7.65,0,0,0,6.29-3.29l88.22-127.33a4.59,4.59,0,0,0-3.77-7.21Z" style="fill:#253b80"/><path d="M767.35,58.38H712.22a7.66,7.66,0,0,0-7.56,6.46L682.37,206.17a4.59,4.59,0,0,0,4.53,5.3h28.29a5.36,5.36,0,0,0,5.29-4.53l6.33-40.06a7.66,7.66,0,0,1,7.56-6.47H751.8c36.31,0,57.26-17.57,62.74-52.38,2.47-15.23.1-27.2-7-35.58C799.68,63.24,785.8,58.38,767.35,58.38ZM773.71,110c-3,19.78-18.12,19.78-32.74,19.78h-8.31l5.84-36.94A4.58,4.58,0,0,1,743,89h3.81c9.95,0,19.34,0,24.19,5.67C773.93,98,774.81,103,773.71,110Zm158.39-.64H905.72a4.57,4.57,0,0,0-4.53,3.88L900,120.62l-1.85-2.68c-5.71-8.29-18.45-11.07-31.16-11.07-29.17,0-54.07,22.09-58.92,53.08-2.51,15.46,1.06,30.24,9.82,40.55,8.06,9.48,19.55,13.43,33.24,13.43a50.5,50.5,0,0,0,36.53-15.11l-1.18,7.33a4.59,4.59,0,0,0,4.55,5.32h23.77a7.66,7.66,0,0,0,7.56-6.47l14.27-90.34a4.6,4.6,0,0,0-4.55-5.3ZM895.3,160.73c-2.53,15.08-14.51,25.2-29.78,25.2-7.65,0-13.79-2.46-17.72-7.12s-5.37-11.21-4.14-18.54c2.39-14.95,14.55-25.4,29.58-25.4,7.5,0,13.59,2.49,17.6,7.19S896.47,153.43,895.3,160.73Zm67.91-98.47L940.59,206.17a4.59,4.59,0,0,0,4.53,5.3h22.74a7.65,7.65,0,0,0,7.57-6.47L997.74,63.68a4.59,4.59,0,0,0-4.53-5.31H967.74A4.6,4.6,0,0,0,963.21,62.25Z" style="fill:#179bd7"/><path d="M77,139.07H99.13c43.56,0,77.67-17.68,87.64-68.87q.44-2.27.77-4.43c3-18.91,0-31.79-10.24-43.46C166,9.48,145.67,4,119.63,4H44a10.8,10.8,0,0,0-10.68,9.13L1.87,212.7a6.5,6.5,0,0,0,6.41,7.51H55l11.36-72A10.77,10.77,0,0,1,77,139.07Z" style="fill:#253b80"/><path d="M198.31,74.07a37.61,37.61,0,0,0-10.77-8.3q-.34,2.16-.77,4.43c-10,51.18-44.08,68.87-87.64,68.87H77a10.77,10.77,0,0,0-10.65,9.12L55,220.21l-3.22,20.41a5.67,5.67,0,0,0,5.6,6.56H96.67a9.47,9.47,0,0,0,9.35-8l.39-2,7.41-47,.48-2.58a9.46,9.46,0,0,1,9.35-8h5.88c38.11,0,67.95-15.47,76.67-60.25C209.83,100.68,207.95,85.06,198.31,74.07Z" style="fill:#179bd7"/><path d="M177.11,61.62a78.63,78.63,0,0,0-9.7-2.15A123.18,123.18,0,0,0,147.87,58H88.61a9.45,9.45,0,0,0-9.34,8l-12.6,79.83-.36,2.33A10.77,10.77,0,0,1,77,139.07H99.13c43.56,0,77.67-17.69,87.64-68.87.3-1.52.55-3,.77-4.43a53.14,53.14,0,0,0-8.2-3.46Q178.23,61.95,177.11,61.62Z" style="fill:#222d65"/></svg>