<svg id="svg-shopee" xmlns="http://www.w3.org/2000/svg" viewBox="0 0 1000 335"><title>shopee</title><path d="M270.55,90.83H203.42c-7.56-67.27-39.76-89.56-65.57-88.39C108.9,3.88,79.7,34.65,78.53,90.83H11.39A9.35,9.35,0,0,0,2,100.22L14.52,289.64c0,5.21,13.95,29.07,36,28.94H232.75c31.94-5,36-31.68,36-36.89L280.2,100.22A9.66,9.66,0,0,0,270.55,90.83ZM138.75,18.09c18.64-.91,42.37,17.6,48.89,72.74H94.3C95.34,44.94,117.77,19.13,138.75,18.09Zm18.9,260.34c-21.77,4.17-49.8-3.13-65.05-19.42-6.91-7.43,4.17-18.51,11.08-11.08C114,259,132.24,264.09,147.1,263.7c19-.39,35.85-17.73,25.16-37C157.4,200,120.5,207.51,101.6,186.52c-15.25-16.95-8.08-43.54,9.91-55.41,18.77-12.25,51.1-11.86,66.49,5.87,6.65,7.56-4.43,18.77-11.08,11.08-12.38-14.21-41.85-12.25-53.06,2.35-15.9,21,8,32.2,24.64,37.28,22.94,6.91,48.37,19.69,52.54,45.89C194.42,254.83,178,274.52,157.66,278.43Z" style="fill:#f2705b"/><path d="M408,190.43c-16.69-5-40.54-16.17-24.64-36.89,11.21-14.6,40.54-16.43,53.06-2.35,6.65,7.69,17.73-3.39,11.08-11-15.38-17.47-47.71-18-66.49-5.74-18,11.73-25.16,38.07-9.91,54.88,18.9,20.86,55.67,13.43,70.66,39.89,10.82,19.16-6.13,36.24-25,36.63-14.86.39-33.11-4.82-43.41-15.77-6.91-7.3-18,3.65-11.08,11,15.25,16.17,43.28,23.47,64.92,19.29,20.34-3.91,36.76-23.47,33.37-44.46C456.33,209.86,430.91,197.34,408,190.43Zm136.36,2.74c-11.47-8.08-36-9.65-55.28,3.65v-63c0-10.3-15.64-10.3-15.64,0v140c0,10.3,15.64,10.3,15.64,0V217.94c12.12-15.77,32.33-18,43.54-13,.26.13,9,5,9.52,15.51v53.45c0,10.3,15.64,10.3,15.64,0V219.38C558,200.86,544.19,193,544.32,193.17Zm315-3.78c-19.55-3.65-42.5,6.65-50.84,25-8.73,19-5.08,45.24,12.12,58.53,18.51,14.34,47.32,9.91,66.36-.65,8.86-5,.91-18.51-8-13.56-12,6.78-27.77,10-41.2,5.61-10-3.39-15.77-12.12-17.47-21.77h65.31c4.17-.26,8-3.78,7.82-8.08C893.05,213,882.1,193.69,859.29,189.39Zm-38.46,37.28c.13-.65.26-1.17.39-1.69,3.78-12.78,16.56-20.21,29.59-20.6,15-.39,23.34,9.91,25.94,22.29ZM998,234.37c-.39-21.51-11.34-40.8-34.16-45.11-19.55-3.65-42.5,6.65-50.84,25-8.73,19-5.08,45.24,12.12,58.53,18.51,14.34,47.32,9.91,66.36-.65,8.86-5,.91-18.51-8-13.56-12,6.78-27.77,10-41.2,5.61-10-3.39-15.77-12.12-17.47-21.77h65.31A8.35,8.35,0,0,0,998,234.37Zm-72.61-7.82c.13-.65.26-1.17.39-1.69,3.78-12.78,16.56-20.21,29.59-20.6,15-.39,23.34,9.91,25.94,22.29ZM622.94,188.61a46.67,46.67,0,1,0,46.67,46.67A46.79,46.79,0,0,0,622.94,188.61Zm0,76.53a29.85,29.85,0,1,1,29.85-29.85A29.93,29.93,0,0,1,622.94,265.13ZM738.7,188.61a46.68,46.68,0,0,0-34.81,15.64V193c0-10-15.64-10.17-15.64,0V325c0,10.17,15.64,10.17,15.64,0v-58.8a46.62,46.62,0,1,0,34.81-77.57Zm0,76.53a29.85,29.85,0,0,1-4.82-59.32h.26a25.85,25.85,0,0,1,4.56-.39,29.69,29.69,0,0,1,27.25,17.86v.13a30.19,30.19,0,0,1,2.48,11.86A29.74,29.74,0,0,1,738.7,265.13Z" style="fill:#f2705b"/></svg>