<svg id="svg-tematriq" xmlns="http://www.w3.org/2000/svg" viewBox="0 0 1000 145"><title>tematriq</title><path d="M503.07,34.92A27.56,27.56,0,0,0,482,25.79H413.44q-12.63,0-21.08,8.47t-8.45,21.13v57.7H396V55.34a17.47,17.47,0,0,1,17.47-17.47h27.29V113.1h12.08V37.83h29.23a17.47,17.47,0,0,1,17.39,17.54V113.1h12.08V56.7A31,31,0,0,0,503.07,34.92Zm135.63,3h45V113.1h12.08V37.87h45V25.79h-102Zm-346-4.65a30.1,30.1,0,0,0-8.18,21.36V83a30.08,30.08,0,0,0,8.18,21.36q8.14,8.77,20.81,8.77h56.47V101H313.32a15,15,0,0,1-12-5.71,19.9,19.9,0,0,1-4.75-13.09V76.51h72.81v-12H296.55V55.69a20.35,20.35,0,0,1,4.75-13.28,14.87,14.87,0,0,1,12-5.85h56.62V24.45H313.46Q300.82,24.45,292.65,33.22ZM172.6,37.87h45V113.1h12.07V37.87h45V25.79h-102ZM597.46,24.49H541.12V36.56h56.76a15.28,15.28,0,0,1,10.64,4.08A18.86,18.86,0,0,1,614.31,51H556.25a28.84,28.84,0,0,0-21.08,8.48,28.52,28.52,0,0,0-8.58,21.15q0,14,7.61,22.91,8.17,9.5,21.92,9.5h41.42V101H556.13a16.35,16.35,0,0,1-12.35-5.41,17.89,17.89,0,0,1-5.11-12.67q0-8.57,4.58-14.17t12.91-5.6h58.14v49.93h12.09V54.59a30.14,30.14,0,0,0-8.17-21.33Q610.07,24.49,597.46,24.49Zm393,7.45Q982,23.39,969,23.39H926.41q-13.28,0-21.66,8.45t-8.37,21.71v30a31.08,31.08,0,0,0,8.47,22.1q8.47,9,21.56,9h7.16V102.12H926.3a15.46,15.46,0,0,1-12.57-5.94,20.91,20.91,0,0,1-4.87-13.59v-27a21.17,21.17,0,0,1,4.87-13.78,15.46,15.46,0,0,1,12.57-5.94h42.75a15.47,15.47,0,0,1,12.58,6,21.16,21.16,0,0,1,4.87,13.78v27a20.9,20.9,0,0,1-4.87,13.59,15.46,15.46,0,0,1-12.57,5.94H960v12.51h9.75q12.89,0,21.08-9.12a31.8,31.8,0,0,0,8.18-22v-30Q999,40.48,990.51,31.93ZM940.4,121.61h12.76V75.72H940.4ZM839.19,78.74q8.53-8.18,8.53-21.18,0-14.11-7.22-22.65-7.62-9.29-21.36-9.29h-40a27.45,27.45,0,0,0-21.08,9.19,31.19,31.19,0,0,0-8.45,21.82v56.09h12.08V55.14s0,0,0,0a17.44,17.44,0,0,1,17.46-17.42h37.68q8.54,0,13.65,4.53t5.11,13q0,19.59-19.49,19.59H773.23v11L833,112.74h11.72l.19-9.11-37.6-16.94q8.9.22,10.2.22Q830.67,86.92,839.19,78.74Zm28.45,34.36h12.08V24.3H867.64ZM26,103.89a29.3,29.3,0,0,1-6.79-19.06V70.13H1.67v16q0,18.32,11.89,31t30.26,12.66H56.07V112.21H43.67A21.7,21.7,0,0,1,26,103.89Zm0-76.22a21.71,21.71,0,0,1,17.65-8.32h60a21.71,21.71,0,0,1,17.65,8.32,30,30,0,0,1,4.58,7.65h19a39.79,39.79,0,0,0-11.14-21.53q-11.89-12-30.26-12H43.82q-18.64,0-30.39,11.85a39.51,39.51,0,0,0-11,21.66H21.45A30,30,0,0,1,26,27.67ZM145.67,43.06H1.68V60.67h62.8V143.2H82.87V60.67h62.8ZM128.11,84.84a29.3,29.3,0,0,1-6.79,19.06,21.71,21.71,0,0,1-17.65,8.32H90.88v17.55h13.73q18.1,0,29.58-12.79t11.48-30.85v-16H128.11Z" style="fill:#0676bb;fill-rule:evenodd"/></svg>