<svg id="svg-tokopedia" xmlns="http://www.w3.org/2000/svg" viewBox="0 0 1000 220"><title>tokopedia</title><path d="M491.77,51.61c-36.26,0-57.36,27.86-57.36,62.37v81.32a21.85,21.85,0,0,0,21.84,21.84h1.65V117.7c0-14.43,3.43-25.34,10.07-33,6.2-7,14.12-10.56,23.91-10.56,21.89,0,35.38,15.51,35.38,36.88s-13,36.41-34.92,36.41c-10.5,0-21.13-5.47-29.6-11.21v25.18c10.53,6.11,20.84,8.59,33,8.59q22.5,0,38.77-16.51t16.26-39.92c0-17.52-5.14-32.09-15.51-43.57C524.21,57.72,509.67,51.61,491.77,51.61Zm448.64,0c-17.71,0-32.16,5.63-43.2,17C886.83,79.3,881.67,93,881.67,109.65,881.67,142,904,170,937.78,170a46.77,46.77,0,0,0,18.08-3.15c4.8-2,9.5-5.3,13.59-8.36V129c-8,10.23-15.55,18.45-29.6,18.45-20.23,0-34.69-16.46-34.69-36.19,0-20.49,13.64-37.11,34.9-37.11,9.62,0,17.55,2.54,23.89,7.54,7.05,5.56,10.55,12.89,10.55,22.15v42a21.84,21.84,0,0,0,21.84,21.84H998v-62C998,70.88,974,51.61,940.41,51.61ZM833.1,145.86a21.84,21.84,0,0,0,21.84,21.84h1.65V53.92H833.1ZM844.83,16.79c-8.16,0-13.82,5.53-13.82,13.72,0,8,5.77,13.95,13.82,13.95,4.32,0,7.85-1.27,10.32-4a14.38,14.38,0,0,0,3.52-9.91A13.45,13.45,0,0,0,844.83,16.79Zm-63.4,7.91v79.14c0,14.47-3.32,25.24-9.72,32.57a30.79,30.79,0,0,1-24.26,11c-21.58,0-35.37-15.8-35.37-36.88,0-21.35,13-36.42,34.92-36.42,10.49,0,21.12,5.47,29.6,11.21V59.94a65.9,65.9,0,0,0-33.07-8.33c-31.21,0-54.94,25.68-54.94,56.42,0,17.37,5.15,31.94,15.51,43.57,11,12.29,25.48,18.42,43.23,18.42,16.83,0,30.7-5.77,41.49-17.34s16.1-26.68,16.1-45.12V2.86h-1.64A21.85,21.85,0,0,0,781.43,24.71ZM648.69,59a57.65,57.65,0,0,0-44.57-5.64c-31.32,8.4-50.8,43.05-41.3,74.15a58,58,0,0,0,28.1,34.84q21.54,12,44.09,7.29c15.85-3.38,26.57-11.71,34.44-25.78l-19.29-14.05c-5.9,6.79-13.14,14.08-22.07,16.88-8.05,2.5-16.73,1.24-26.16-4S586,129.13,584.62,118.46l94.64.19C680.76,92.47,672.19,72.15,648.69,59ZM588,97.11c9.32-20.08,29.36-29.77,49.7-18.39C646.25,83.5,650,88,652.94,97.2ZM131,51.61c-33.46,0-59,25.79-59,59.21,0,17.13,5.81,31.34,17.46,42.5A58,58,0,0,0,131,170a58.27,58.27,0,0,0,41.76-16.71c11.64-11.16,17.45-25.38,17.45-42.5s-5.85-31.15-17.57-42.39A58.17,58.17,0,0,0,131,51.61Zm0,95.85c-21.31,0-34.56-16-34.56-36.65,0-20.89,12.93-36.65,34.56-36.65,10.1,0,18.33,3.4,24.8,10.18s9.76,15.54,9.76,26.47C165.6,131.41,152.35,147.46,131,147.46ZM25.49,25.61H23.84A21.84,21.84,0,0,0,2,47.45v82.8c0,21.82,11.41,37.45,34.37,37.45H65.18V145.14H38.93c-9.15,0-13.44-2.69-13.44-12.28V76.49H65.18V53.92H25.49Zm336.63,26c-33.46,0-59,25.79-59,59.21,0,17.13,5.8,31.34,17.44,42.5a60.25,60.25,0,0,0,83.29,0c11.64-11.16,17.46-25.38,17.46-42.5s-5.85-31.15-17.57-42.39A58.18,58.18,0,0,0,362.12,51.61Zm0,95.85c-21.31,0-34.56-16-34.56-36.65,0-20.89,12.94-36.65,34.56-36.65,10.1,0,18.33,3.4,24.81,10.18s9.75,15.54,9.75,26.47C396.67,131.41,383.44,147.46,362.12,147.46ZM274.62,93.73q2.82-3.75,8-12.43l16-27.4-26.77,0-19.74,33.3c-2.87,4.94-7.89,7.54-15.52,7.54H229.6V2.86H228a21.85,21.85,0,0,0-21.85,21.84V145.86A21.84,21.84,0,0,0,228,167.7h1.65V117.56h21.33c11.56,0,16.45,7.41,16.45,18.31v10a21.84,21.84,0,0,0,21.84,21.84h1.65V133.56c0-16.85-6.08-28.16-22.41-33.44A32.26,32.26,0,0,0,274.62,93.73Z" style="fill:#42b549"/></svg>