<svg id="svg-triv" xmlns="http://www.w3.org/2000/svg" viewBox="0 0 1000 330"><title>triv</title><path d="M135,15.74c-71,0-130.84,62-130.84,133,0,14.26,2.46,35.34,16.91,56.08C45.58,240,135,328,135,328s22.29-21.75,47.6-47.93L94.37,195.38a63,63,0,0,1-5.42-5.21l-.09-.09h0a62.67,62.67,0,1,1,92.28,0h0l-.08.08a63,63,0,0,1-4.82,4.69l-16,15.5,46.57,44.14c17.61-19,33.74-37.46,41.91-49.64a100.42,100.42,0,0,0,17.07-56.07C265.84,77.74,206,15.74,135,15.74ZM464.12,256.9c0,.24.64,4.21-1.65,6.78-3.13,3.5-9.53,4.4-21.44,3.67-26.34-1.62-36.65-27.3-36.65-35.31V129h83.19V93.81H404.38V22H369.2V93.81H314.59V129H369.2l.34,105.83c.34,8.22,2.27,19,11.88,32.66,10.34,14.74,26,32.22,60.24,33.84q2.68.13,5.24.13c19.08,0,32.45-4.16,42-14.56s10.32-21.78,10.28-30.08C499.14,256.81,464.14,257.31,464.12,256.9ZM653,94.54c-3.83-.5-36.57-2.93-85.18,27.23v-28H531.55v210h36.28V164.75c47.31-38.81,85.07-36.29,85.35-36.27l-.33,0ZM705.09,2a25.84,25.84,0,1,0,25.84,25.84A25.84,25.84,0,0,0,705.09,2ZM686.95,303.81h36.28V94.28H686.95ZM952,93.24,875.51,254.37,801.23,93.24l-41.64,0L860.92,303.81H892.3L995.84,93.27Z" style="fill:#318ac6"/></svg>