<svg id="svg-ytsubsblack" xmlns="http://www.w3.org/2000/svg" viewBox="0 0 1000 220"><title>youtubesubscribe_black</title><path d="M17.64,177.62a35.19,35.19,0,0,0,24.84,24.84c21.91,5.87,109.77,5.87,109.77,5.87s87.86,0,109.77-5.87a35.19,35.19,0,0,0,24.84-24.84c5.87-21.91,5.87-67.62,5.87-67.62s0-45.71-5.87-67.62A35.19,35.19,0,0,0,262,17.54c-21.91-5.87-109.77-5.87-109.77-5.87s-87.86,0-109.77,5.87A35.19,35.19,0,0,0,17.64,42.38" style="fill:red"/><polygon points="124.15 152.14 197.14 110 124.15 67.86 124.15 152.14" style="fill:#fff"/><path d="M376.85,156.05a35.62,35.62,0,0,1-10.58-1.56A30.51,30.51,0,0,1,357,149.8a32.41,32.41,0,0,1-7.34-7.64,36.94,36.94,0,0,1-4.93-10.52l15.27-6a23.3,23.3,0,0,0,5.89,10.76A14.84,14.84,0,0,0,377,140.66a17.8,17.8,0,0,0,4.87-.66,14.39,14.39,0,0,0,4.21-1.92,9.33,9.33,0,0,0,2.95-3.19,8.92,8.92,0,0,0,1.08-4.45,10.71,10.71,0,0,0-.84-4.33,10.14,10.14,0,0,0-2.83-3.61,25.16,25.16,0,0,0-5.17-3.25,78.86,78.86,0,0,0-7.88-3.25l-5.29-1.92a40.34,40.34,0,0,1-7-3.25,30.79,30.79,0,0,1-6.43-4.93,24.28,24.28,0,0,1-4.75-6.79A20.25,20.25,0,0,1,348,90.28a22.65,22.65,0,0,1,2-9.44,23.06,23.06,0,0,1,5.65-7.7A26.52,26.52,0,0,1,364.4,68,36.33,36.33,0,0,1,387,67.85a27.72,27.72,0,0,1,8.06,4.45,24.79,24.79,0,0,1,5.35,6,28.75,28.75,0,0,1,3,6.13l-14.31,6a15.25,15.25,0,0,0-4.39-6.49Q381.54,81,376,81a14.84,14.84,0,0,0-8.78,2.47,7.55,7.55,0,0,0-3.49,6.43,8.15,8.15,0,0,0,3.37,6.55q3.37,2.7,10.7,5.23l5.41,1.8a62.07,62.07,0,0,1,9.44,4.15,29.58,29.58,0,0,1,7.34,5.59,22.75,22.75,0,0,1,4.69,7.4,26.12,26.12,0,0,1,1.62,9.56,23.53,23.53,0,0,1-2.71,11.6,24.82,24.82,0,0,1-6.91,8,30,30,0,0,1-9.5,4.69A36.46,36.46,0,0,1,376.85,156.05Z"/><path d="M451.16,156.05a37,37,0,0,1-13.77-2.47,28.36,28.36,0,0,1-10.52-7.15,33,33,0,0,1-6.73-11.36,44.68,44.68,0,0,1-2.41-15.21V68H434v52.79a27.53,27.53,0,0,0,1.08,7.94A17.85,17.85,0,0,0,438.3,135a15,15,0,0,0,5.41,4.15,17.54,17.54,0,0,0,7.46,1.5,17.84,17.84,0,0,0,7.58-1.5,15,15,0,0,0,5.41-4.15,17.82,17.82,0,0,0,3.25-6.25,27.53,27.53,0,0,0,1.08-7.94V68h16.23v51.83a44.17,44.17,0,0,1-2.34,14.73A32.44,32.44,0,0,1,475.63,146a30.54,30.54,0,0,1-10.58,7.4A35,35,0,0,1,451.16,156.05Z"/><path d="M500.1,68h33.67a30.16,30.16,0,0,1,10.34,1.74,26.43,26.43,0,0,1,8.36,4.81,23,23,0,0,1,5.59,7.15A20.82,20.82,0,0,1,556.8,102a21.73,21.73,0,0,1-8.24,7v1a23.41,23.41,0,0,1,10.64,7.52,19.87,19.87,0,0,1,4,12.69,21.64,21.64,0,0,1-2.22,9.92,23,23,0,0,1-6.07,7.52,27.86,27.86,0,0,1-9,4.81,34.92,34.92,0,0,1-11,1.68H500.1Zm32.47,35.11q5.65,0,8.72-3.07a10.16,10.16,0,0,0,.06-14.49q-3-3-8.3-3H516.34v20.56Zm1.8,36.08q6.13,0,9.38-3.07a10.35,10.35,0,0,0,3.25-7.88,10.64,10.64,0,0,0-3.31-8q-3.31-3.18-9.8-3.19H516.34v22.13Z"/><path d="M602.08,156.05a35.62,35.62,0,0,1-10.58-1.56,30.51,30.51,0,0,1-9.26-4.69,32.41,32.41,0,0,1-7.33-7.64A36.89,36.89,0,0,1,570,131.64l15.27-6a23.3,23.3,0,0,0,5.89,10.76,14.84,14.84,0,0,0,11.06,4.27,17.81,17.81,0,0,0,4.87-.66,14.41,14.41,0,0,0,4.21-1.92,9.34,9.34,0,0,0,2.95-3.19,8.93,8.93,0,0,0,1.08-4.45,10.72,10.72,0,0,0-.84-4.33,10.16,10.16,0,0,0-2.83-3.61,25.19,25.19,0,0,0-5.17-3.25,79,79,0,0,0-7.88-3.25l-5.29-1.92a40.36,40.36,0,0,1-7-3.25,30.74,30.74,0,0,1-6.43-4.93,24.28,24.28,0,0,1-4.75-6.79,20.26,20.26,0,0,1-1.86-8.84,22.65,22.65,0,0,1,2-9.44,23.09,23.09,0,0,1,5.65-7.7A26.52,26.52,0,0,1,589.63,68a36.33,36.33,0,0,1,22.61-.12,27.69,27.69,0,0,1,8.06,4.45,24.79,24.79,0,0,1,5.35,6,28.76,28.76,0,0,1,3,6.13l-14.31,6A15.26,15.26,0,0,0,610,83.9Q606.76,81,601.23,81a14.84,14.84,0,0,0-8.78,2.47A7.55,7.55,0,0,0,589,89.92a8.15,8.15,0,0,0,3.37,6.55q3.37,2.7,10.7,5.23l5.41,1.8a62.06,62.06,0,0,1,9.44,4.15,29.58,29.58,0,0,1,7.34,5.59,22.75,22.75,0,0,1,4.69,7.4,26.1,26.1,0,0,1,1.62,9.56,23.53,23.53,0,0,1-2.71,11.6,24.81,24.81,0,0,1-6.91,8,30,30,0,0,1-9.5,4.69A36.46,36.46,0,0,1,602.08,156.05Z"/><path d="M720.16,140.3a42.81,42.81,0,0,1-15,11.72,48,48,0,0,1-37.22.54,43.67,43.67,0,0,1-23.75-23.75,46.85,46.85,0,0,1,0-35.47,43.67,43.67,0,0,1,23.75-23.75,45.32,45.32,0,0,1,17.86-3.49A43.33,43.33,0,0,1,704,69.71a42.39,42.39,0,0,1,14,10.46L706.57,91.24a30.6,30.6,0,0,0-8.84-7.09,25,25,0,0,0-11.84-2.65,30.32,30.32,0,0,0-11.3,2.1,27.35,27.35,0,0,0-9.2,6,28.07,28.07,0,0,0-6.19,9.32,33.75,33.75,0,0,0,0,24.41,28,28,0,0,0,6.19,9.32,27.33,27.33,0,0,0,9.2,6,30.28,30.28,0,0,0,11.3,2.1,27.05,27.05,0,0,0,12.81-2.95,31.51,31.51,0,0,0,9.92-8.36Z"/><path d="M733.15,68h31.39a32.47,32.47,0,0,1,11.78,2,27.23,27.23,0,0,1,9.08,5.65,24.64,24.64,0,0,1,5.83,8.6,28.46,28.46,0,0,1,2,10.88,22.62,22.62,0,0,1-1.44,8.12,24.32,24.32,0,0,1-4,6.85,29.24,29.24,0,0,1-5.89,5.41,29.86,29.86,0,0,1-7.1,3.67l-.12.84,23.09,33.07v1H779.2L757,121.78h-7.58v32.35H733.15Zm31.27,38.84a12.65,12.65,0,0,0,9.08-3.37A11.27,11.27,0,0,0,777,95a13,13,0,0,0-.78-4.45,11.23,11.23,0,0,0-2.34-3.85A11.57,11.57,0,0,0,770,84a13.3,13.3,0,0,0-5.35-1H749.38v23.93Z"/><path d="M807.7,68h16.23v86.1H807.7Z"/><path d="M841.25,68h33.67a30.15,30.15,0,0,1,10.34,1.74,26.42,26.42,0,0,1,8.36,4.81,23,23,0,0,1,5.59,7.15A20.83,20.83,0,0,1,897.95,102a21.72,21.72,0,0,1-8.24,7v1a23.41,23.41,0,0,1,10.64,7.52,19.87,19.87,0,0,1,4,12.69,21.64,21.64,0,0,1-2.22,9.92,23,23,0,0,1-6.07,7.52,27.84,27.84,0,0,1-9,4.81,34.92,34.92,0,0,1-11,1.68H841.25Zm32.47,35.11q5.65,0,8.72-3.07a10.16,10.16,0,0,0,.06-14.49q-3-3-8.3-3H857.49v20.56Zm1.8,36.08q6.13,0,9.38-3.07a10.35,10.35,0,0,0,3.25-7.88,10.65,10.65,0,0,0-3.31-8q-3.31-3.18-9.8-3.19H857.49v22.13Z"/><path d="M933.12,83.42v20h34.51v15.39H933.12v20h38.36v15.39H916.89V68h54.59V83.42Z"/></svg>
