<svg id="svg-ytsubs" xmlns="http://www.w3.org/2000/svg" viewBox="0 0 1000 220"><title>youtubesubscribe</title><path d="M377.61,155a35.68,35.68,0,0,1-10.6-1.57,30.56,30.56,0,0,1-9.27-4.7,32.46,32.46,0,0,1-7.35-7.65,37,37,0,0,1-4.94-10.54l15.3-6a23.34,23.34,0,0,0,5.9,10.78,14.86,14.86,0,0,0,11.08,4.28,17.83,17.83,0,0,0,4.88-.66,14.41,14.41,0,0,0,4.22-1.93,9.35,9.35,0,0,0,3-3.19,8.93,8.93,0,0,0,1.08-4.46,10.73,10.73,0,0,0-.84-4.34,10.16,10.16,0,0,0-2.83-3.61,25.21,25.21,0,0,0-5.18-3.25,79,79,0,0,0-7.89-3.25l-5.3-1.93a40.4,40.4,0,0,1-7-3.25,30.84,30.84,0,0,1-6.44-4.94A24.32,24.32,0,0,1,350.57,98a20.28,20.28,0,0,1-1.87-8.85,22.68,22.68,0,0,1,2-9.45A23.1,23.1,0,0,1,356.35,72a26.57,26.57,0,0,1,8.79-5.18,36.39,36.39,0,0,1,22.64-.12,27.76,27.76,0,0,1,8.07,4.46,24.83,24.83,0,0,1,5.36,6,28.8,28.8,0,0,1,3,6.14l-14.33,6a15.28,15.28,0,0,0-4.4-6.5q-3.19-2.89-8.73-2.89A14.87,14.87,0,0,0,368,82.36a7.56,7.56,0,0,0-3.49,6.44,8.16,8.16,0,0,0,3.37,6.56q3.37,2.71,10.72,5.24l5.42,1.81a62.17,62.17,0,0,1,9.46,4.16,29.63,29.63,0,0,1,7.35,5.6,22.79,22.79,0,0,1,4.7,7.41,26.17,26.17,0,0,1,1.63,9.58,23.57,23.57,0,0,1-2.71,11.62,24.86,24.86,0,0,1-6.93,8,30.09,30.09,0,0,1-9.52,4.7A36.52,36.52,0,0,1,377.61,155Z" style="fill:#fff"/><path d="M452,155a37,37,0,0,1-13.79-2.47,28.41,28.41,0,0,1-10.54-7.17A33.07,33.07,0,0,1,421,134a44.75,44.75,0,0,1-2.41-15.24V66.88h16.26v52.88a27.58,27.58,0,0,0,1.08,8,17.88,17.88,0,0,0,3.25,6.26,15.06,15.06,0,0,0,5.42,4.15,17.57,17.57,0,0,0,7.47,1.51,17.87,17.87,0,0,0,7.59-1.51,15.05,15.05,0,0,0,5.42-4.15,17.85,17.85,0,0,0,3.25-6.26,27.58,27.58,0,0,0,1.08-8V66.88h16.26v51.92a44.25,44.25,0,0,1-2.35,14.75A32.49,32.49,0,0,1,476.56,145,30.59,30.59,0,0,1,466,152.4,35.11,35.11,0,0,1,452,155Z" style="fill:#fff"/><path d="M501.07,66.88H534.8a30.21,30.21,0,0,1,10.36,1.75,26.48,26.48,0,0,1,8.37,4.82,23.05,23.05,0,0,1,5.6,7.17,20.86,20.86,0,0,1-1.26,20.3,21.76,21.76,0,0,1-8.25,7v1a23.45,23.45,0,0,1,10.66,7.53,19.9,19.9,0,0,1,4,12.71,21.68,21.68,0,0,1-2.23,9.94,23,23,0,0,1-6.08,7.53,27.91,27.91,0,0,1-9,4.82,35,35,0,0,1-11,1.69H501.07Zm32.52,35.17q5.66,0,8.73-3.07a10.18,10.18,0,0,0,.06-14.51q-3-3-8.31-3H517.33v20.6Zm1.81,36.14q6.14,0,9.4-3.07a10.37,10.37,0,0,0,3.25-7.89,10.66,10.66,0,0,0-3.31-8q-3.31-3.19-9.82-3.19H517.33v22.16Z" style="fill:#fff"/><path d="M603.21,155a35.68,35.68,0,0,1-10.6-1.57,30.56,30.56,0,0,1-9.27-4.7,32.46,32.46,0,0,1-7.35-7.65,37,37,0,0,1-4.94-10.54l15.3-6a23.34,23.34,0,0,0,5.9,10.78,14.86,14.86,0,0,0,11.08,4.28,17.84,17.84,0,0,0,4.88-.66,14.43,14.43,0,0,0,4.22-1.93,9.36,9.36,0,0,0,3-3.19,8.94,8.94,0,0,0,1.08-4.46,10.74,10.74,0,0,0-.84-4.34,10.18,10.18,0,0,0-2.83-3.61,25.23,25.23,0,0,0-5.18-3.25,79.08,79.08,0,0,0-7.89-3.25l-5.3-1.93a40.43,40.43,0,0,1-7-3.25,30.79,30.79,0,0,1-6.44-4.94A24.33,24.33,0,0,1,576.17,98a20.3,20.3,0,0,1-1.87-8.85,22.68,22.68,0,0,1,2-9.45A23.13,23.13,0,0,1,582,72a26.57,26.57,0,0,1,8.79-5.18,36.39,36.39,0,0,1,22.64-.12,27.74,27.74,0,0,1,8.07,4.46,24.83,24.83,0,0,1,5.36,6,28.81,28.81,0,0,1,3,6.14l-14.33,6a15.29,15.29,0,0,0-4.4-6.5q-3.19-2.89-8.73-2.89a14.87,14.87,0,0,0-8.79,2.47,7.56,7.56,0,0,0-3.49,6.44,8.16,8.16,0,0,0,3.37,6.56q3.37,2.71,10.72,5.24l5.42,1.81a62.16,62.16,0,0,1,9.45,4.16,29.63,29.63,0,0,1,7.35,5.6,22.79,22.79,0,0,1,4.7,7.41,26.15,26.15,0,0,1,1.63,9.58A23.57,23.57,0,0,1,630,140.78a24.85,24.85,0,0,1-6.93,8,30.09,30.09,0,0,1-9.52,4.7A36.52,36.52,0,0,1,603.21,155Z" style="fill:#fff"/><path d="M721.5,139.27A42.89,42.89,0,0,1,706.44,151a48.09,48.09,0,0,1-37.28.54,43.74,43.74,0,0,1-23.79-23.79,46.93,46.93,0,0,1,0-35.53,43.74,43.74,0,0,1,23.79-23.79A45.4,45.4,0,0,1,687,65a43.41,43.41,0,0,1,18.25,3.61,42.46,42.46,0,0,1,14,10.48L707.89,90.12A30.65,30.65,0,0,0,699,83a25,25,0,0,0-11.86-2.65,30.37,30.37,0,0,0-11.32,2.11,27.4,27.4,0,0,0-9.21,6,28.12,28.12,0,0,0-6.2,9.33,33.81,33.81,0,0,0,0,24.45,28.08,28.08,0,0,0,6.2,9.34,27.37,27.37,0,0,0,9.21,6,30.34,30.34,0,0,0,11.32,2.11,27.1,27.1,0,0,0,12.83-3,31.56,31.56,0,0,0,9.94-8.37Z" style="fill:#fff"/><path d="M734.51,66.88h31.44a32.53,32.53,0,0,1,11.8,2,27.27,27.27,0,0,1,9.09,5.66,24.68,24.68,0,0,1,5.84,8.61,28.51,28.51,0,0,1,2,10.9,22.66,22.66,0,0,1-1.44,8.13,24.36,24.36,0,0,1-4,6.87,29.29,29.29,0,0,1-5.9,5.42,29.91,29.91,0,0,1-7.11,3.67l-.12.84,23.13,33.12v1H780.64l-22.28-32.4h-7.59v32.4H734.51Zm31.32,38.91a12.68,12.68,0,0,0,9.09-3.37,11.29,11.29,0,0,0,3.55-8.55,13,13,0,0,0-.78-4.46,11.25,11.25,0,0,0-2.35-3.85,11.58,11.58,0,0,0-3.91-2.71,13.32,13.32,0,0,0-5.36-1h-15.3v24Z" style="fill:#fff"/><path d="M809.19,66.88h16.26v86.24H809.19Z" style="fill:#fff"/><path d="M842.79,66.88h33.73a30.2,30.2,0,0,1,10.36,1.75,26.47,26.47,0,0,1,8.37,4.82,23.06,23.06,0,0,1,5.6,7.17,20.86,20.86,0,0,1-1.27,20.3,21.75,21.75,0,0,1-8.25,7v1A23.45,23.45,0,0,1,902,116.44a19.9,19.9,0,0,1,4,12.71,21.68,21.68,0,0,1-2.23,9.94,23,23,0,0,1-6.08,7.53,27.89,27.89,0,0,1-9,4.82,35,35,0,0,1-11,1.69H842.79Zm32.52,35.17q5.66,0,8.73-3.07a10.18,10.18,0,0,0,.06-14.51q-3-3-8.31-3H859.05v20.6Zm1.81,36.14q6.14,0,9.4-3.07a10.37,10.37,0,0,0,3.25-7.89,10.67,10.67,0,0,0-3.31-8q-3.31-3.19-9.82-3.19H859.05v22.16Z" style="fill:#fff"/><path d="M934.82,82.3v20h34.57v15.42H934.82v20h38.42v15.42H918.56V66.88h54.69V82.3Z" style="fill:#fff"/><path d="M18.24,177.74a35.25,35.25,0,0,0,24.88,24.88c21.95,5.88,110,5.88,110,5.88s88,0,110-5.88a35.25,35.25,0,0,0,24.88-24.88c5.88-21.95,5.88-67.74,5.88-67.74s0-45.79-5.88-67.74A35.25,35.25,0,0,0,263,17.38c-21.95-5.88-110-5.88-110-5.88s-88,0-110,5.88A35.25,35.25,0,0,0,18.24,42.26" style="fill:#fff"/><polygon points="124.93 152.21 198.04 110 124.93 67.79 124.93 152.21" style="fill:red"/></svg>
