<svg id="svg-zalora" xmlns="http://www.w3.org/2000/svg" viewBox="0 0 1000 150"><title>zalora</title><path d="M121.68,10.25V4.6H6.11a79.53,79.53,0,0,0,.51,11.3h94C67.75,57.5,34.87,98.6,2,140.2v4.62H122.71v-11.3H23.06ZM381.6,4.6H368.76q-.77,70.12,0,140.23h79.1v-11.3H381.6Zm233.2,9.25A73.34,73.34,0,0,0,564,4.08c-19.52,3.08-38,14.9-48.28,31.85-12.33,19-14.38,44.18-6.68,65.24,5.65,14.9,16.44,28.25,30.31,36a73,73,0,0,0,61.13,5.65,70.62,70.62,0,0,0,37.5-30.31c10.27-17.46,12.84-39.55,7.19-59.07A68.9,68.9,0,0,0,614.8,13.84ZM622,112.47A57.27,57.27,0,0,1,585.53,134c-15.92,2.57-32.87-1.54-45.2-11.81a60.74,60.74,0,0,1-22.09-41.09c-1.54-16.44,3.6-33.9,14.9-46.23a57.41,57.41,0,0,1,30.82-18,59.63,59.63,0,0,1,47.26,9.76c12.84,9.25,21.06,24.14,23.11,39.55C635.86,82.16,631.76,99.62,622,112.47ZM777.12,75A65.49,65.49,0,0,0,790,67.26c15.92-13.36,14.9-42.12-2.57-53.94-8.73-6.16-20-8.73-31.33-8.73H719.59V144.83h12.84V78.56c10.79.51,22.6-2.05,32.87,3.08,8.73,5.14,13.36,14.38,19,22.6,8.22,13.36,16.44,27.22,25.17,40.58h15.41C814.11,128.39,803.83,112,793,95.51,788.42,88.32,783.8,80.62,777.12,75Zm-19.52-7.7H732.95V15.9c9.25,0,18.49-.51,27.22.51,9.25,1,19.52,4.11,24.14,12.84,4.62,9.25,4.11,21.57-3.08,29.28C775.07,64.69,765.82,66.75,757.6,67.26ZM236.23,3.57c-21.06,47.26-42.12,94.51-63.18,141.26h13.36c7.19-15.92,13.87-31.85,21.06-47.77h63.69C278.35,113,285,128.9,292.22,144.83h13.36c-20-46.74-41.09-94-62.15-141.26ZM213.12,85.76c8.73-20,18-40.07,26.71-60.61,8.73,20,18,40.07,26.71,60.61ZM935.85,3.57h-7.19c-21.06,47.26-42.12,94.51-63.18,141.26h13.36C886,128.9,892.7,113,899.89,97.06h63.69c7.19,15.92,13.87,31.85,21.06,47.77H998C978,98.08,956.91,50.83,935.85,3.57ZM905.54,85.76c8.73-20,18-40.07,26.71-60.61,8.73,20,18,40.07,26.71,60.61Z"/></svg>